<?xml version="1.0" encoding="utf-8"?><svg viewBox="0 0 1051 900" xmlns="http://www.w3.org/2000/svg" xmlns:xlink="http://www.w3.org/1999/xlink"><style>:root>svg{display:none}:root>svg:target{display:block}</style><svg fill="none" viewBox="0 0 102 24" id="arrow" xmlns="http://www.w3.org/2000/svg"><path d="M101.061 13.06a1.502 1.502 0 0 0 0-2.12l-9.546-9.547a1.5 1.5 0 1 0-2.122 2.122L97.88 12l-8.486 8.485a1.5 1.5 0 1 0 2.122 2.122l9.546-9.546zM0 13.5h100v-3H0v3z" fill="#fff"/></svg><svg viewBox="0 0 24 24" id="email" xmlns="http://www.w3.org/2000/svg"><path d="M20 4H4c-1.1 0-1.99.9-1.99 2L2 18c0 1.1.9 2 2 2h16c1.1 0 2-.9 2-2V6c0-1.1-.9-2-2-2zm0 4l-8 5-8-5V6l8 5 8-5v2z"/><path d="M0 0h24v24H0z" fill="none"/></svg><svg viewBox="0 0 24 24" id="facebook" xmlns="http://www.w3.org/2000/svg"><path d="M19 3H5a2 2 0 0 0-2 2v14a2 2 0 0 0 2 2h7.621v-6.961h-2.343v-2.725h2.343V9.309c0-2.324 1.421-3.591 3.495-3.591.699-.002 1.397.034 2.092.105v2.43H16.78c-1.13 0-1.35.534-1.35 1.322v1.735h2.7l-.351 2.725h-2.365V21H19a2 2 0 0 0 2-2V5a2 2 0 0 0-2-2z"/></svg><svg viewBox="0 0 24 24" id="insta" xmlns="http://www.w3.org/2000/svg"><path d="M8 3a5 5 0 0 0-5 5v8a5 5 0 0 0 5 5h8a5 5 0 0 0 5-5V8a5 5 0 0 0-5-5H8zm10 2a1 1 0 1 1 0 2 1 1 0 0 1 0-2zm-6 2a5 5 0 1 1-.001 10.001A5 5 0 0 1 12 7zm0 2a3 3 0 0 0-3 3 3 3 0 0 0 3 3 3 3 0 0 0 3-3 3 3 0 0 0-3-3z"/></svg><svg fill="none" viewBox="0 0 90 110" id="lock" xmlns="http://www.w3.org/2000/svg"><path d="M77.727 40.965V29.537C77.727 13.261 63.041 0 45 0 26.96 0 12.273 13.261 12.273 29.537v11.428C5.318 42.167 0 48.196 0 55.468v39.804C0 103.4 6.627 110 14.789 110H75.21C83.373 110 90 103.4 90 95.272V55.468c0-7.272-5.318-13.301-12.273-14.503zM16.364 29.537C16.364 15.502 29.209 4.074 45 4.074c15.79 0 28.636 11.428 28.636 25.463v11.204H16.364V29.537zm69.545 65.735c0 5.867-4.807 10.654-10.698 10.654H14.79c-5.891 0-10.698-4.787-10.698-10.654V55.468c0-5.866 4.807-10.653 10.698-10.653H75.21c5.891 0 10.698 4.787 10.698 10.654v39.803z" fill="#000"/><path d="M45 57.037c-4.52 0-8.182 3.646-8.182 8.148v12.222c0 4.502 3.662 8.149 8.182 8.149 4.52 0 8.182-3.647 8.182-8.149V65.185c0-4.502-3.662-8.148-8.182-8.148zm4.091 20.37c0 2.241-1.84 4.075-4.09 4.075s-4.092-1.834-4.092-4.075V65.185c0-2.24 1.841-4.074 4.091-4.074s4.091 1.834 4.091 4.074v12.222z" fill="#000"/></svg><svg fill="none" viewBox="0 0 443 652" id="triang1" xmlns="http://www.w3.org/2000/svg"><g clip-path="url(#fclip0)" opacity=".2"><path d="M94.91 39.012L50.49 51.788a3.235 3.235 0 0 0-3.187-1.544 3.233 3.233 0 0 0-.582 6.287l-4.437 60.51a3.23 3.23 0 0 0-2.658 3.596 3.233 3.233 0 0 0 4.96 2.309l33.235 39.457a3.235 3.235 0 0 0-.746 2.506 3.23 3.23 0 0 0 2.181 2.653L67.56 241.793a9.965 9.965 0 0 0-.376.019 3.233 3.233 0 0 0-2.8 3.62 3.24 3.24 0 0 0 .958 1.915L41.457 280.67a3.23 3.23 0 0 0-1.89-.33 3.233 3.233 0 0 0-1.744 5.619l-36.77 55.937a3.233 3.233 0 0 0-4.572 3.343 3.233 3.233 0 0 0 5.365 1.999L35.93 375.58a3.23 3.23 0 0 0 2.467 4.898l5.776 105.797.482-.028-.01.001a3.233 3.233 0 0 0-2.8 3.619 3.233 3.233 0 0 0 4.695 2.463l21.433 27.093a3.233 3.233 0 0 0-.801 2.563c.12.918.611 1.694 1.3 2.201l-18.86 35.891a3.233 3.233 0 0 0-4.279 3.463 3.235 3.235 0 0 0 3.62 2.8 3.284 3.284 0 0 0 1.988-1.036l40.735 27.185a3.233 3.233 0 1 0 6.154 1.41l100.982-14.112a3.228 3.228 0 0 0 3.533 2.36 3.234 3.234 0 0 0 2.8-3.62 3.233 3.233 0 0 0-3.62-2.8 3.292 3.292 0 0 0-1.271.449l-31.207-36.654a3.23 3.23 0 0 0-2.366-5.359l-7.71-60.328a3.236 3.236 0 0 0-.037-6.24l5.474-47.759a3.234 3.234 0 0 0 3.1-3.642 3.243 3.243 0 0 0-3.092-2.823l54.3-118.761c.415.117.854.157 1.31.105a3.232 3.232 0 0 0 2.8-3.619 3.233 3.233 0 0 0-3.62-2.8 3.254 3.254 0 0 0-1.705.759l-81.925-70.521a3.264 3.264 0 0 0 .476-2.138 3.227 3.227 0 0 0-.869-1.82l28.139-36.104a3.26 3.26 0 0 0 2.004.398 3.233 3.233 0 0 0 2.8-3.62 3.22 3.22 0 0 0-2.038-2.605l9.242-40.628c.214.015.438.01.656-.021a3.233 3.233 0 0 0 2.799-3.62 3.232 3.232 0 0 0-3.954-2.74l-27.855-69.623a3.233 3.233 0 1 0-4.549-4.181L101.3 39.277a3.24 3.24 0 0 0 .041-1.044 3.234 3.234 0 0 0-3.62-2.8 3.23 3.23 0 0 0-2.811 3.58zM50.536 55.038L77.87 67.053 43.8 117.141a3.472 3.472 0 0 0-.558-.123l.419-5.688 4.002-54.65a3.199 3.199 0 0 0 2.874-1.643zM41.822 376.43l5.57-2.442 37.078 22.225-42.638-18.125c.102-.389.138-.802.082-1.223a3.322 3.322 0 0 0-.092-.435zM48.3 489.449l32.055-7.944a3.245 3.245 0 0 0 1.557 1.671l-7.248 22.5-26.656-14.847a3.38 3.38 0 0 0 .292-1.38zm3.31 72.639l27.17-13.972 14.355 42.873a3.382 3.382 0 0 0-.934.71l-40.735-27.186a3.25 3.25 0 0 0 .143-2.425zm105.435-403.996l-33.202-69.46c.14-.095.27-.2.394-.31l48.546 38.83a3.217 3.217 0 0 0 .712 4.103l-16.45 26.837zm-112.377-40.53L78.76 67.445l40.154 17.657c-.112.399-.142.827-.091 1.263.019.137.048.274.081.405l-73.61 31.357a3.01 3.01 0 0 0-.625-.565zm76.959-34.822c-.218.031-.43.077-.632.143L99.99 42.02l28.915 33.47-5.398 7.58a3.209 3.209 0 0 0-1.88-.33zm7.917-6.513l42.29 48.949-47.005-37.6a3.21 3.21 0 0 0 .418-2.036 3.259 3.259 0 0 0-.968-1.924l5.265-7.39zm26.905 82.836l-5.408 8.822a3.232 3.232 0 0 0-1.675-.233c-.045.006-.086.017-.131.023l-10.841-33.173-13.64-41.747 31.695 66.308zm.493 1.026l6.158 12.88a3.281 3.281 0 0 0-1.098 1.258l-9.029-2.854a3.26 3.26 0 0 0-1.116-2.989l5.085-8.295zm5.623 17.792l-28.139 36.104c-.016-.004-.026-.014-.037-.024l14.733-39.929a3.234 3.234 0 0 0 3.568-1.747l9.029 2.855a3.088 3.088 0 0 0-.013.921c.084.715.404 1.338.859 1.82zM43.115 284.363l52.758 5.448c.007.086.009.177.021.269.037.253.094.496.181.728l-37.656 20.9-16.317-25.697a3.303 3.303 0 0 0 1.013-1.648zm52.903 306.601l18.699-58.94a3.23 3.23 0 0 0 3.049-1.179l32.505 18.766-53.45 41.918a2.943 2.943 0 0 0-.803-.565zm103.414-14.08l-47.465-27.406 12.415-9.738a3.228 3.228 0 0 0 2.636.861c.477-.063.92-.226 1.301-.47l31.197 36.644c-.024.046-.054.077-.084.109zm-35.728-40.907a3.109 3.109 0 0 0-.172.422l-45.067-7.52a3.642 3.642 0 0 0-.022-.467 3.214 3.214 0 0 0-1.062-2.004l10.914-14.721 35.409 24.29zm-35.629-25.592l-41.83-28.695c.203-.412.314-.872.322-1.351l68.401-8.744c.156.546.442 1.027.823 1.409l-27.716 37.381zm19.157-98.298l-53.387-12.569a3.248 3.248 0 0 0-.674-2.161l18.374-21.63 49.941 39.264a3.253 3.253 0 0 0-.199.406l-14.055-3.31zm-13.985-192.075c.056-.007.116-.018.177-.03l24.973 73.016a3.218 3.218 0 0 0-1.081.906l-47.483-26.261 22.099-47.741c.41.122.853.167 1.315.11zM87.01 359.602a3.212 3.212 0 0 0 2.058-1.536l21.72 17.08-18.31 21.562c-.429-.3-.927-.496-1.458-.564l-4.01-36.542zm76.789 179.395l-12.715 9.968-32.841-18.956c.025-.057.038-.113.057-.175l45.072 7.505c-.001.157.002.31.022.467.061.436.198.835.405 1.191zm-6.72-241.495l-38.887 31.176-17.292-36.326a3.232 3.232 0 0 0 1.327-1.884l1.229.127 53.18 5.422c.007.086.009.178.021.259.062.446.215.859.422 1.226zm-39.645 31.784l-30.079 24.112a3.16 3.16 0 0 0-.471-.131l9.154-45.835 2.907-14.538c.188.01.381.006.574-.02a3.62 3.62 0 0 0 .536-.115l17.379 36.527zm.418.885l9.953 20.911a3.233 3.233 0 0 0-1.353 2.277l-16.561.51-21.033.641a3.098 3.098 0 0 0-.6-.61l29.594-23.729zm-6.441 44.247l-21.98-17.277a3.132 3.132 0 0 0-.087-1.691l20.495-.628 16.641-.513c.106.577.358 1.095.714 1.514l-15.783 18.595zm-10.537-87.452l8.543-18.458 47.426 26.227c-.043.108-.071.221-.104.338l-54.408-5.549c-.007-.086-.01-.178-.022-.259a3.21 3.21 0 0 0-1.435-2.299zm57.099 11.516l-27.3 52.173a3.197 3.197 0 0 0-2.014-.001l-10.044-21.097 39.062-31.317c.094.089.192.163.296.242zm-27.898 58.455c.229-.031.446-.083.658-.159l31.598 57.24c-.089.074-.174.142-.259.22L112.158 375l15.754-18.554c.62.402 1.378.597 2.163.491zm-2.561 154.215l-10.929 14.737a3.223 3.223 0 0 0-1.762-.277 3.14 3.14 0 0 0-.949.277L85.501 482.69c.075-.068.15-.136.214-.213l41.799 28.675zM88.119 397.294l-39.66-23.768 35.067-15.354a3.244 3.244 0 0 0 2.535 1.51l4.003 36.485c-.79.132-1.466.55-1.945 1.127zm-40.656-24.37L2.682 346.078c.048-.113.086-.226.124-.339l80.226 10.762c.003.122.01.239.024.36.019.147.048.294.092.436l-35.685 15.627zm38.393-19.682c-.32.043-.623.132-.905.251L58.928 312.51l37.61-20.874c.379.489.886.863 1.471 1.072L85.916 353.23c-.02.011-.04.011-.06.012zm12.833-66.787c-.375.05-.718.16-1.04.321l-27.752-39.471c.134-.14.258-.291.37-.451l38.319 21.191-8.572 18.52a3.273 3.273 0 0 0-1.325-.11zm-28.028-42.444l59.42-25.513c.249.406.588.748.981 1.003l-22.07 47.68-38.308-21.182c.132-.431.187-.895.124-1.372a3.039 3.039 0 0 0-.147-.616zm64.286-24.763l81.925 70.52c-.279.44-.454.948-.492 1.488l-53.351 3.906a3.232 3.232 0 0 0-3.744-2.471l-24.973-73.016c.236-.122.446-.26.635-.427zm81.769 73.678l-55.16 38.165-1.097-32.04a3.236 3.236 0 0 0 2.649-2.939l53.351-3.907c.058.253.145.495.257.721zM160.62 331.73l-28.598 19.782a3.42 3.42 0 0 0-.499-.436l27.29-52.162c.226.075.451.131.696.155l1.111 32.661zm.043 1.133l2.749 80.625c-.081.023-.167.05-.247.083l-31.588-57.231a3.229 3.229 0 0 0 .988-4.043l28.098-19.434zm.821 85.343l-29.975 23.574-38.218-40.605c.152-.223.279-.46.369-.711l10.136 2.389 57.275 13.481c-.02.219-.014.453.017.681.051.426.193.829.396 1.191zm-30.729 24.168l-45.194 35.549a3.223 3.223 0 0 0-1.454-.789l6.954-74.577a3.21 3.21 0 0 0 1.576-.685l38.118 40.502zm.653.691l24.14 25.647a3.237 3.237 0 0 0-.695 1.94l-68.4 8.744a3.172 3.172 0 0 0-.303-.725l45.258-35.606zm26.614 30.881l7.711 60.328a3.247 3.247 0 0 0-1.494.912l-35.372-24.266 27.701-37.355c.438.238.935.374 1.454.381zm40.68 104.894L97.7 592.952a3.04 3.04 0 0 0-.286-.69l53.749-42.149 47.781 27.587a3.172 3.172 0 0 0-.242 1.14zM79.628 547.672l32.971-16.959c.311.435.732.785 1.205 1.018l-18.698 58.94a3.296 3.296 0 0 0-.927-.018c-.055.007-.106.018-.152.024l-14.4-43.005zm-.302-.913l-7.458-22.279a3.252 3.252 0 0 0 1.658-2.045l38.486 6.725c0 .021.006.046.001.072.031.218.077.43.143.632l-32.83 16.895zm-7.818-28.202l3.699-11.491 36.997 20.609c-.062.17-.109.344-.15.523l-38.419-6.712a3.233 3.233 0 0 0-2.127-2.929zm3.997-12.408l7.304-22.685a3.218 3.218 0 0 0 1.876-.25l28.264 43.314a2.74 2.74 0 0 0-.287.322l-37.157-20.701zm14.314-103.663c.097.023.194.046.29.059l-5.119 54.907-1.826 19.589c-.076.007-.157.009-.233.016a3.242 3.242 0 0 0-2.813 3.518l-31.979 7.926a3.183 3.183 0 0 0-1.086-1.57l42.766-84.445zm-51.53-28.414a3.186 3.186 0 0 0-1.745.801l-31.795-26.44 41.642 24.96-4.952 2.168a3.223 3.223 0 0 0-3.15-1.489zM2.72 343.711l55.375-30.733 26.055 41.033a3.217 3.217 0 0 0-.989 1.551l-80.23-10.757a3.075 3.075 0 0 0-.21-1.094zm-.87-1.275l36.77-55.938a3.22 3.22 0 0 0 2.676.026l16.285 25.648-55.319 30.706a3.406 3.406 0 0 0-.413-.442zm40.384-61.195l23.884-33.324a3.221 3.221 0 0 0 3.026-.039l27.735 39.446a3.206 3.206 0 0 0-.903 1.543l-52.758-5.448c-.007-.086-.01-.177-.022-.269a3.286 3.286 0 0 0-.962-1.909zm74.371-79.899l13.626 13.535a3.235 3.235 0 0 0-.528 2.745l-59.48 25.535c-.011-.021-.027-.035-.043-.06l46.425-41.755zm.711-.633l30.406-27.355c.155.128.326.241.507.344l-14.728 39.934a3.232 3.232 0 0 0-1.069-.045 3.146 3.146 0 0 0-1.521.617l-13.595-13.495zm-.678-.675l-33.78-33.563a3.37 3.37 0 0 0 .57-1.184l13.52 1.233 49.608 4.523c.007.076.008.147.02.228.064.507.248.971.518 1.376l-30.456 27.387zm-34.474-38.165l9.63-18.098 54.891 26.134c-.019.062-.033.118-.051.18l-49.898-4.552-13.225-1.21c-.002-.081-.009-.157-.016-.244a3.219 3.219 0 0 0-1.331-2.21zm10.077-18.933l28.711-53.938c.467.167.973.23 1.495.162.045-.006.086-.017.132-.024l17.531 53.651 8.231 25.18a3.192 3.192 0 0 0-1.234 1.089l-54.866-26.12zm-.86-.411l-45.379-21.608c.078-.353.1-.719.05-1.095a3.232 3.232 0 0 0-.246-.879l73.475-31.297c.217.356.5.664.831.91l-28.73 53.969zM79.305 66.642l17.16-25.227a3.18 3.18 0 0 0 2.345.385l21.342 41.521c-.34.242-.627.555-.853.906L79.304 66.642zm62.84-13.897a3.268 3.268 0 0 0-.013.89c.1.761.452 1.424.968 1.925l-13.628 19.138-29.12-33.704c.243-.235.455-.51.621-.809l41.172 12.56zm31.801 73.239c-.035.016-.065.047-.1.063l-43.73-50.617 13.755-19.324a3.244 3.244 0 0 0 1.881.33c.111-.013.223-.036.339-.065l27.855 69.613zm-8.788 46.441a3.671 3.671 0 0 0-.661.016c-.188.02-.365.07-.542.121l-6.42-13.439 16.772-27.364c.031.009.062.029.093.038l-9.242 40.628zm-.867 238.93l-2.701-79.13 55.666-38.508c.177.189.375.357.597.499L164.29 411.355zm-6.31 56.127c-.102.002-.199.01-.3.023a3.33 3.33 0 0 0-1.441.554l-24.077-25.588 29.909-23.527c.386.367.866.635 1.388.774l-5.479 47.764zm-88.647 57.167a3.24 3.24 0 0 0 1.48.157c.055-.007.106-.018.151-.024l7.508 22.415-27.3 14.048a3.25 3.25 0 0 0-.72-.725l18.881-35.871zM47.32 491.792l.164-.172 26.882 14.974-3.794 11.768a3.216 3.216 0 0 0-.585.019 3.294 3.294 0 0 0-1.27.449L47.32 491.792zm-2.192-5.551L39.347 380.45a3.249 3.249 0 0 0 2.11-1.477l46.026 19.562c-.103.39-.138.803-.082 1.223a3.23 3.23 0 0 0 1.533 2.353l-42.707 84.342a3.346 3.346 0 0 0-1.155-.216l.056.004zm35.064-318.504a3.19 3.19 0 0 0 1.99-.609l33.755 33.539-46.42 41.759a3.322 3.322 0 0 0-1.004-.499l11.68-74.19zm-34.887-45.409c.133-.161.256-.332.358-.512l45.271 21.554-9.615 18.072a3.293 3.293 0 0 0-1.438-.147 3.297 3.297 0 0 0-1.341.49l-33.235-39.457zm5.554-69.654l44.297-12.742c.146.327.336.627.571.881L78.42 66.257 50.875 54.15c.078-.353.1-.72.05-1.105a1.819 1.819 0 0 0-.066-.37z" fill="#fff"/></g><defs><clipPath id="fclip0"><path transform="rotate(133.586 442.146 331.255)" fill="#fff" d="M442.146 331.255h442.563v480.47H442.146z"/></clipPath></defs></svg><svg fill="none" viewBox="0 0 308 209" id="triang2" xmlns="http://www.w3.org/2000/svg"><g clip-path="url(#gclip0)" opacity=".3"><path d="M144.252-80.604l-20.946 6.025a1.526 1.526 0 1 0-1.777 2.236l-2.093 28.534a1.525 1.525 0 1 0 1.086 2.785l15.672 18.606a1.523 1.523 0 0 0 .677 2.432l-5.517 35.004c-.057.002-.117.006-.177.01a1.524 1.524 0 0 0-.869 2.61L119.046 33.35a1.524 1.524 0 0 0-1.714 2.494l-17.34 26.377a1.523 1.523 0 0 0-2.155 1.577 1.525 1.525 0 0 0 2.53.942l16.073 13.365a1.522 1.522 0 0 0 1.163 2.31l2.723 49.889.228-.013h-.005a1.524 1.524 0 0 0-1.32 1.707 1.524 1.524 0 0 0 2.214 1.161l10.107 12.776a1.524 1.524 0 0 0 .235 2.246l-8.894 16.925a1.525 1.525 0 1 0-.311 2.953c.376-.05.702-.231.938-.488l19.209 12.819a1.525 1.525 0 1 0 2.902.665l47.618-6.655a1.522 1.522 0 0 0 1.666 1.113 1.524 1.524 0 0 0 1.32-1.707 1.524 1.524 0 0 0-2.306-1.109l-14.716-17.284a1.524 1.524 0 0 0-1.115-2.527l-3.636-28.448a1.526 1.526 0 0 0-.018-2.942l2.582-22.521a1.524 1.524 0 0 0 .004-3.049l25.605-56.002a1.524 1.524 0 0 0 1.938-1.657 1.525 1.525 0 0 0-2.511-.962L163.428 4.05a1.52 1.52 0 0 0-.185-1.866l13.269-17.025a1.524 1.524 0 0 0 1.304-2.748l4.358-19.158a1.525 1.525 0 1 0-.077-3.037c-.053.006-.105.017-.158.027l-13.135-32.83a1.525 1.525 0 1 0-2.145-1.972l-19.394-5.921a1.522 1.522 0 0 0-1.688-1.813 1.523 1.523 0 0 0-1.325 1.688zm-20.925 7.557l12.889 5.667-16.066 23.618a1.613 1.613 0 0 0-.263-.058l.198-2.682 1.887-25.77a1.506 1.506 0 0 0 1.355-.775zm-4.109 151.555l2.627-1.152 17.484 10.48-20.106-8.547a1.482 1.482 0 0 0-.005-.781zm3.055 53.293l15.115-3.745c.143.346.407.625.734.787l-3.417 10.61-12.57-7.001c.089-.201.139-.42.138-.651zm1.56 34.254l12.812-6.589 6.77 20.217c-.166.086-.317.2-.441.335l-19.209-12.82a1.533 1.533 0 0 0 .068-1.143zm49.719-190.506l-15.657-32.754c.066-.045.127-.095.186-.146l22.892 18.31a1.52 1.52 0 0 0 .336 1.935l-7.757 12.655zM120.56-43.563l16.076-23.633 18.935 8.326a1.52 1.52 0 0 0-.005.787l-34.712 14.786a1.404 1.404 0 0 0-.294-.266zm36.29-16.42a1.758 1.758 0 0 0-.298.067l-9.905-19.27 13.635 15.784-2.545 3.574a1.515 1.515 0 0 0-.887-.155zm3.734-3.072l19.942 23.082-22.166-17.73c.164-.28.242-.613.197-.96a1.537 1.537 0 0 0-.456-.908l2.483-3.484zm12.687 39.062l-2.551 4.16a1.522 1.522 0 0 0-.789-.11l-.062.011-5.112-15.643-6.432-19.686 14.946 31.268zm.232.483l2.904 6.074c-.222.15-.399.356-.518.594l-4.257-1.347a1.539 1.539 0 0 0-.527-1.41l2.398-3.91zm2.652 8.39L162.886 1.906c-.008-.003-.013-.007-.018-.012l6.948-18.829a1.527 1.527 0 0 0 1.682-.823l4.258 1.346a1.436 1.436 0 0 0-.006.434c.039.337.19.631.405.858zm-56.328 50.212l24.879 2.57c.003.04.004.083.01.126.017.12.044.234.085.344l-17.756 9.855-7.695-12.118a1.55 1.55 0 0 0 .477-.777zm24.947 144.579l8.818-27.793a1.518 1.518 0 0 0 1.437-.556l15.328 8.849-25.204 19.767a1.385 1.385 0 0 0-.379-.267zm48.766-6.639l-22.383-12.924 5.855-4.591a1.522 1.522 0 0 0 1.856.184l14.711 17.279c-.011.022-.025.037-.039.052zm-16.848-19.29a1.382 1.382 0 0 0-.081.199l-21.252-3.546a1.51 1.51 0 0 0-.511-1.165l5.147-6.942 16.697 11.454zm-16.801-12.068l-19.725-13.531c.096-.194.148-.412.152-.637l32.254-4.123c.074.257.209.484.389.664l-13.07 17.627zm9.033-46.353l-25.174-5.927a1.522 1.522 0 0 0-.318-1.019l8.664-10.2 23.55 18.515c-.035.061-.067.124-.094.192l-6.628-1.56zM162.33 4.747a1.13 1.13 0 0 0 .083-.014l11.776 34.431a1.509 1.509 0 0 0-.509.428l-22.391-12.384 10.42-22.512c.194.057.403.078.621.051zm-21.804 65.825c.423-.1.769-.37.971-.725l10.242 8.054-8.634 10.168a1.541 1.541 0 0 0-.688-.266l-1.891-17.231zm36.211 84.594l-5.996 4.701-15.486-8.939c.011-.027.018-.054.027-.083l21.253 3.539c0 .074.001.146.01.221.03.205.094.393.192.561zm-3.169-113.878L155.23 55.989l-8.154-17.13c.31-.206.534-.526.626-.888l.58.06 25.077 2.557c.003.04.004.084.01.122.029.21.101.405.199.578zm-18.695 14.988l-14.184 11.37a1.422 1.422 0 0 0-.222-.061l4.317-21.614 1.37-6.856a1.468 1.468 0 0 0 .524-.063l8.195 17.224zm.197.417l4.693 9.861a1.53 1.53 0 0 0-.638 1.074l-7.809.24-9.918.303a1.465 1.465 0 0 0-.283-.288l13.955-11.19zm-3.037 20.865l-10.365-8.147a1.485 1.485 0 0 0-.041-.797l9.664-.297 7.848-.241c.05.272.169.516.337.714l-7.443 8.768zm-4.969-41.238l4.028-8.704 22.364 12.367c-.02.051-.033.104-.048.16l-25.657-2.617c-.003-.04-.004-.084-.01-.122a1.513 1.513 0 0 0-.677-1.084zm26.925 5.43l-12.873 24.603a1.507 1.507 0 0 0-.95 0l-4.736-9.949 18.42-14.768c.044.042.091.077.139.114zm-13.155 27.565c.108-.015.21-.039.31-.075l14.901 26.992a2.337 2.337 0 0 0-.123.104l-23.537-18.503 7.429-8.75c.292.19.65.282 1.02.232zm-1.208 72.721l-5.153 6.949a1.527 1.527 0 0 0-.831-.131 1.48 1.48 0 0 0-.448.131l-13.379-20.37c.035-.033.07-.065.101-.101l19.71 13.522zm-18.577-53.69l-18.701-11.209 16.535-7.24c.258.41.701.681 1.196.712l1.888 17.205c-.373.062-.692.26-.918.532zm-19.171-11.492l-21.117-12.66c.023-.053.041-.106.059-.16l37.831 5.075a1.299 1.299 0 0 0 .054.375l-16.827 7.37zm18.104-9.281c-.15.02-.293.062-.426.118l-12.272-19.326 17.736-9.843c.178.23.417.407.693.506l-5.702 28.539c-.01.005-.019.005-.029.006zm6.052-31.494a1.55 1.55 0 0 0-.491.151l-13.086-18.612c.063-.067.121-.138.175-.213l18.069 9.993-4.042 8.733a1.546 1.546 0 0 0-.625-.052zm-13.217-20.015l28.02-12.03a1.5 1.5 0 0 0 .462.473L150.892 26.99l-18.064-9.988a1.519 1.519 0 0 0-.011-.938zm30.314-11.677l38.633 33.254a1.501 1.501 0 0 0-.233.702l-25.157 1.842a1.524 1.524 0 0 0-1.682-1.18c-.027.003-.055.009-.084.014L162.832 4.59c.111-.058.21-.123.299-.202zM201.69 39.13l-26.011 17.997-.517-15.108a1.527 1.527 0 0 0 1.249-1.386l25.158-1.843c.027.12.068.234.121.34zM175.238 57.43l-13.486 9.328a1.566 1.566 0 0 0-.235-.206l12.868-24.597c.107.036.213.062.329.073l.524 15.402zm.02.534l1.296 38.019a1.12 1.12 0 0 0-.116.039l-14.896-26.987a1.522 1.522 0 0 0 .466-1.907l13.25-9.164zm.387 40.243l-14.135 11.117-18.022-19.148a1.45 1.45 0 0 0 .174-.335l4.78 1.127 27.008 6.357a1.512 1.512 0 0 0 .195.883zm-14.49 11.397l-21.312 16.763a1.516 1.516 0 0 0-.685-.371l3.279-35.168c.282-.04.536-.154.743-.323l17.975 19.099zm.308.326l11.383 12.094c-.2.254-.322.574-.328.915l-32.254 4.123a1.552 1.552 0 0 0-.143-.342l21.342-16.79zm12.55 14.562l3.636 28.448a1.533 1.533 0 0 0-.705.43l-16.68-11.443 13.063-17.615c.207.113.441.177.686.18zm19.182 49.463l-47.627 6.655a1.44 1.44 0 0 0-.136-.326l25.346-19.875 22.531 13.008c-.07.168-.109.351-.114.538zm-56.15-14.697l15.548-7.997c.147.205.345.37.569.48l-8.818 27.793a1.556 1.556 0 0 0-.437-.008c-.026.003-.05.008-.071.011l-6.791-20.279zm-.142-.431l-3.517-10.506c.384-.196.67-.546.782-.964l18.148 3.172c0 .009.003.021.001.033.014.103.036.203.067.298l-15.481 7.967zm-3.687-13.298l1.745-5.419 17.446 9.718c-.03.08-.051.162-.071.247l-18.117-3.165a1.524 1.524 0 0 0-1.003-1.381zm1.885-5.852l3.444-10.697a1.518 1.518 0 0 0 .885-.118l13.328 20.425a1.298 1.298 0 0 0-.135.152l-17.522-9.762zm6.75-48.882c.046.01.092.022.137.028l-2.414 25.891-.861 9.237c-.036.004-.074.005-.11.008a1.528 1.528 0 0 0-1.326 1.659l-15.08 3.738a1.502 1.502 0 0 0-.513-.741l20.167-39.82zm-24.299-13.4c-.318.04-.6.179-.823.379l-14.993-12.468 19.636 11.77-2.335 1.022a1.52 1.52 0 0 0-1.485-.702zm-16.773-14.316l26.112-14.492 12.287 19.35a1.511 1.511 0 0 0-.466.73l-37.834-5.072a1.396 1.396 0 0 0-.099-.516zm-.41-.601l17.339-26.378a1.52 1.52 0 0 0 1.262.013l7.679 12.094-26.086 14.48a1.58 1.58 0 0 0-.194-.21zm19.043-28.857l11.263-15.714a1.521 1.521 0 0 0 1.427-.018l13.078 18.6a1.509 1.509 0 0 0-.425.728l-24.879-2.569c-.003-.04-.004-.083-.01-.126a1.555 1.555 0 0 0-.454-.9zm35.07-37.676l6.425 6.382a1.526 1.526 0 0 0-.248 1.295L132.61 15.66c-.005-.01-.012-.016-.02-.028l21.892-19.69zm.336-.299l14.337-12.9c.074.061.154.114.239.163l-6.944 18.83a1.535 1.535 0 0 0-.505-.02c-.27.033-.514.137-.717.29l-6.41-6.363zm-.32-.318L138.568-20.5c.126-.166.217-.356.269-.558l6.376.58 23.392 2.134c.004.036.005.07.01.108.03.239.117.457.244.649L154.498-4.673zM138.241-22.67l4.541-8.534 25.885 12.323-.025.085-23.529-2.146-6.236-.57c-.001-.04-.005-.075-.008-.116a1.517 1.517 0 0 0-.628-1.042zm4.752-8.928l13.539-25.434c.22.078.459.108.705.076l.062-.011 8.267 25.299 3.882 11.873c-.24.12-.437.297-.583.514l-25.872-12.317zm-.405-.194L121.189-41.98a1.523 1.523 0 0 0-.092-.93l34.647-14.76c.103.169.236.314.392.43l-13.548 25.45zm-5.695-35.782l8.092-11.896a1.499 1.499 0 0 0 1.105.181l10.064 19.58c-.16.114-.296.26-.402.427l-18.859-8.293zm29.632-6.554a1.533 1.533 0 0 0 .451 1.327l-6.427 9.025-13.732-15.893c.115-.111.215-.24.293-.382l19.415 5.923zm14.996 34.536c-.017.008-.031.023-.047.03L160.853-63.43l6.486-9.112a1.53 1.53 0 0 0 1.047.125l13.135 32.826zm-4.144 21.9a1.515 1.515 0 0 0-.567.064l-3.028-6.337 7.909-12.904c.015.005.029.014.044.019l-4.358 19.158zm-.409 112.668l-1.274-37.314 26.25-18.159c.084.09.177.169.282.236l-25.258 55.237zm-2.976 26.467a1.565 1.565 0 0 0-.82.272l-11.354-12.066 14.104-11.094c.182.173.408.299.654.365l-2.584 22.523zM132.191 148.4c.218.076.454.104.697.074.027-.003.051-.008.072-.011l3.54 10.57-12.873 6.624a1.532 1.532 0 0 0-.34-.342l8.904-16.915zm-10.38-15.493l.077-.081 12.676 7.06-1.789 5.549a1.522 1.522 0 0 0-.875.221l-10.089-12.749zm-1.034-2.618l-2.726-49.886c.425-.088.78-.348.995-.697l21.703 9.225a1.524 1.524 0 0 0 .685 1.686l-20.139 39.772a1.56 1.56 0 0 0-.545-.102l.027.002zm16.535-150.192a1.511 1.511 0 0 0 .938-.287l15.917 15.815-21.889 19.692a1.56 1.56 0 0 0-.474-.235l5.508-34.985zM120.86-41.316c.063-.075.121-.156.169-.241l21.348 10.164-4.534 8.522a1.554 1.554 0 0 0-.678-.07c-.235.03-.446.114-.633.232L120.86-41.316zm2.619-32.845l20.889-6.009c.068.154.158.296.269.416l-8.161 11.998-12.989-5.71c.037-.166.047-.34.023-.52a.853.853 0 0 0-.031-.175z" fill="#fff"/></g><defs><clipPath id="gclip0"><path transform="rotate(133.586 307.993 57.205)" fill="#fff" d="M307.993 57.205h208.692v226.568H307.993z"/></clipPath></defs></svg><svg fill="none" viewBox="0 0 188 188" id="triang3" xmlns="http://www.w3.org/2000/svg"><g clip-path="url(#hclip0)" opacity=".2"><path d="M87.952 11.216l-12.77 3.674a.93.93 0 1 0-1.084 1.363l-1.276 17.398a.93.93 0 1 0 .662 1.698l9.555 11.344a.93.93 0 0 0 .413 1.483l-3.364 21.342a.93.93 0 0 0-.638 1.597l-6.866 9.58a.93.93 0 0 0-1.045 1.52L60.967 98.3a.928.928 0 0 0-1.314.96.93.93 0 0 0 1.542.576l9.8 8.148a.93.93 0 0 0 .709 1.409l1.66 30.417.14-.008H73.5a.93.93 0 1 0 .545 1.749l6.163 7.79a.928.928 0 0 0 .143 1.369l-5.423 10.319a.93.93 0 1 0 .382 1.503l11.712 7.816a.93.93 0 1 0 1.77.406l29.033-4.058a.93.93 0 1 0 .415-1.038l-8.973-10.538a.927.927 0 0 0-.68-1.541l-2.217-17.345a.93.93 0 0 0-.01-1.794l1.574-13.731a.93.93 0 0 0 .002-1.859l15.612-34.145a.929.929 0 0 0 1.181-1.01.929.929 0 0 0-1.531-.587L99.644 62.83a.928.928 0 0 0-.113-1.138l8.09-10.38a.93.93 0 0 0 .796-1.675l2.657-11.681a.929.929 0 0 0 .993-1.047.929.929 0 0 0-1.04-.805c-.032.004-.064.01-.097.017l-8.008-20.017a.929.929 0 1 0-1.308-1.203l-11.825-3.61a.926.926 0 0 0-1.029-1.105.929.929 0 0 0-.808 1.03zm-12.758 4.608l7.859 3.455-9.796 14.4a.979.979 0 0 0-.16-.035l.12-1.635 1.15-15.713a.919.919 0 0 0 .826-.472zm-2.505 92.404l1.602-.702 10.66 6.39-12.26-5.211a.91.91 0 0 0-.002-.477zm1.862 32.494l9.216-2.284a.934.934 0 0 0 .448.48l-2.084 6.469-7.663-4.268a.976.976 0 0 0 .083-.397zm.952 20.884l7.811-4.017 4.128 12.327a.951.951 0 0 0-.269.204l-11.712-7.816a.938.938 0 0 0 .042-.698zm30.314-116.153l-9.546-19.97c.04-.028.077-.058.113-.09l13.958 11.165a.924.924 0 0 0 .204 1.18l-4.729 7.715zM73.507 33.8l9.802-14.409 11.544 5.077a.936.936 0 0 0-.002.48l-21.164 9.015a.864.864 0 0 0-.18-.163zM95.634 23.79a1.066 1.066 0 0 0-.182.04l-6.04-11.748 8.314 9.623-1.552 2.18a.923.923 0 0 0-.54-.095zm2.276-1.873l12.159 14.074-13.515-10.811a.923.923 0 0 0-.158-1.138l1.514-2.125zm7.735 23.816l-1.555 2.537a.927.927 0 0 0-.481-.067l-.038.007-3.117-9.538-3.921-12.003 9.112 19.064zm.142.295l1.771 3.704a.933.933 0 0 0-.316.361l-2.596-.82a.938.938 0 0 0-.321-.86l1.462-2.385zm1.617 5.116l-8.09 10.38c-.005-.001-.008-.004-.011-.007l4.236-11.48a.93.93 0 0 0 1.026-.502l2.595.82a.903.903 0 0 0-.003.265.914.914 0 0 0 .247.524zM73.061 81.757l15.168 1.567.006.077c.01.073.027.143.052.21l-10.826 6.008-4.692-7.388a.948.948 0 0 0 .291-.474zm15.21 88.151l5.376-16.945a.932.932 0 0 0 .876-.339l9.346 5.395-15.367 12.052a.866.866 0 0 0-.231-.163zm29.732-4.048l-13.646-7.879 3.569-2.8a.93.93 0 0 0 1.132.113l8.97 10.535c-.007.013-.016.022-.025.031zm-10.272-11.761a.901.901 0 0 0-.049.121l-12.957-2.162a.925.925 0 0 0-.312-.71l3.138-4.233 10.18 6.984zm-10.243-7.358l-12.027-8.25a.91.91 0 0 0 .093-.388l19.666-2.514a.932.932 0 0 0 .236.405l-7.969 10.747zm5.507-28.262l-15.349-3.613a.93.93 0 0 0-.194-.621l5.283-6.219 14.358 11.288c-.021.037-.04.076-.057.117l-4.041-.952zm-4.02-55.223l.05-.009 7.181 20.993a.922.922 0 0 0-.311.26l-13.652-7.55 6.353-13.726a.923.923 0 0 0 .378.032zM85.68 103.39a.928.928 0 0 0 .591-.442l6.245 4.91-5.264 6.2a.937.937 0 0 0-.42-.162l-1.152-10.506zm22.078 51.577l-3.656 2.866-9.442-5.45c.007-.016.01-.032.016-.05l12.959 2.158a.859.859 0 0 0 .123.476zm-1.932-69.432l-11.181 8.963-4.972-10.444a.93.93 0 0 0 .382-.541l.353.036 15.29 1.56c.002.024.003.05.006.074a.99.99 0 0 0 .122.352zm-11.399 9.138l-8.648 6.933a.82.82 0 0 0-.135-.038l2.632-13.178.835-4.18a.898.898 0 0 0 .32-.038l4.996 10.501zm.12.255l2.862 6.012a.93.93 0 0 0-.39.654l-4.76.147-6.048.185a.87.87 0 0 0-.172-.176l8.508-6.822zm-1.852 12.721l-6.319-4.967a.905.905 0 0 0-.025-.486l5.892-.181 4.785-.147a.93.93 0 0 0 .205.435l-4.538 5.346zm-3.03-25.143l2.457-5.307 13.636 7.54c-.013.031-.021.064-.03.098L90.086 83.24c-.002-.025-.003-.05-.006-.074a.923.923 0 0 0-.413-.661zm16.418 3.31l-7.85 15.001a.925.925 0 0 0-.579 0l-2.887-6.066 11.23-9.004c.027.026.056.047.086.07zm-8.021 16.807a.99.99 0 0 0 .189-.045l9.085 16.457c-.026.021-.051.04-.075.063l-14.35-11.281 4.528-5.335a.91.91 0 0 0 .623.141zm-.737 44.339l-3.142 4.237a.928.928 0 0 0-.78 0l-8.157-12.42c.022-.02.043-.039.061-.062l12.018 8.245zM86 114.226l-11.403-6.833 10.082-4.415a.93.93 0 0 0 .729.434l1.151 10.49a.93.93 0 0 0-.56.324zm-11.69-7.006l-12.874-7.719c.014-.032.024-.065.035-.097l23.066 3.094a.733.733 0 0 0 .033.229l-10.26 4.493zm11.039-5.659a1.013 1.013 0 0 0-.26.072L77.607 89.85l10.813-6.002c.11.141.255.249.423.309l-3.477 17.4a.037.037 0 0 1-.017.004zm3.69-19.202a.94.94 0 0 0-.3.092l-7.978-11.348a1.15 1.15 0 0 0 .106-.13l11.017 6.093-2.464 5.324a.943.943 0 0 0-.381-.031zM80.98 70.156l17.084-7.336c.072.117.17.216.282.289l-6.345 13.708-11.014-6.09a.93.93 0 0 0-.007-.571zm18.483-7.12l23.555 20.276a.91.91 0 0 0-.142.427l-15.339 1.123a.929.929 0 0 0-1.076-.71l-7.18-20.993a.89.89 0 0 0 .182-.123zm23.51 21.183l-15.859 10.973-.316-9.212a.931.931 0 0 0 .762-.845l15.339-1.123a.918.918 0 0 0 .074.207zm-16.128 11.157l-8.223 5.687a.991.991 0 0 0-.143-.125l7.846-14.997a.91.91 0 0 0 .2.045l.32 9.39zm.012.326l.79 23.18a.989.989 0 0 0-.071.024l-9.082-16.454a.93.93 0 0 0 .284-1.163l8.079-5.587zm.236 24.537l-8.618 6.778-10.988-11.675a.908.908 0 0 0 .106-.204l2.914.687 16.467 3.875a.94.94 0 0 0 .119.539zm-8.835 6.948l-12.994 10.221a.93.93 0 0 0-.418-.227l2-21.441a.93.93 0 0 0 .453-.197l10.96 11.644zm.188.199l6.94 7.374a.932.932 0 0 0-.2.557l-19.665 2.515a.912.912 0 0 0-.088-.209l13.013-10.237zm7.652 8.879l2.217 17.345a.93.93 0 0 0-.43.262l-10.17-6.977 7.965-10.74a.903.903 0 0 0 .418.11zm11.696 30.158l-29.04 4.057a.862.862 0 0 0-.082-.198l15.454-12.119 13.737 7.932a.908.908 0 0 0-.069.328zm-34.236-8.961l9.48-4.876c.09.125.21.225.347.292l-5.377 16.946a.949.949 0 0 0-.266-.005l-.044.007-4.14-12.364zm-.087-.263l-2.144-6.405a.937.937 0 0 0 .477-.588l11.065 1.933c0 .006.002.013 0 .021.01.062.023.124.042.182l-9.44 4.857zm-2.247-8.108l1.063-3.304 10.637 5.925a1.248 1.248 0 0 0-.043.151l-11.046-1.93a.928.928 0 0 0-.612-.842zm1.149-3.568l2.1-6.522a.932.932 0 0 0 .54-.072l8.126 12.453a.857.857 0 0 0-.083.093l-10.683-5.952zm4.115-29.804a.833.833 0 0 0 .084.017L85.1 131.522l-.525 5.632-.067.005a.932.932 0 0 0-.809 1.011l-9.194 2.279a.914.914 0 0 0-.312-.451l12.295-24.279zm-14.815-8.169a.911.911 0 0 0-.502.23l-9.14-7.602 11.971 7.177-1.423.623a.926.926 0 0 0-.906-.428zm-10.226-8.73l15.92-8.835 7.492 11.797a.921.921 0 0 0-.285.446l-23.067-3.093a.876.876 0 0 0-.06-.314zm-.25-.366l10.571-16.083a.929.929 0 0 0 .77.008l4.682 7.374-15.905 8.828a.988.988 0 0 0-.119-.127zm11.61-17.594l6.867-9.581a.928.928 0 0 0 .87-.011l7.974 11.34a.924.924 0 0 0-.26.444L73.09 81.486c-.002-.025-.002-.051-.006-.077a.945.945 0 0 0-.277-.55zM94.19 57.888l3.917 3.892a.93.93 0 0 0-.151.789L80.854 69.91c-.003-.006-.007-.01-.012-.017L94.19 57.888zm.204-.182l8.742-7.865c.045.037.094.07.146.099l-4.234 11.482a.933.933 0 0 0-.308-.013.902.902 0 0 0-.437.177l-3.909-3.88zm-.195-.194l-9.712-9.65a.968.968 0 0 0 .164-.34l3.887.354 14.263 1.3c.002.023.002.043.006.066a.909.909 0 0 0 .149.396l-8.757 7.874zm-9.912-10.973l2.77-5.203 15.781 7.514-.015.051-14.346-1.309-3.802-.347c0-.024-.003-.046-.005-.07a.926.926 0 0 0-.383-.636zm2.898-5.443l8.255-15.508c.134.048.28.066.43.046.012-.001.024-.005.037-.006l5.041 15.425 2.366 7.24a.92.92 0 0 0-.355.312l-15.774-7.51zm-.247-.118L73.89 34.764a.902.902 0 0 0-.057-.568L94.96 25.2c.063.102.144.191.24.262l-8.261 15.517zM83.465 19.16l4.934-7.253a.914.914 0 0 0 .674.111l6.136 11.938a.946.946 0 0 0-.245.26L83.465 19.16zm18.068-3.995a.94.94 0 0 0 .274.81l-3.918 5.501-8.373-9.69a.992.992 0 0 0 .179-.232l11.838 3.61zm9.143 21.057c-.011.004-.019.013-.029.018L98.074 21.687l3.955-5.556a.931.931 0 0 0 .638.076l8.009 20.015zm-2.527 13.352a.932.932 0 0 0-.346.04l-1.846-3.864 4.822-7.868.027.011-2.657 11.681zm-.249 68.695l-.777-22.75 16.005-11.072a.896.896 0 0 0 .171.143L107.9 118.27zm-1.815 16.137a.946.946 0 0 0-.5.166l-6.922-7.357 8.599-6.764a.944.944 0 0 0 .399.223l-1.576 13.732zm-25.486 16.436a.918.918 0 0 0 .425.045l.044-.007 2.158 6.445-7.85 4.039a.925.925 0 0 0-.206-.209l5.429-10.313zm-6.33-9.446l.048-.05 7.729 4.305-1.091 3.384a.956.956 0 0 0-.168.005.955.955 0 0 0-.366.129l-6.151-7.773zm-.63-1.597l-1.662-30.416a.934.934 0 0 0 .607-.424l13.233 5.624a.929.929 0 0 0 .417 1.028L73.955 139.86a.999.999 0 0 0-.332-.062l.016.001zm10.082-91.573a.921.921 0 0 0 .572-.175l9.705 9.643L80.652 69.7a.954.954 0 0 0-.29-.143l3.359-21.33zM73.69 35.171c.037-.047.073-.096.102-.148L86.81 41.22l-2.764 5.196a.948.948 0 0 0-.414-.042.945.945 0 0 0-.385.141L73.69 35.171zm1.596-20.026l12.736-3.664c.042.094.097.18.164.253l-4.976 7.316-7.92-3.482a.916.916 0 0 0-.004-.423z" fill="#fff"/></g><defs><clipPath id="hclip0"><path transform="rotate(133.586 187.786 95.24)" fill="#fff" d="M187.786 95.239h127.242v138.14H187.786z"/></clipPath></defs></svg><svg fill="none" viewBox="0 0 452 404" id="triang4" xmlns="http://www.w3.org/2000/svg"><g clip-path="url(#iclip0)"><path d="M216.22-21.025l-30.916 8.072a2.237 2.237 0 0 0-2.176-1.122 2.235 2.235 0 0 0-.51 4.335l-4.099 41.744a2.232 2.232 0 0 0-1.898 2.44 2.234 2.234 0 0 0 3.389 1.68l22.295 27.836a2.234 2.234 0 0 0 .904 3.59l-9.352 51.102c-.084 0-.172.003-.26.007a2.236 2.236 0 0 0-1.367 3.793l-17.075 22.623a2.223 2.223 0 0 0-1.301-.26 2.234 2.234 0 0 0-1.301 3.853l-26.367 38.031a2.234 2.234 0 0 0-3.216 2.232 2.234 2.234 0 0 0 3.673 1.473l23.073 20.169a2.238 2.238 0 0 0-.345 1.435 2.237 2.237 0 0 0 1.966 1.993l2.186 73.215.334-.011h-.007a2.237 2.237 0 1 0 1.206 4.237l14.351 19.089a2.234 2.234 0 0 0-.598 1.758c.067.636.394 1.181.861 1.543l-13.647 24.483a2.235 2.235 0 0 0-3.016 2.32 2.235 2.235 0 0 0 2.453 1.997 2.272 2.272 0 0 0 1.393-.682l27.688 19.483a2.235 2.235 0 1 0 4.229 1.079l70.03-8.029a2.234 2.234 0 0 0 2.401 1.691 2.235 2.235 0 0 0 1.997-2.454 2.234 2.234 0 0 0-3.339-1.709l-20.943-25.864a2.233 2.233 0 0 0-1.543-3.744l-4.3-41.824a2.238 2.238 0 0 0 .081-4.314l4.599-32.913a2.235 2.235 0 0 0 2.204-2.464 2.242 2.242 0 0 0-2.088-2.004l39.553-81.15c.285.088.587.123.904.095a2.237 2.237 0 1 0-1.649-3.955l-55.416-50.135a2.224 2.224 0 0 0-.204-2.742l20.064-24.472c.4.239.879.358 1.378.31a2.236 2.236 0 0 0 .633-4.29l7.08-27.92c.148.014.302.014.453-.004a2.235 2.235 0 0 0 1.997-2.454 2.235 2.235 0 0 0-2.454-1.997c-.077.007-.154.021-.232.035L251.913-8.386a2.234 2.234 0 0 0 1.146-2.186 2.234 2.234 0 0 0-4.218-.78l-28.209-9.38c.053-.229.07-.471.046-.72a2.236 2.236 0 0 0-2.454-1.998 2.233 2.233 0 0 0-2.004 2.426zm-30.941 10.318l18.686 8.771L179.563 32.1a2.33 2.33 0 0 0-.383-.095l.387-3.924 3.698-37.7a2.21 2.21 0 0 0 2.014-1.086zm-11.506 221.969l3.892-1.592 25.245 15.992-29.158-13.254c.077-.267.109-.552.077-.843a2.148 2.148 0 0 0-.056-.303zm2.549 78.218l22.288-4.943a2.24 2.24 0 0 0 1.048 1.181l-5.393 15.427-18.168-10.716c.137-.292.218-.612.225-.949zm1.047 50.258l19.016-9.193 9.19 29.875a2.36 2.36 0 0 0-.658.475l-27.688-19.483a2.253 2.253 0 0 0 .14-1.674zM257.13 62.332l-21.761-48.57c.099-.064.19-.134.278-.208l32.888 27.664a2.225 2.225 0 0 0 .422 2.848L257.13 62.333zm-76.973-29.928L204.573-1.65l27.449 12.888c-.084.274-.112.57-.084.872.01.095.028.19.049.281l-51.408 20.415a2.066 2.066 0 0 0-.422-.4zm53.781-22.752a2.545 2.545 0 0 0-.439.088l-13.82-28.6 19.413 23.625-3.86 5.147a2.22 2.22 0 0 0-1.294-.26zm5.583-4.367l28.392 34.551-31.844-26.788a2.22 2.22 0 0 0 .323-1.4 2.252 2.252 0 0 0-.636-1.346l3.765-5.017zm17.181 57.708l-3.889 6.005a2.232 2.232 0 0 0-1.153-.19l-.091.014-6.926-23.111-8.715-29.084 20.774 46.366zm.323.718l4.036 9.006a2.268 2.268 0 0 0-.781.851l-6.191-2.127a2.256 2.256 0 0 0-.72-2.085l3.656-5.645zm3.582 12.392l-20.063 24.472c-.011-.004-.018-.011-.025-.018l10.864-27.344c.235.053.485.078.738.05a2.24 2.24 0 0 0 1.758-1.196l6.19 2.127a2.15 2.15 0 0 0-.024.636c.046.496.256.932.562 1.273zm-84.37 71.552l36.369 4.665c.003.06.003.123.01.187.021.175.057.344.113.506l-26.381 13.802-10.838-18.038c.344-.289.601-.679.727-1.122zm31.331 212.797l13.929-40.415a2.23 2.23 0 0 0 2.127-.763l22.144 13.525-37.655 28.057a2.043 2.043 0 0 0-.545-.404zm71.71-7.966l-32.336-19.751 8.747-6.517a2.228 2.228 0 0 0 2.714.337l20.935 25.857a.281.281 0 0 1-.06.074zm-23.993-28.88a2.062 2.062 0 0 0-.127.288l-31.018-5.966a2.218 2.218 0 0 0-.706-1.726l7.794-9.988 24.057 17.392zm-24.187-18.295l-28.42-20.545c.148-.282.232-.598.246-.929l47.421-4.876c.099.38.289.718.545.988l-19.792 25.362zm14.916-67.608l-36.681-9.598a2.243 2.243 0 0 0-.429-1.504l13.067-14.636 33.845 27.988a2.416 2.416 0 0 0-.145.277l-9.657-2.527zm-6.388-132.983c.039-.004.081-.011.124-.018l16.013 50.888a2.224 2.224 0 0 0-.763.608l-32.368-18.959 16.087-32.618c.282.092.588.13.907.099zm-34.336 95.683a2.22 2.22 0 0 0 1.448-1.027l14.72 12.174-13.022 14.59a2.262 2.262 0 0 0-.998-.415l-2.148-25.322zm50.009 125.291l-8.958 6.672-22.373-13.661c.018-.039.028-.078.042-.12l31.022 5.956c-.004.109-.004.214.007.323.035.302.123.58.26.83zm-.524-167.014l-27.407 20.882-11.331-25.4c.461-.291.802-.752.949-1.279l.848.109 36.66 4.654c.003.06.003.123.01.18.035.309.134.597.271.854zm-27.942 21.29l-21.198 16.151a2.118 2.118 0 0 0-.324-.099l7.109-31.52 2.257-9.999a2.109 2.109 0 0 0 .769-.073l11.387 25.54zm.275.619l6.521 14.621a2.236 2.236 0 0 0-.974 1.551l-11.454.07-14.547.084a2.12 2.12 0 0 0-.404-.432l20.858-15.894zm-5.207 30.469l-14.895-12.315a2.189 2.189 0 0 0-.032-1.17l14.175-.085 11.51-.07c.063.401.228.763.467 1.058l-11.225 12.582zm-5.79-60.619l6.219-12.61 32.329 18.935c-.032.074-.053.151-.077.232l-37.508-4.764c-.003-.059-.003-.123-.01-.179a2.223 2.223 0 0 0-.953-1.614zm39.265 8.934l-19.757 35.591a2.204 2.204 0 0 0-1.392-.035l-6.582-14.751 27.531-20.978c.063.064.13.116.2.173zm-20.278 39.922a2.16 2.16 0 0 0 .457-.098l20.862 40.098c-.064.05-.123.095-.183.148l-33.827-27.97 11.204-12.554c.422.288.942.436 1.487.376zm-4.401 106.536l-7.805 9.998a2.228 2.228 0 0 0-1.212-.221 2.142 2.142 0 0 0-.661.175l-18.872-30.339c.053-.046.106-.091.151-.144l28.399 20.531zm-25.284-79.36l-27.003-17.104 24.496-10.012a2.244 2.244 0 0 0 1.727 1.086l2.144 25.284a2.224 2.224 0 0 0-1.364.746zm-27.682-17.536l-30.49-19.318c.035-.077.063-.155.091-.232l55.262 8.806c0 .085.003.166.01.25.011.102.028.204.056.302l-24.929 10.192zm26.87-12.948a2.48 2.48 0 0 0-.629.158l-17.286-28.768 26.349-13.784c.253.344.597.612.998.766l-9.39 41.621c-.014.007-.028.007-.042.007zm10.009-45.938c-.26.028-.499.099-.724.204l-18.506-27.752c.095-.095.182-.197.263-.306l26.121 15.3-6.24 12.653a2.266 2.266 0 0 0-.914-.099zm-18.647-29.812l41.501-16.618c.166.285.394.528.661.71l-16.066 32.576-26.113-15.293c.098-.295.144-.615.109-.946a2.122 2.122 0 0 0-.092-.429zm44.852-16.017l55.416 50.136a2.194 2.194 0 0 0-.366 1.019l-36.938 1.79a2.235 2.235 0 0 0-2.545-1.772l-16.014-50.888c.165-.081.313-.172.447-.285zm55.254 52.315l-38.773 25.436-.211-22.163a2.238 2.238 0 0 0 1.881-1.986l36.938-1.789c.035.176.091.344.165.502zm-39.431 25.861l-20.102 13.183a2.335 2.335 0 0 0-.337-.309l19.75-35.585c.155.057.31.099.478.12l.211 22.591zm.011.784l.524 55.767A1.632 1.632 0 0 0 257 239l-20.854-40.091a2.232 2.232 0 0 0 .752-2.778l19.751-12.951zm-.89 58.995l-21.118 15.781-25.719-28.715c.109-.151.2-.313.267-.485l6.964 1.824 39.353 10.294a2.254 2.254 0 0 0 .253 1.301zm-21.648 16.178L202.27 282.15a2.228 2.228 0 0 0-.991-.57l6.078-51.422a2.215 2.215 0 0 0 1.1-.446l25.654 28.641zm.439.489l16.245 18.137a2.234 2.234 0 0 0-.513 1.328l-47.421 4.877a2.225 2.225 0 0 0-.197-.507l31.886-23.835zm17.866 21.796l4.3 41.825a2.232 2.232 0 0 0-1.048.605l-24.032-17.374 19.782-25.344c.298.172.639.274.998.288zm26.325 73.187l-70.044 8.03a2.132 2.132 0 0 0-.187-.482l37.866-28.212 32.551 19.88c-.109.243-.172.51-.186.784zm-81.762-23.572l23.076-11.158c.208.306.492.556.816.724l-13.929 40.415a2.275 2.275 0 0 0-.64-.028c-.038.004-.073.011-.105.014l-9.218-29.967zm-.193-.636l-4.774-15.525a2.247 2.247 0 0 0 1.181-1.385l26.483 5.305c0 .014.003.032 0 .049.017.152.045.299.088.44l-22.978 11.116zm-4.922-19.624l2.753-7.878 25.217 14.874a3.058 3.058 0 0 0-.113.359l-26.437-5.295a2.236 2.236 0 0 0-1.42-2.06zm2.974-8.507l5.435-15.553a2.248 2.248 0 0 0 1.301-.141l18.794 30.417c-.074.067-.14.14-.204.218l-25.326-14.941zm11.661-71.398c.067.018.134.035.201.046l-4.476 37.859-1.596 13.507c-.052.003-.109.003-.161.007a2.24 2.24 0 0 0-2.004 2.383l-22.236 4.933a2.202 2.202 0 0 0-.724-1.104l30.996-57.631zm-35.127-20.517a2.207 2.207 0 0 0-1.22.524L148.63 191.28l28.353 17.961-3.46 1.413a2.23 2.23 0 0 0-2.151-1.083zm-24.064-21.589l38.794-20.295 17.307 28.803c-.33.274-.583.64-.71 1.055l-55.265-8.803a2.1 2.1 0 0 0-.126-.76zm-.58-.896l26.366-38.032a2.235 2.235 0 0 0 1.85.064l10.817 18.003-38.756 20.278a2.297 2.297 0 0 0-.277-.313zm28.954-41.603l17.075-22.623a2.236 2.236 0 0 0 2.092.024l18.495 27.735a2.216 2.216 0 0 0-.65 1.051l-36.369-4.665c-.003-.06-.003-.123-.01-.187a2.273 2.273 0 0 0-.633-1.335zm52.761-53.95l9.187 9.587a2.235 2.235 0 0 0-.412 1.888l-41.543 16.632c-.007-.014-.018-.025-.028-.043l32.796-28.064zm.503-.426l21.48-18.386c.106.091.222.172.345.246l-10.86 27.348a2.238 2.238 0 0 0-.738-.05 2.178 2.178 0 0 0-1.062.401l-9.165-9.559zm-.457-.478l-22.774-23.772c.19-.24.331-.513.415-.809l9.323 1.083 34.207 3.973c.003.052.003.102.01.158.036.352.155.675.334.96l-21.515 18.407zm-23.174-26.964l6.964-12.343 37.49 18.998-.039.123-34.407-3.997-9.119-1.062a2.47 2.47 0 0 0-.007-.169 2.226 2.226 0 0 0-.882-1.55zm7.287-12.913l20.763-36.787c.32.123.668.176 1.03.137.032-.003.06-.01.092-.014l11.2 37.378 5.26 17.542a2.205 2.205 0 0 0-.872.732l-37.473-18.988zm-.587-.299l-30.993-15.707a2.166 2.166 0 0 0-.102-1.368l51.313-20.376c.144.25.334.468.559.643l-20.777 36.808zm-7.052-52.649l12.29-17.142a2.199 2.199 0 0 0 1.614.306l14.041 29.06a2.265 2.265 0 0 0-.604.612L204.963-2.196zm43.667-8.532a2.245 2.245 0 0 0-.025.615c.056.528.288.992.637 1.347l-9.746 12.993-19.55-23.79c.173-.158.324-.344.443-.548l28.241 9.383zm20.728 51.159c-.025.01-.046.031-.071.042L239.929 4.744l9.836-13.12a2.244 2.244 0 0 0 1.53.221l18.063 48.585zm-6.866 31.945a2.491 2.491 0 0 0-.457 0c-.13.011-.253.043-.376.074l-4.209-9.397 12.059-18.625c.021.007.042.02.063.028l-7.08 27.92zm-4.676 165.112l-.517-54.733 39.128-25.664c.12.133.254.253.405.355l-39.016 80.042zm-5.319 38.682a2.289 2.289 0 0 0-1.213.369l-16.203-18.094 21.072-15.75c.26.26.587.453.946.559l-4.602 32.916zm-62.24 37.996c.317.12.661.169 1.02.134.039-.004.074-.011.105-.014l4.806 15.619-19.107 9.243a2.253 2.253 0 0 0-.485-.513l13.661-24.469zm-14.652-23.083l.116-.116 18.323 10.807-2.823 8.068c-.13-.01-.264-.01-.405.004a2.274 2.274 0 0 0-.886.288l-14.325-19.051zm-1.421-3.874l-2.19-73.212a2.244 2.244 0 0 0 1.484-.984l31.474 14.305a2.18 2.18 0 0 0-.077.844 2.236 2.236 0 0 0 1.02 1.652l-30.955 57.56a2.334 2.334 0 0 0-.794-.169l.038.004zm29.668-219.522a2.21 2.21 0 0 0 1.385-.387l22.756 23.755-32.793 28.068a2.298 2.298 0 0 0-.685-.362l9.337-51.074zm-23.336-31.978c.095-.109.183-.225.256-.348l30.92 15.669-6.954 12.325a2.277 2.277 0 0 0-.991-.126 2.267 2.267 0 0 0-.935.316L180.516 35.71zm5.027-48.044l30.832-8.05c.094.228.221.44.379.619l-12.396 17.29-18.829-8.839c.06-.243.081-.496.053-.763a1.3 1.3 0 0 0-.039-.257z" fill="#D5A744"/></g><defs><clipPath id="iclip0"><path transform="rotate(135 451.212 186.871)" fill="#fff" d="M451.212 186.871h305.952v332.158H451.212z"/></clipPath></defs></svg><svg fill="none" viewBox="0 0 376 326" id="triang5" xmlns="http://www.w3.org/2000/svg"><g clip-path="url(#jclip0)"><path d="M213.04 350.033l24.919-9.404a1.866 1.866 0 0 0 3.342-1.471 1.86 1.86 0 0 0-1.398-1.428l-.265-34.963a1.863 1.863 0 1 0-1.597-3.285l-20.925-21.118a1.86 1.86 0 0 0-1.064-2.896l3.267-43.182c.07-.007.143-.018.215-.029a1.863 1.863 0 0 0 .801-3.264l12.169-20.252a1.863 1.863 0 0 0 1.841-3.206l18.52-33.84a1.864 1.864 0 0 0 2.47-2.133 1.863 1.863 0 0 0-3.174-.899l-20.896-14.694a1.862 1.862 0 0 0-1.645-2.699l-8.237-60.5-.276.039h.005a1.863 1.863 0 0 0 1.44-2.21 1.862 1.862 0 0 0-2.811-1.197L206.17 72.838a1.858 1.858 0 0 0-.508-2.714l9.164-21.492a1.863 1.863 0 0 0 2.297-2.188 1.863 1.863 0 0 0-3.303-.752L189.157 31.97a1.864 1.864 0 1 0-3.6-.524L128.21 44.25a1.86 1.86 0 0 0-2.138-1.191 1.863 1.863 0 0 0-1.44 2.21 1.863 1.863 0 0 0 2.918 1.123l19.63 19.602a1.861 1.861 0 0 0 1.608 2.968l7.234 34.293a1.866 1.866 0 0 0 .312 3.583l-.924 27.686a1.863 1.863 0 0 0 .296 3.714l-25.666 70.74a1.863 1.863 0 0 0-2.197 2.21 1.863 1.863 0 0 0 3.153.925l50.337 36.696a1.856 1.856 0 0 0 .41 2.255l-14.484 22.047a1.864 1.864 0 0 0-1.318 3.475l-3.419 23.766a1.785 1.785 0 0 0-.376.043 1.864 1.864 0 1 0 .77 3.649c.063-.012.126-.031.189-.049l19.238 38.695a1.863 1.863 0 1 0 2.807 2.19l24.207 5.299a1.863 1.863 0 0 0 2.234 2.042 1.862 1.862 0 0 0 1.449-2.187zm24.742-11.268l-16.259-5.632 17.241-30.354c.109.024.214.04.326.046l.024 3.286.243 31.576a1.841 1.841 0 0 0-1.575 1.078zm-9.941-185.011l-3.086 1.662-22.331-11.041 25.334 8.427a1.812 1.812 0 0 0 .083.952zm-8.977-64.614l-18.042 6.053a1.87 1.87 0 0 0-.972-.887l3.116-13.261 16.001 7.288a1.947 1.947 0 0 0-.103.807zm-5.279-41.57l-14.956 9.29L188.39 32.9c.193-.12.365-.274.503-.45l24.662 13.72a1.873 1.873 0 0 0 .03 1.4zm-41.773 236.954l22.301 38.353a2.331 2.331 0 0 0-.212.197l-29.69-20.046a1.857 1.857 0 0 0-.6-2.324l8.201-16.18zm66.433 18.054l-17.251 30.373-23.885-8.275a1.89 1.89 0 0 0-.006-.73 2.154 2.154 0 0 0-.066-.229l40.823-21.434c.113.118.244.213.385.295zm-42.585 23.581c.124-.028.244-.065.357-.112l13.965 22.494-18.165-17.879 2.748-4.606c.336.139.715.184 1.095.103zm-4.245 4.109l-26.567-26.149 28.748 19.411a1.85 1.85 0 0 0-.145 1.189c.093.432.326.796.645 1.06l-2.681 4.489zm-19.306-46.329l2.697-5.319c.302.101.638.127.972.056.026-.005.049-.014.075-.019l7.769 18.55 9.776 23.344-21.289-36.612zm-.331-.566l-4.136-7.112c.256-.204.451-.472.573-.774l5.318 1.22a1.878 1.878 0 0 0 .781 1.665l-2.536 5.001zm-4.057-9.959l14.484-22.046a.052.052 0 0 1 .022.012L175.622 275a1.891 1.891 0 0 0-.617.024 1.87 1.87 0 0 0-1.352 1.145l-5.318-1.219a1.823 1.823 0 0 0-.036-.53 1.832 1.832 0 0 0-.578-1.006zm63.659-66.717l-30.557-.675c-.008-.049-.013-.102-.025-.154a2.048 2.048 0 0 0-.137-.409l20.657-13.757 10.567 14.002c-.26.269-.439.615-.505.993zM186.734 33.049l-7.999 34.725a1.859 1.859 0 0 0-1.696.819l-19.544-9.268 28.752-26.563a1.7 1.7 0 0 0 .487.288zm-58.745 12.897l28.539 13.535-6.679 6.17a1.86 1.86 0 0 0-2.279-.041l-19.624-19.597c.012-.028.028-.047.043-.067zm22.424 21.835c.033-.08.059-.166.08-.25l26.236 2.223a1.85 1.85 0 0 0 .737 1.369l-5.585 8.963-21.468-12.305zm21.656 13.043L197.43 95.36c-.098.246-.14.515-.122.79l-38.882 8.204a1.878 1.878 0 0 0-.539-.771l14.182-22.76zm-6.432 57.352l31.249 4.737a1.878 1.878 0 0 0 .487 1.21l-9.547 13.278-30.512-20.23c.036-.077.069-.157.095-.243l8.228 1.248zm16.965 109.676a1.141 1.141 0 0 0-.101.025l-17.74-40.778c.236-.146.433-.343.579-.571l28.495 12.876-10.473 28.45a1.818 1.818 0 0 0-.76-.002zm20.066-82.33a1.854 1.854 0 0 0-1.11.978l-13.271-8.8 9.514-13.237c.261.152.556.242.864.257l4.003 20.802zm-52.45-99.47l6.84-6.318 19.745 9.361c-.011.034-.016.067-.024.103l-26.238-2.214a2.193 2.193 0 0 0-.034-.268 1.874 1.874 0 0 0-.289-.665zm15.091 138.399l20.887-19.716 11.621 20.061a1.861 1.861 0 0 0-.674 1.144l-.712-.016-30.798-.641c-.008-.049-.014-.102-.024-.148a2.003 2.003 0 0 0-.3-.684zm21.294-20.101l16.155-15.248c.092.026.185.042.277.053l-3.126 26.753-.994 8.486a1.686 1.686 0 0 0-.329.038 2.194 2.194 0 0 0-.303.091l-11.68-20.173zm-.282-.489l-6.689-11.548c.404-.334.655-.835.672-1.37l9.488-1.064 12.052-1.346c.107.124.233.231.373.323l-15.896 15.005zm1.642-25.714l13.429 8.901a1.792 1.792 0 0 0 .129.968l-11.743 1.314-9.535 1.068a1.862 1.862 0 0 0-.48-.836l8.2-11.415zm10.12 49.742l-4.049 10.999-28.461-12.859c.02-.064.031-.13.044-.199l31.51.657c.008.049.014.102.025.148.114.556.468 1.002.931 1.254zm-33.333-3.96l13.255-31.237a1.841 1.841 0 0 0 1.157-.093l6.75 11.65-20.981 19.806c-.058-.047-.118-.085-.181-.126zm13.306-34.873c-.13.028-.252.068-.37.122l-20.812-31.409c.048-.046.093-.09.138-.139l30.495 20.217-8.185 11.39a1.84 1.84 0 0 0-1.266-.181zm-5.701-88.699l5.592-8.972c.316.116.667.15 1.025.077a1.8 1.8 0 0 0 .533-.204l18.306 23.493c-.04.043-.08.085-.113.133l-25.343-14.527zm27.924 63.567l23.885 11.808-19.428 10.449a1.87 1.87 0 0 0-1.526-.749l-3.997-20.77a1.862 1.862 0 0 0 1.066-.738zm24.485 12.107l26.97 13.338a2.48 2.48 0 0 0-.055.2l-46.582-2.45a2.376 2.376 0 0 0-.03-.206 1.481 1.481 0 0 0-.073-.246l19.77-10.636zm-21.137 13.091c.181-.04.351-.105.508-.186l16.853 22.33-20.632 13.739a1.862 1.862 0 0 0-.895-.548l4.132-35.326a.07.07 0 0 1 .034-.009zm-4.266 38.958c.214-.046.406-.125.583-.232l17.776 21.38c-.071.087-.135.18-.192.277l-22.995-10.39 4.062-11.036c.247.05.504.056.766.001zm18.074 23.076l-32.944 17.418a1.837 1.837 0 0 0-.61-.531l10.459-28.413 22.989 10.385a1.862 1.862 0 0 0-.008.794c.028.124.064.238.114.347zm-35.774 17.214l-50.337-36.697c.14-.265.217-.565.214-.877L162 206.071a1.863 1.863 0 0 0 2.266 1.245l17.74 40.778a1.81 1.81 0 0 0-.345.276zm-50.394-38.518l29.909-24.487 2.12 18.353a1.865 1.865 0 0 0-1.385 1.811l-30.463 4.725a1.845 1.845 0 0 0-.181-.402zm30.416-24.897l15.507-12.692c.095.087.2.161.307.226l-13.249 31.231a1.832 1.832 0 0 0-.407-.057l-2.158-18.708zm-.077-.649l-5.328-46.182c.045-.017.093-.037.138-.059l20.805 31.404a1.86 1.86 0 0 0-.38 2.368l-15.235 12.469zm-4.44-48.982l16.121-14.935 23.84 21.547a1.783 1.783 0 0 0-.179.425l-5.933-.901-33.525-5.079a1.89 1.89 0 0 0-.324-1.057zm16.526-15.311l24.306-22.52c.248.2.551.334.871.385l-.526 43.16a1.856 1.856 0 0 0-.873.466l-23.778-21.491zm-.407-.366l-15.058-13.609c.218-.329.335-.731.308-1.146l38.882-8.204c.054.145.124.281.208.402l-24.34 22.557zm-16.723-16.5l-7.235-34.293a1.87 1.87 0 0 0 .816-.594l21.446 12.293-14.174 22.745a1.8 1.8 0 0 0-.853-.151zm-28.244-58.358l57.358-12.803c.05.136.116.265.197.383l-28.914 26.71-28.727-13.624c.069-.21.098-.438.086-.666zm69.844 12.364l-18.15 11.275a1.86 1.86 0 0 0-.739-.528l7.999-34.725c.176.014.354.004.533-.032.032-.007.06-.016.086-.021l10.271 24.031zm.216.51l5.32 12.451a1.872 1.872 0 0 0-.857 1.252l-22.419-2.073c-.001-.012-.005-.027-.004-.041a2.088 2.088 0 0 0-.112-.357l18.072-11.231zM204.18 73.5l-1.59 6.773-22.209-10.118c.028-.1.046-.202.062-.307l22.379 2.069a1.863 1.863 0 0 0 1.358 1.583zm-1.719 7.314l-3.14 13.369a1.877 1.877 0 0 0-1.066.23l-18.249-23.564c.056-.062.105-.129.15-.198l22.305 10.162zm-3.4 60.208c-.057-.009-.114-.018-.17-.021l.387-31.776.138-11.336c.043-.008.09-.013.133-.02a1.869 1.869 0 0 0 1.452-2.152l18-6.04c.143.356.39.651.697.852l-20.637 50.493zm30.919 13.924a1.84 1.84 0 0 0 .965-.541l19.492 13.708-25.079-12.4 2.743-1.475a1.86 1.86 0 0 0 1.879.708zm21.842 15.785l-30.377 20.228-16.874-22.357c.25-.257.427-.582.496-.937l46.584 2.447a1.81 1.81 0 0 0 .171.619zm.56.692l-18.519 33.84a1.86 1.86 0 0 0-1.539.11l-10.547-13.975 30.347-20.21c.08.086.165.165.258.235zm-20.351 37.028l-12.169 20.251a1.855 1.855 0 0 0-1.736.163l-17.765-21.367c.231-.26.389-.58.447-.928l30.556.675c.009.049.014.102.026.154.095.429.328.793.641 1.052zm-39.002 49.351l-8.456-7.141a1.869 1.869 0 0 0 .175-1.601l32.978-17.432c.007.011.017.018.027.032l-24.724 26.142zm-.379.397l-16.192 17.126a2.051 2.051 0 0 0-.308-.173l6.602-23.623c.2.023.409.022.617-.024.326-.067.613-.218.845-.425l8.436 7.119zm.421.356l20.964 17.708a1.945 1.945 0 0 0-.273.706l-7.823-.079-28.704-.291c-.008-.044-.012-.084-.023-.13a1.838 1.838 0 0 0-.361-.767l16.22-17.147zm21.576 20.319l-4.689 10.843-32.745-12.459.021-.105 28.873.294 7.652.08c.005.046.013.09.021.139.108.519.436.95.867 1.208zm-4.908 11.343l-13.983 32.316a1.84 1.84 0 0 0-.865-.023l-.075.02-12.565-30.001-5.899-14.08c.28-.169.502-.404.659-.683l32.728 12.451zm.513.196l27.071 10.301a1.85 1.85 0 0 0 .204 1.125l-40.748 21.394a1.858 1.858 0 0 0-.519-.485l13.992-32.335zm10.467 43.025l-8.684 15.288a1.834 1.834 0 0 0-1.365-.112l-14.189-22.857c.184-.155.334-.347.447-.56l23.791 8.241zm-35.449 10.904a1.859 1.859 0 0 0-.034-.512 1.882 1.882 0 0 0-.645-1.06l6.938-11.626 18.293 18.005a1.985 1.985 0 0 0-.319.493l-24.233-5.3zm-21.672-40.588c.02-.011.035-.03.055-.041l27.472 27.04-7.003 11.74a1.869 1.869 0 0 0-1.287-.05l-19.237-38.689zm2.888-27.084a2.06 2.06 0 0 0 .379-.04c.107-.02.206-.057.305-.094l4.313 7.42-8.361 16.498c-.018-.004-.037-.014-.055-.018l3.419-23.766zM155.872 139.39l5.232 45.326-30.183 24.707a1.86 1.86 0 0 0-.366-.259l25.317-69.774zm1.015-32.532a1.915 1.915 0 0 0 .973-.413l15.02 13.578-16.086 14.905a1.863 1.863 0 0 0-.833-.381l.926-27.689zm48.259-36.959a1.873 1.873 0 0 0-.857-.021c-.032.006-.06.015-.086.02l-5.355-12.525 15.028-9.339c.128.152.28.28.447.383L205.146 69.9zm14.172 17.849l-.086.106-16.137-7.35 1.632-6.936c.109-.003.219-.014.335-.038.265-.058.503-.169.709-.317l13.547 14.535zm1.517 3.087l8.241 60.496a1.874 1.874 0 0 0-1.144.946l-27.346-9.096a1.807 1.807 0 0 0-.01-.706 1.862 1.862 0 0 0-.99-1.28l20.608-50.431c.216.063.443.086.674.07h-.033zm-5.328 184.575a1.844 1.844 0 0 0-1.114.443l-20.949-17.695 24.721-26.145c.186.113.386.195.6.24l-3.258 43.157zm22.151 24.46a2.166 2.166 0 0 0-.183.311l-27.005-10.275 4.683-10.828c.266.067.547.075.832.018.283-.059.532-.183.748-.344l20.925 21.118zm.048 40.267l-24.851 9.379a1.818 1.818 0 0 0-.369-.479l8.759-15.42 16.384 5.674c-.029.206-.024.418.023.637.011.072.03.141.054.209z" fill="#D5A744"/></g><defs><clipPath id="jclip0"><path transform="rotate(-51.043 0 198.32)" fill="#fff" d="M0 198.32h255.035V475.2H0z"/></clipPath></defs></svg><svg fill="none" viewBox="0 0 477 480" id="triang6" xmlns="http://www.w3.org/2000/svg"><g clip-path="url(#kclip0)" opacity=".2"><path d="M253.909 451.198l32.758-9.155a2.38 2.38 0 0 0 2.337 1.154 2.38 2.38 0 0 0 .463-4.623l3.602-44.505a2.377 2.377 0 0 0 1.976-2.631 2.38 2.38 0 0 0-3.638-1.727l-24.238-29.221a2.376 2.376 0 0 0-1.028-3.804l9.021-54.561a6.65 6.65 0 0 0 .277-.013 2.379 2.379 0 0 0 2.081-2.648 2.385 2.385 0 0 0-.694-1.414l17.761-24.39c.412.214.889.314 1.389.253a2.38 2.38 0 0 0 2.081-2.648 2.36 2.36 0 0 0-.767-1.476l27.37-40.96a2.38 2.38 0 0 0 3.383-2.435 2.38 2.38 0 0 0-3.937-1.501l-24.925-21.046a2.376 2.376 0 0 0-1.788-3.618l-3.663-77.887-.355.017h.007a2.38 2.38 0 0 0 2.081-2.648 2.38 2.38 0 0 0-3.441-1.839L276.4 97.816a2.38 2.38 0 0 0 .604-1.882 2.39 2.39 0 0 0-.945-1.627L290.138 68a2.38 2.38 0 0 0 3.168-2.525 2.38 2.38 0 0 0-2.648-2.08 2.414 2.414 0 0 0-1.47.751l-29.825-20.232a2.38 2.38 0 1 0-4.522-1.072l-74.39 9.825a2.375 2.375 0 0 0-2.586-1.757 2.38 2.38 0 0 0-2.081 2.649 2.38 2.38 0 0 0 3.586 1.757l22.762 27.147a2.378 2.378 0 0 0 1.711 3.957l5.339 44.437a2.383 2.383 0 0 0-.008 4.593l-4.293 35.115a2.38 2.38 0 0 0-.042 4.758l-40.619 87.093a2.494 2.494 0 0 0-.964-.084 2.38 2.38 0 0 0-2.08 2.648 2.378 2.378 0 0 0 2.648 2.08 2.38 2.38 0 0 0 1.259-.549l59.897 52.351a2.376 2.376 0 0 0 .267 2.915l-20.908 26.413a2.379 2.379 0 0 0-3.553 2.344 2.37 2.37 0 0 0 1.485 1.928l-7.026 29.847a2.235 2.235 0 0 0-.483.012 2.38 2.38 0 0 0-2.081 2.648 2.38 2.38 0 0 0 2.649 2.08c.082-.008.164-.025.246-.041l20.112 51.389a2.379 2.379 0 0 0-1.18 2.349 2.378 2.378 0 0 0 4.504.754l30.195 9.468a2.38 2.38 0 0 0 2.613 2.849 2.378 2.378 0 0 0 2.089-2.619zm32.743-11.546l-20.048-8.995 25.351-36.67c.136.043.268.074.41.094l-.34 4.183-3.249 40.195a2.351 2.351 0 0 0-2.124 1.193zm8.198-236.464l-4.113 1.766-27.162-16.561 31.277 13.575a2.309 2.309 0 0 0-.002 1.22zm-4.139-83.205l-23.633 5.668a2.388 2.388 0 0 0-1.137-1.239l5.459-16.517 19.533 11.074a2.477 2.477 0 0 0-.222 1.014zm-2.032-53.474l-20.072 10.132-10.326-31.63c.26-.132.496-.308.691-.517l29.826 20.232a2.39 2.39 0 0 0-.119 1.783zm-79.834 296.714l24.048 51.299c-.104.069-.2.146-.292.226l-35.509-28.844a2.372 2.372 0 0 0-.501-3.023l12.254-19.658zm82.473 30.449l-25.366 36.693-29.451-13.217c.085-.293.109-.608.074-.93a2.704 2.704 0 0 0-.058-.298l54.344-22.666c.13.162.286.298.457.418zM234.49 418.87c.161-.021.318-.054.467-.101l15.23 30.187-21.093-24.79 4.015-5.549c.411.214.888.314 1.381.253zm-5.862 4.75l-30.849-36.257 34.382 27.932a2.366 2.366 0 0 0 .383 2.916l-3.916 5.409zm-19.339-61.109l4.029-6.462c.374.162.798.234 1.231.181.034-.004.063-.012.097-.016l7.793 24.472 9.806 30.797-22.956-48.972zm-.357-.757l-4.46-9.513c.348-.231.627-.55.815-.92l6.628 2.151a2.402 2.402 0 0 0 .805 2.206l-3.788 6.076zm-4.039-13.125l20.908-26.412c.011.003.019.011.027.018l-11.064 29.302a2.37 2.37 0 0 0-.786-.039c-.826.1-1.502.61-1.85 1.304l-6.628-2.151c.038-.221.045-.45.015-.677a2.35 2.35 0 0 0-.622-1.345zm88.494-77.696l-38.794-4.302c-.005-.063-.006-.13-.014-.198a2.573 2.573 0 0 0-.129-.536l27.826-15.172 11.865 19.001a2.441 2.441 0 0 0-.754 1.207zm-37.228-225.92l-14.088 43.27a2.378 2.378 0 0 0-2.25.85l-23.816-13.99 39.566-30.55c.172.173.373.316.588.42zm-76.18 9.788l34.777 20.431-9.191 7.097a2.374 2.374 0 0 0-2.894-.31L179.916 54.88c.019-.034.041-.057.063-.08zm26.064 30.3a2.26 2.26 0 0 0 .13-.308l33.123 5.784c-.002.116 0 .228.013.344.074.594.356 1.11.77 1.48l-8.113 10.773-25.923-18.072zm26.078 19.032l30.623 21.349c-.152.302-.236.64-.245.992l-50.384 6.055a2.411 2.411 0 0 0-.598-1.042l20.604-27.354zm-14.644 72.231l39.218 9.546a2.388 2.388 0 0 0 .483 1.593l-13.641 15.816-36.533-29.171a2.38 2.38 0 0 0 .149-.299l10.324 2.515zm9.225 141.424a2.518 2.518 0 0 0-.131.021l-17.972-53.87c.316-.159.589-.388.801-.661l34.797 19.589-16.528 35.01a2.352 2.352 0 0 0-.967-.089zm34.801-102.467c-.66.15-1.203.567-1.523 1.119l-15.889-12.689 13.594-15.766c.314.223.68.37 1.07.423l2.748 26.913zM205.99 82.879l9.413-7.265 24.062 14.133c-.018.041-.029.082-.043.128l-33.126-5.773a2.64 2.64 0 0 0-.014-.344 2.387 2.387 0 0 0-.292-.879zm3.604 177.753l28.791-22.727 12.523 26.828c-.485.319-.84.816-.987 1.38l-.904-.101-39.104-4.285c-.005-.064-.006-.131-.015-.191a2.524 2.524 0 0 0-.304-.904zm29.352-23.17l22.268-17.577c.113.043.23.075.346.099l-6.991 33.679-2.219 10.683a2.223 2.223 0 0 0-.423.011 2.808 2.808 0 0 0-.396.081l-12.585-26.976zm-.303-.654l-7.208-15.443c.551-.38.926-.989 1.008-1.668l12.19-.284 15.482-.355c.122.17.271.321.438.453l-21.91 17.297zm4.986-32.525l16.078 12.836a2.303 2.303 0 0 0 .055 1.245l-15.085.349-12.25.284a2.366 2.366 0 0 0-.517-1.117l11.719-13.597zm7.268 64.414l-6.389 13.536-34.755-19.564c.032-.079.053-.162.078-.248l40.008 4.385c.005.064.006.131.015.191a2.36 2.36 0 0 0 1.043 1.7zm-41.955-8.791l20.38-38.243a2.356 2.356 0 0 0 1.482.012l7.274 15.581-28.92 22.829a2.33 2.33 0 0 0-.216-.179zm20.854-42.862a2.304 2.304 0 0 0-.484.113l-22.936-42.299a3.32 3.32 0 0 0 .192-.16l36.514 29.153-11.696 13.566a2.343 2.343 0 0 0-1.59-.373zm2.742-113.472l8.124-10.784a2.38 2.38 0 0 0 1.295.213c.25-.03.485-.098.7-.199l20.64 31.948a1.455 1.455 0 0 0-.158.156l-30.601-21.334zm28.358 84.006l29.053 17.711-25.89 11.104a2.387 2.387 0 0 0-1.857-1.125l-2.744-26.872a2.358 2.358 0 0 0 1.438-.818zm29.783 18.159l32.805 20.005c-.036.083-.064.166-.093.249l-58.978-8.365a2.966 2.966 0 0 0-.016-.266 1.864 1.864 0 0 0-.065-.321l26.347-11.302zm-28.362 14.271c.235-.03.459-.093.667-.179l18.923 30.303-27.793 15.153a2.397 2.397 0 0 0-1.077-.798l9.235-44.47c.015-.008.03-.008.045-.009zm-9.815 49.077c.276-.035.529-.114.767-.23l20.203 29.2a2.926 2.926 0 0 0-.275.331l-28.081-15.808 6.411-13.581c.309.092.635.128.975.088zm20.39 31.391l-43.869 18.444a2.346 2.346 0 0 0-.716-.744l16.506-34.964 28.073 15.8c-.1.316-.142.658-.099 1.009.022.16.054.309.105.455zm-47.446 17.865L165.55 265.99c.208-.321.34-.694.37-1.091l39.283-2.579a2.38 2.38 0 0 0 2.741 1.84l17.972 53.87a2.323 2.323 0 0 0-.47.311zm-59.764-54.674l40.805-27.779.628 23.585a2.382 2.382 0 0 0-1.965 2.148l-39.283 2.579a2.303 2.303 0 0 0-.185-.533zm41.497-28.244l21.155-14.398c.11.122.236.228.365.323l-20.373 38.235a2.334 2.334 0 0 0-.511-.119l-.636-24.041zm-.026-.834l-1.575-59.346c.06-.016.123-.036.183-.06l22.927 42.291a2.377 2.377 0 0 0-.75 2.97l-20.785 14.145zm-.129-62.807l22.189-17.182 27.899 30.094a2.263 2.263 0 0 0-.276.521l-7.446-1.815-42.073-10.238a2.225 2.225 0 0 0-.009-.502 2.386 2.386 0 0 0-.284-.878zm22.747-17.615l33.455-25.909c.293.283.663.486 1.066.588l-5.532 54.842c-.441.06-.838.236-1.163.496l-27.826-30.017zm-.477-.512l-17.622-19.008c.315-.394.509-.892.522-1.423l50.384-6.055c.052.19.127.372.219.535l-33.503 25.951zm-19.414-22.873l-5.339-44.438c.432-.12.81-.35 1.104-.663l25.896 18.054-20.593 27.335a2.3 2.3 0 0 0-1.068-.288zm-29.353-77.417l74.405-9.824c.048.179.118.35.207.51l-39.788 30.718-35.008-20.566c.111-.26.174-.546.184-.838zm87.453 23.597L243.622 89.26a2.386 2.386 0 0 0-.881-.756l14.088-43.27c.221.038.45.045.681.018.041-.004.079-.012.112-.017l10.358 31.727zm.217.674l5.365 16.437a2.393 2.393 0 0 0-1.232 1.496l-28.284-5.164c0-.014-.004-.033-.001-.052a2.726 2.726 0 0 0-.101-.466l24.253-12.25zm5.597 20.797l-2.786 8.436-27.112-15.372c.047-.124.082-.252.114-.383l28.235 5.152a2.378 2.378 0 0 0 1.549 2.167zm-3.011 9.11l-5.501 16.652a2.363 2.363 0 0 0-1.382.174l-20.558-32.031c.077-.073.147-.153.213-.236l27.228 15.441zm-11.109 76.205a2.038 2.038 0 0 0-.214-.045l4.073-40.378 1.452-14.405c.056-.004.116-.005.172-.01a2.387 2.387 0 0 0 2.09-2.574l23.577-5.655c.142.469.422.872.79 1.162l-31.94 61.905zm37.763 21.196a2.35 2.35 0 0 0 1.288-.58l23.251 19.634-30.505-18.6 3.656-1.567a2.374 2.374 0 0 0 2.31 1.113zm26.006 22.539l-40.921 22.31-18.946-30.341c.347-.298.61-.692.737-1.136l58.981 8.362a2.283 2.283 0 0 0 .149.805zm.634.944l-27.37 40.96a2.374 2.374 0 0 0-1.969-.034l-11.842-18.964 40.879-22.29c.092.118.192.229.302.328zm-30.059 44.809l-17.761 24.39a2.382 2.382 0 0 0-2.227.012l-20.191-29.182c.324-.305.56-.695.673-1.131l38.794 4.302c.005.064.006.131.014.198.073.557.329 1.046.698 1.411zm-55.173 58.384l-9.952-10.036a2.38 2.38 0 0 0 .403-2.017l43.914-18.461c.008.015.019.026.031.045l-34.396 30.469zm-.527.462l-22.527 19.961a2.618 2.618 0 0 0-.371-.255l11.059-29.306c.252.052.518.073.787.039a2.313 2.313 0 0 0 1.123-.446l9.929 10.007zm.495.5l24.673 24.887a2.48 2.48 0 0 0-.427.868l-9.943-.982-36.48-3.605c-.005-.056-.005-.108-.014-.168a2.353 2.353 0 0 0-.373-1.015l22.564-19.985zm25.158 28.277l-7.187 13.265-40.25-19.537c.015-.045.025-.087.039-.132l36.694 3.627 9.726.964c.001.06.006.116.011.179.078.673.448 1.258.967 1.634zm-7.521 13.877l-21.428 39.533a2.342 2.342 0 0 0-1.099-.127c-.034.004-.064.012-.097.016l-12.603-39.578-5.918-18.576c.375-.182.685-.457.915-.794l40.23 19.526zm.63.307l33.274 16.153a2.363 2.363 0 0 0 .134 1.454l-54.244 22.623a2.372 2.372 0 0 0-.607-.674l21.443-39.556zm8.467 55.909l-12.769 18.469a2.346 2.346 0 0 0-1.723-.296l-15.475-30.674a2.4 2.4 0 0 0 .632-.662l29.335 13.163zm-46.322 9.878c.034-.211.042-.431.015-.656a2.394 2.394 0 0 0-.702-1.421l10.136-14.008 21.242 24.965a2.533 2.533 0 0 0-.462.591l-30.229-9.471zm-22.995-54.073c.026-.012.048-.034.074-.046l31.9 37.492-10.23 14.144a2.386 2.386 0 0 0-1.632-.208l-20.112-51.382zm6.725-34.127c.158.012.322.009.487-.008.138-.014.268-.05.399-.086l4.65 9.925-12.494 20.044c-.023-.007-.046-.021-.068-.028l7.026-29.847zm1.965-175.823l1.549 58.247-41.179 28.029a2.32 2.32 0 0 0-.436-.371l40.066-85.905zm4.956-41.268c.075-.001.146-.006.22-.015a2.457 2.457 0 0 0 1.064-.4l17.576 18.964-22.141 17.147a2.367 2.367 0 0 0-1.017-.577l4.298-35.119zm65.552-41.577a2.396 2.396 0 0 0-1.088-.123c-.041.004-.078.012-.112.017l-5.4-16.538 20.168-10.185c.146.207.325.387.526.537l-14.094 26.292zm16.017 24.302l-.122.125-19.699-11.168 2.857-8.639c.139.01.281.007.431-.01.343-.044.659-.158.937-.324l15.596 20.016zm1.582 4.097l3.667 77.883a2.397 2.397 0 0 0-1.562 1.075l-33.761-14.651c.078-.286.106-.59.067-.9a2.378 2.378 0 0 0-1.115-1.74l31.896-61.829c.268.104.553.159.849.165l-.041-.003zm-27.573 234.191a2.35 2.35 0 0 0-1.467.437l-24.654-24.868 34.392-30.473c.223.164.469.291.736.373l-9.007 54.531zm25.422 33.61a2.527 2.527 0 0 0-.267.375l-33.195-16.113 7.176-13.246a2.43 2.43 0 0 0 1.058.117c.366-.044.697-.173.989-.354l24.239 29.221zm-4.475 51.227l-32.669 9.131a2.359 2.359 0 0 0-.415-.652l12.878-18.628 20.203 9.063c-.06.26-.077.53-.043.813.006.094.022.183.046.273z" fill="#fff"/></g><defs><clipPath id="kclip0"><path transform="rotate(-45.982 0 234.209)" fill="#fff" d="M0 234.209h325.689v353.586H0z"/></clipPath></defs></svg><svg fill="none" viewBox="0 0 481 480" id="triang7" xmlns="http://www.w3.org/2000/svg"><g clip-path="url(#lclip0)" opacity=".2"><path d="M253.909 451.198l32.758-9.155a2.38 2.38 0 0 0 2.337 1.154 2.38 2.38 0 0 0 .463-4.623l3.602-44.505a2.377 2.377 0 0 0 1.976-2.631 2.38 2.38 0 0 0-3.638-1.727l-24.238-29.221a2.377 2.377 0 0 0-1.027-3.804l9.021-54.561c.089-.002.183-.007.276-.013a2.379 2.379 0 0 0 2.081-2.648 2.385 2.385 0 0 0-.694-1.414l17.761-24.39c.412.214.889.314 1.389.253a2.38 2.38 0 0 0 1.314-4.125l27.37-40.959a2.38 2.38 0 0 0 3.383-2.435 2.38 2.38 0 0 0-3.937-1.501l-24.925-21.046a2.376 2.376 0 0 0-1.788-3.618l-3.663-77.887-.355.017h.008a2.38 2.38 0 0 0 2.08-2.648 2.38 2.38 0 0 0-3.441-1.839L276.4 97.816a2.38 2.38 0 0 0 .604-1.882 2.39 2.39 0 0 0-.945-1.627L290.138 68a2.38 2.38 0 0 0 3.168-2.525 2.38 2.38 0 0 0-2.648-2.08 2.414 2.414 0 0 0-1.47.751l-29.825-20.232a2.38 2.38 0 1 0-4.521-1.072l-74.391 9.824a2.375 2.375 0 0 0-2.586-1.756 2.38 2.38 0 0 0-2.081 2.649 2.38 2.38 0 0 0 3.586 1.757l22.762 27.147a2.378 2.378 0 0 0 1.711 3.957l5.339 44.437a2.382 2.382 0 0 0-.007 4.593l-4.294 35.115a2.38 2.38 0 0 0-.042 4.758l-40.619 87.093a2.494 2.494 0 0 0-.964-.084 2.379 2.379 0 0 0-2.08 2.648 2.378 2.378 0 0 0 2.648 2.08 2.403 2.403 0 0 0 1.26-.549l59.896 52.351a2.376 2.376 0 0 0 .267 2.915l-20.908 26.413a2.401 2.401 0 0 0-1.472-.305 2.38 2.38 0 0 0-.596 4.577l-7.026 29.847a2.235 2.235 0 0 0-.483.012 2.38 2.38 0 0 0-2.081 2.648 2.38 2.38 0 0 0 2.895 2.039l20.112 51.389a2.38 2.38 0 1 0 3.324 3.103l30.196 9.468a2.364 2.364 0 0 0-.036.768 2.38 2.38 0 0 0 2.648 2.081 2.378 2.378 0 0 0 2.089-2.619zm32.743-11.546l-20.047-8.995 25.351-36.67c.135.043.267.074.409.094l-.34 4.183-3.249 40.195a2.351 2.351 0 0 0-2.124 1.193zm8.198-236.464l-4.113 1.766-27.162-16.561 31.277 13.575a2.307 2.307 0 0 0-.002 1.22zm-4.139-83.205l-23.633 5.668a2.388 2.388 0 0 0-1.137-1.239l5.459-16.517 19.533 11.074a2.477 2.477 0 0 0-.222 1.014zm-2.032-53.474l-20.072 10.132-10.326-31.63c.26-.132.496-.308.691-.517l29.826 20.232a2.39 2.39 0 0 0-.119 1.783zm-79.834 296.714l24.048 51.299c-.104.069-.2.146-.292.226l-35.509-28.844a2.372 2.372 0 0 0-.501-3.023l12.254-19.658zm82.473 30.449l-25.366 36.693-29.451-13.217c.085-.294.109-.608.074-.93a2.704 2.704 0 0 0-.058-.298l54.344-22.666c.13.162.286.298.457.418zm-56.827 25.198c.16-.021.317-.054.466-.101l15.23 30.187-21.093-24.791 4.015-5.548a2.36 2.36 0 0 0 1.382.253zm-5.863 4.75l-30.849-36.257 34.382 27.932a2.366 2.366 0 0 0 .383 2.916l-3.916 5.409zm-19.339-61.109l4.029-6.462c.374.162.798.234 1.231.181.034-.004.063-.012.097-.016l7.793 24.472 9.806 30.797-22.956-48.972zm-.357-.757l-4.46-9.513c.348-.231.627-.55.815-.92l6.628 2.151a2.399 2.399 0 0 0 .806 2.206l-3.789 6.076zm-4.039-13.125l20.908-26.412c.011.003.019.011.027.018l-11.064 29.302a2.38 2.38 0 0 0-2.635 1.265l-6.629-2.151c.038-.221.045-.45.015-.677a2.35 2.35 0 0 0-.622-1.345zm88.494-77.696l-38.794-4.302c-.004-.063-.006-.131-.014-.198a2.598 2.598 0 0 0-.129-.537l27.826-15.171 11.866 19.001a2.436 2.436 0 0 0-.755 1.207zm-37.228-225.92l-14.088 43.27a2.378 2.378 0 0 0-2.25.85l-23.816-13.99 39.566-30.55c.172.173.373.316.588.42zm-76.18 9.788l34.777 20.431-9.191 7.097a2.374 2.374 0 0 0-2.894-.31L179.917 54.88a.34.34 0 0 1 .062-.08zm26.064 30.3c.051-.097.094-.203.13-.308l33.123 5.784c-.002.116 0 .228.013.344a2.37 2.37 0 0 0 .77 1.48l-8.113 10.773-25.923-18.072zm26.078 19.032l30.623 21.349c-.152.302-.236.64-.245.992l-50.384 6.055a2.405 2.405 0 0 0-.598-1.042l20.604-27.354zm-14.643 72.231l39.217 9.546a2.38 2.38 0 0 0 .484 1.593l-13.642 15.816-36.533-29.171a2.38 2.38 0 0 0 .149-.299l10.325 2.515zm9.224 141.424a2.327 2.327 0 0 0-.13.021l-17.973-53.87c.316-.159.589-.388.801-.662l34.797 19.59-16.528 35.01a2.352 2.352 0 0 0-.967-.089zm34.801-102.467c-.66.15-1.203.567-1.523 1.119l-15.889-12.689 13.594-15.766c.314.223.68.37 1.07.423l2.748 26.913zM205.99 82.879l9.413-7.265 24.062 14.133c-.018.041-.029.082-.043.127l-33.126-5.772c.002-.116 0-.228-.014-.344a2.386 2.386 0 0 0-.292-.879zm3.604 177.753l28.791-22.727 12.523 26.828c-.485.319-.84.816-.987 1.38l-.904-.101-39.104-4.285c-.005-.064-.006-.131-.015-.191a2.524 2.524 0 0 0-.304-.904zm29.352-23.17l22.268-17.577c.113.043.23.075.346.099l-6.991 33.679-2.219 10.682a2.4 2.4 0 0 0-.423.011 2.914 2.914 0 0 0-.395.082l-12.586-26.976zm-.303-.654l-7.208-15.443c.551-.38.926-.989 1.008-1.668l12.19-.284 15.482-.355c.122.17.271.321.438.453l-21.91 17.297zm4.986-32.525l16.078 12.836a2.303 2.303 0 0 0 .055 1.245l-15.085.349-12.25.284a2.374 2.374 0 0 0-.516-1.117l11.718-13.597zm7.268 64.414l-6.389 13.535-34.755-19.563c.032-.079.053-.162.078-.249l40.008 4.386c.005.064.006.131.015.191a2.36 2.36 0 0 0 1.043 1.7zm-41.955-8.791l20.38-38.243a2.356 2.356 0 0 0 1.482.012l7.274 15.581-28.92 22.829a2.33 2.33 0 0 0-.216-.179zm20.854-42.862a2.304 2.304 0 0 0-.484.113l-22.936-42.299a3.32 3.32 0 0 0 .192-.16l36.514 29.153-11.696 13.566a2.343 2.343 0 0 0-1.59-.373zm2.742-113.472l8.124-10.784a2.38 2.38 0 0 0 1.295.213c.25-.03.485-.098.7-.199l20.64 31.948a1.455 1.455 0 0 0-.158.156l-30.601-21.334zm28.359 84.006l29.052 17.711-25.89 11.104a2.385 2.385 0 0 0-1.857-1.125l-2.744-26.872a2.363 2.363 0 0 0 1.439-.818zm29.782 18.159l32.805 20.005c-.036.083-.064.166-.093.249l-58.978-8.365a1.967 1.967 0 0 0-.081-.587l26.347-11.302zm-28.362 14.271c.235-.03.459-.094.667-.179l18.923 30.303-27.793 15.153a2.39 2.39 0 0 0-1.077-.798l9.235-44.47c.015-.008.03-.008.045-.009zm-9.815 49.077c.276-.035.529-.114.767-.23l20.203 29.2a3.006 3.006 0 0 0-.275.33l-28.081-15.807 6.411-13.581c.309.092.635.128.975.088zm20.39 31.39l-43.869 18.445a2.346 2.346 0 0 0-.716-.744l16.506-34.964 28.073 15.8a2.394 2.394 0 0 0-.099 1.009c.022.16.054.309.105.454zm-47.445 17.866L165.55 265.99c.208-.321.34-.694.37-1.091l39.283-2.579a2.38 2.38 0 0 0 2.741 1.84l17.973 53.87c-.175.089-.33.189-.47.311zm-59.765-54.674l40.805-27.779.628 23.585a2.382 2.382 0 0 0-1.965 2.148l-39.283 2.578a2.312 2.312 0 0 0-.185-.532zm41.497-28.244l21.155-14.398c.11.122.236.228.365.323l-20.373 38.235a2.334 2.334 0 0 0-.511-.119l-.636-24.041zm-.026-.834l-1.575-59.346c.06-.016.123-.036.183-.06l22.927 42.291a2.377 2.377 0 0 0-.75 2.97l-20.785 14.145zm-.129-62.807l22.189-17.182 27.899 30.094a2.263 2.263 0 0 0-.276.521l-7.446-1.815-42.073-10.238a2.225 2.225 0 0 0-.009-.502 2.386 2.386 0 0 0-.284-.878zm22.747-17.615l33.455-25.909c.293.283.663.486 1.066.588l-5.532 54.842c-.441.06-.838.236-1.163.496l-27.826-30.017zm-.477-.512l-17.622-19.008c.315-.394.509-.892.522-1.423l50.385-6.055c.051.19.126.372.218.535l-33.503 25.951zm-19.413-22.873l-5.34-44.438c.432-.12.81-.35 1.104-.663l25.896 18.054-20.593 27.335a2.298 2.298 0 0 0-1.067-.288zm-29.354-77.417l74.405-9.824c.048.179.118.35.207.51l-39.788 30.718-35.008-20.566c.111-.26.174-.546.184-.838zm87.453 23.597L243.622 89.26a2.386 2.386 0 0 0-.881-.756l14.088-43.27c.221.038.45.045.681.018.041-.004.079-.012.112-.017l10.358 31.727zm.217.674l5.365 16.437a2.393 2.393 0 0 0-1.232 1.496l-28.284-5.164c0-.015-.004-.033-.001-.052a2.724 2.724 0 0 0-.101-.466l24.253-12.25zm5.597 20.797l-2.786 8.436-27.112-15.372c.047-.124.082-.252.114-.384l28.235 5.153a2.378 2.378 0 0 0 1.549 2.167zm-3.011 9.11l-5.501 16.652a2.363 2.363 0 0 0-1.382.174l-20.558-32.031c.077-.073.147-.153.213-.236l27.228 15.441zm-11.109 76.205a2.038 2.038 0 0 0-.214-.045l4.073-40.378 1.452-14.405c.056-.004.116-.005.172-.01a2.386 2.386 0 0 0 2.09-2.574l23.577-5.655c.142.469.423.872.791 1.162l-31.941 61.905zm37.763 21.196a2.356 2.356 0 0 0 1.289-.58l23.25 19.634-30.505-18.6 3.656-1.567a2.374 2.374 0 0 0 2.31 1.113zm26.006 22.539l-40.92 22.309-18.947-30.34c.347-.298.61-.692.737-1.136l58.982 8.361a2.283 2.283 0 0 0 .148.806zm.634.944l-27.37 40.96a2.374 2.374 0 0 0-1.969-.034l-11.842-18.964 40.88-22.29c.091.118.191.229.301.328zm-30.059 44.809l-17.761 24.39a2.374 2.374 0 0 0-2.227.012l-20.191-29.182c.324-.305.56-.695.673-1.131l38.794 4.302c.005.064.006.131.014.198.074.557.329 1.046.698 1.411zm-55.173 58.384l-9.952-10.037a2.376 2.376 0 0 0 .404-2.016l43.913-18.461c.008.015.019.026.031.045l-34.396 30.469zm-.527.462l-22.527 19.961a2.618 2.618 0 0 0-.371-.255l11.059-29.306c.252.052.518.073.787.039a2.323 2.323 0 0 0 1.123-.446l9.929 10.007zm.495.5l24.673 24.887a2.497 2.497 0 0 0-.427.868l-9.943-.982-36.48-3.605c-.004-.056-.005-.108-.014-.168a2.353 2.353 0 0 0-.373-1.015l22.564-19.985zm25.158 28.277l-7.187 13.265-40.249-19.537c.014-.045.024-.087.038-.132l36.694 3.627 9.726.964c.001.06.006.116.011.179.078.673.448 1.258.967 1.634zm-7.521 13.877l-21.428 39.533a2.342 2.342 0 0 0-1.099-.127c-.034.004-.064.012-.097.016l-12.603-39.578-5.918-18.576c.375-.182.685-.457.915-.794l40.23 19.526zm.63.307l33.274 16.153a2.363 2.363 0 0 0 .134 1.454l-54.244 22.623a2.383 2.383 0 0 0-.606-.674l21.442-39.556zm8.467 55.909l-12.769 18.469a2.34 2.34 0 0 0-1.723-.296l-15.475-30.674c.252-.176.465-.404.632-.662l29.335 13.163zm-46.322 9.878a2.353 2.353 0 0 0-.687-2.077l10.136-14.008 21.242 24.965a2.533 2.533 0 0 0-.462.591l-30.229-9.471zm-22.995-54.073c.026-.012.048-.035.074-.046l31.9 37.492-10.23 14.144a2.386 2.386 0 0 0-1.632-.208l-20.112-51.382zm6.725-34.127c.158.012.322.009.487-.008.138-.014.269-.05.399-.086l4.65 9.925-12.494 20.044c-.023-.007-.046-.021-.068-.028l7.026-29.847zm1.965-175.823l1.549 58.247-41.178 28.029a2.326 2.326 0 0 0-.437-.371l40.066-85.905zm4.956-41.268a2.05 2.05 0 0 0 .221-.015 2.458 2.458 0 0 0 1.063-.4l17.576 18.964-22.141 17.147a2.379 2.379 0 0 0-1.017-.578l4.298-35.118zm65.552-41.577a2.396 2.396 0 0 0-1.088-.123c-.041.004-.078.012-.112.017l-5.4-16.538 20.168-10.185c.146.207.325.387.526.537l-14.094 26.292zm16.017 24.302l-.122.125-19.699-11.168 2.857-8.639c.139.01.281.007.431-.01.343-.044.659-.158.937-.324l15.596 20.016zm1.582 4.097l3.667 77.883a2.392 2.392 0 0 0-1.561 1.075l-33.762-14.651c.078-.286.106-.59.067-.9a2.378 2.378 0 0 0-1.115-1.74l31.897-61.829c.267.104.552.159.848.165l-.041-.003zm-27.573 234.191a2.35 2.35 0 0 0-1.467.437l-24.654-24.869 34.392-30.472c.223.164.469.291.736.373l-9.007 54.531zm25.422 33.61a2.527 2.527 0 0 0-.267.375l-33.195-16.113 7.176-13.246a2.43 2.43 0 0 0 1.058.117c.366-.044.697-.173.989-.354l24.239 29.221zm-4.475 51.227l-32.668 9.131a2.37 2.37 0 0 0-.416-.652l12.878-18.628 20.203 9.063c-.06.26-.077.53-.043.813.006.094.022.183.046.273z" fill="#fff"/></g><defs><clipPath id="lclip0"><path transform="rotate(-45.982 0 234.209)" fill="#fff" d="M0 234.209h325.689v353.586H0z"/></clipPath></defs></svg><svg fill="none" viewBox="0 0 1051 900" id="triang8" xmlns="http://www.w3.org/2000/svg"><g clip-path="url(#mclip0)"><path d="M746.09 1061.38l97.544-26.03a7.078 7.078 0 0 0 6.895 3.51 7.068 7.068 0 0 0 6.268-7.79c-.305-2.82-2.227-5.05-4.731-5.92l12.237-131.963c3.719-.564 6.377-3.967 5.957-7.741a7.063 7.063 0 0 0-7.788-6.268 7.18 7.18 0 0 0-2.949 1.016l-70.922-87.57a7.064 7.064 0 0 0 1.737-5.442 7.055 7.055 0 0 0-4.653-5.884l28.673-161.624c.266-.001.544-.014.821-.027a7.062 7.062 0 0 0 6.268-7.787 7.066 7.066 0 0 0-2.012-4.221l53.564-71.772a7.047 7.047 0 0 0 4.115.8 7.063 7.063 0 0 0 6.267-7.787 7.012 7.012 0 0 0-2.223-4.409l82.658-120.616a7.063 7.063 0 0 0 10.126-7.109 7.063 7.063 0 0 0-7.788-6.267 6.975 6.975 0 0 0-3.845 1.676l-73.246-63.331a7.063 7.063 0 0 0 1.064-4.538c-.363-3.364-3.02-5.904-6.244-6.265l-8.161-231.294-1.055.039h.022a7.062 7.062 0 0 0 6.267-7.788 7.062 7.062 0 0 0-7.787-6.267 7.274 7.274 0 0 0-2.362.69l-45.669-60.07a7.06 7.06 0 0 0 1.858-5.564 7.086 7.086 0 0 0-2.748-4.862l42.702-77.588a7.063 7.063 0 0 0 9.491-7.383 7.062 7.062 0 0 0-7.787-6.267 7.157 7.157 0 0 0-4.387 2.178l-87.819-61.086a7.063 7.063 0 0 0-7.087-10.17 7.054 7.054 0 0 0-6.295 6.832L541.935-124.01c-.84-3.373-4.063-5.699-7.615-5.302a7.063 7.063 0 0 0-6.268 7.787 7.063 7.063 0 0 0 7.788 6.268 7.178 7.178 0 0 0 2.794-.926l66.612 81.362a7.037 7.037 0 0 0-1.803 5.508c.375 3.53 3.299 6.159 6.743 6.295l14.301 132.077c-3.339.873-5.632 4.063-5.246 7.604a7.045 7.045 0 0 0 5.064 6.027l-13.966 104.07a6.536 6.536 0 0 0-.655.037 7.062 7.062 0 0 0-6.267 7.788c.374 3.485 3.243 6.103 6.632 6.295L486.463 497.96a7.398 7.398 0 0 0-2.857-.285 7.063 7.063 0 0 0-6.267 7.788 7.063 7.063 0 0 0 7.787 6.267 7.117 7.117 0 0 0 3.758-1.587l175.95 157.461a7.117 7.117 0 0 0-1.13 4.65c.164 1.554.838 2.928 1.821 4.011l-62.973 77.665a7.122 7.122 0 0 0-4.36-.954 7.062 7.062 0 0 0-6.267 7.788 7.032 7.032 0 0 0 4.341 5.775l-21.894 88.339a6.876 6.876 0 0 0-1.433.019 7.063 7.063 0 0 0-6.267 7.788 7.063 7.063 0 0 0 7.788 6.267c.244-.024.488-.069.732-.115l57.904 153.223a7.063 7.063 0 0 0-3.584 6.93 7.062 7.062 0 0 0 7.787 6.27 7.08 7.08 0 0 0 5.556-3.88l89.29 29.16a6.992 6.992 0 0 0-.133 2.27 7.062 7.062 0 0 0 7.788 6.27 7.054 7.054 0 0 0 6.29-7.7zm97.584-33.13l-59.189-27.39 76.518-107.955c.4.131.79.229 1.212.293l-1.155 12.403-11.04 119.189a5.548 5.548 0 0 0-1 .02 7 7 0 0 0-5.346 3.44zm32.559-701.534l-12.27 5.099-80.039-50.098 92.356 41.378a6.882 6.882 0 0 0-.23 2.667c.035.322.103.632.183.954zm-9.392-247.095L796.502 95.62a7.086 7.086 0 0 0-3.33-3.714l16.775-48.834 57.589 33.546a7.403 7.403 0 0 0-.695 3.003zm-4.17-158.78l-59.925 29.372-29.547-94.237a7.35 7.35 0 0 0 2.069-1.511l87.819 61.086a7.106 7.106 0 0 0-.701 3.903c.058.477.15.943.285 1.387zM615.402 798.704l69.588 153.094a8.81 8.81 0 0 0-.874.66l-104.387-86.845a7.044 7.044 0 0 0-1.382-8.99l37.055-57.919zm243.718 93.245l-76.561 108.019-86.951-40.252a7.109 7.109 0 0 0 .252-2.756 7.889 7.889 0 0 0-.16-.888l162.08-65.382c.381.486.838.895 1.34 1.259zm-169.539 72.81c.478-.058.944-.15 1.387-.285l44.155 90.126-61.742-74.313 12.108-16.328a7.015 7.015 0 0 0 4.092.8zm-17.564 13.891l-90.298-108.682 101.073 84.097a7.012 7.012 0 0 0-.998 4.427 7.121 7.121 0 0 0 2.034 4.243l-11.811 15.915zm-55.271-182.041l12.182-19.039a7.059 7.059 0 0 0 3.647.58c.1-.012.188-.034.288-.046l22.278 72.905 28.034 91.746-66.429-146.146zm-1.035-2.261l-12.906-28.389a7.167 7.167 0 0 0 2.452-2.702l19.597 6.615a6.799 6.799 0 0 0-.067 2.011 7.118 7.118 0 0 0 2.38 4.563l-11.456 17.902zm-11.53-39.094l62.973-77.665a.194.194 0 0 1 .078.055l-33.855 86.583c-.745-.162-1.534-.236-2.334-.143a7.076 7.076 0 0 0-5.533 3.807l-19.597-6.614a6.799 6.799 0 0 0 .067-2.011c-.153-1.566-.827-2.939-1.799-4.012zm265.353-227.521l-114.991-14.118c-.012-.189-.013-.389-.036-.589a7.649 7.649 0 0 0-.364-1.597l83.117-44.061 34.554 56.809a7.21 7.21 0 0 0-2.28 3.556zM766.901-144.09L723.583-16.156a7.215 7.215 0 0 0-2.022-.078 7.054 7.054 0 0 0-4.686 2.525l-70.199-42.353 118.496-89.296a6.447 6.447 0 0 0 1.729 1.268zm-226.442 26.397l102.508 61.85-27.525 20.745a7.049 7.049 0 0 0-5.721-1.991 6.952 6.952 0 0 0-2.86.97l-66.59-81.34c.055-.1.122-.167.188-.234zm76.305 90.84c.154-.289.286-.6.395-.912l98.107 18.32a7.75 7.75 0 0 0 .027 1.021 7.028 7.028 0 0 0 2.235 4.42l-24.455 31.69-76.309-54.538zm76.735 57.392l90.147 64.428a6.932 6.932 0 0 0-.761 2.937l-149.751 16.218a7.124 7.124 0 0 0-1.738-3.112l62.103-80.47zM647.525 244.41l116.063 29.697c-.031.411-.039.844.018 1.277a7.09 7.09 0 0 0 1.363 3.469l-41.037 46.466-107.414-87.851c.165-.278.319-.568.45-.88l30.557 7.822zm22.458 420.067a5.568 5.568 0 0 0-.389.058l-51.467-160.512a7.026 7.026 0 0 0 2.4-1.935l102.595 59.351-50.272 103.334a7.007 7.007 0 0 0-2.867-.296zm106.853-302.91a7.022 7.022 0 0 0-4.559 3.269l-46.716-38.215 40.894-46.32a7.157 7.157 0 0 0 3.161 1.293l7.22 79.973zM616.684-33.45l28.189-21.236 70.924 42.782c-.055.123-.088.245-.132.379l-98.117-18.286a7.926 7.926 0 0 0-.028-1.022 7.112 7.112 0 0 0-.836-2.617zm4.512 527.692l86.24-66.45 36.235 80.061a7.065 7.065 0 0 0-2.978 4.059l-2.678-.329-115.913-14.08c-.012-.189-.013-.389-.036-.566a7.571 7.571 0 0 0-.87-2.695zm87.921-67.747l66.704-51.392c.334.131.679.229 1.024.305l-21.921 99.715-6.96 31.629a6.77 6.77 0 0 0-1.256.018 8.541 8.541 0 0 0-1.176.229l-36.415-80.504zm-.877-1.95l-20.855-46.086a7.07 7.07 0 0 0 3.05-4.916l36.188-.418 45.963-.515a6.75 6.75 0 0 0 1.285 1.359l-65.631 50.576zm15.929-96.361l47.275 38.656a6.851 6.851 0 0 0-.154 2.389c.047.444.139.888.274 1.309l-44.785.509-36.366.419a7.045 7.045 0 0 0-1.496-3.335l35.252-39.947zm19.332 191.433l-19.434 39.951-102.472-59.274c.099-.234.164-.479.241-.735l118.591 14.41c.012.189.013.389.036.566a7.012 7.012 0 0 0 3.038 5.082zm-124.216-27.553l61.817-112.794a6.996 6.996 0 0 0 3.09.361 7.171 7.171 0 0 0 1.309-.274l21.046 46.496-86.626 66.752c-.201-.199-.413-.364-.636-.541zm63.387-126.488c-.5.059-.977.161-1.443.319l-66.6-126.339c.2-.157.388-.302.576-.47l107.358 87.796-35.186 39.857a6.963 6.963 0 0 0-4.705-1.163zm12.084-336.688l24.489-31.724a7.06 7.06 0 0 0 3.836.68 6.818 6.818 0 0 0 2.085-.567l60.146 95.538a4.56 4.56 0 0 0-.475.458l-90.081-64.384zm81.246 250.317l85.612 53.578-77.229 32.054a7.084 7.084 0 0 0-5.472-3.403l-7.208-79.851a7.025 7.025 0 0 0 4.297-2.378zm87.763 54.932l96.669 60.516c-.11.245-.197.49-.285.735l-174.755-26.88a9.445 9.445 0 0 0-.038-.788 5.533 5.533 0 0 0-.183-.955l78.592-32.628zm-84.676 41.37a7.81 7.81 0 0 0 1.986-.51l55.109 90.599-83.018 44.005a7.076 7.076 0 0 0-3.167-2.404l28.957-131.667a.284.284 0 0 1 .133-.023zm-30.838 145.318a7.167 7.167 0 0 0 2.284-.657l58.947 87.369a8.672 8.672 0 0 0-.828.971l-82.793-47.895 19.5-40.084c.913.284 1.88.401 2.89.296zm59.426 93.875l-130.844 53.217a6.957 6.957 0 0 0-2.101-2.232l50.206-103.201 82.771 47.873a7.055 7.055 0 0 0-.328 2.99c.058.477.149.921.296 1.353zm-141.44 51.375L490.286 508.614a6.96 6.96 0 0 0 1.138-3.228l116.679-6.285a7.062 7.062 0 0 0 7.684 5.612c.122-.012.256-.035.389-.058l51.467 160.513a6.749 6.749 0 0 0-1.406.907zM490.76 501.724l122.073-81.028 1.046 70.02a7.072 7.072 0 0 0-5.909 6.308l-116.68 6.286a7.009 7.009 0 0 0-.53-1.586zm124.143-82.384l63.289-41.998c.324.365.693.685 1.072.972l-61.795 112.771a6.871 6.871 0 0 0-1.513-.369l-1.053-71.376zm-.047-2.477l-2.609-176.195c.178-.045.366-.102.544-.169l66.577 126.317a7.053 7.053 0 0 0-2.964 6.548c.094.799.309 1.542.635 2.24l-62.183 41.259zm1.801-186.416l66.455-50.224 81.757 90.289a6.865 6.865 0 0 0-.836 1.537l-22.036-5.646-124.518-31.85a6.626 6.626 0 0 0-.008-1.489 7.065 7.065 0 0 0-.814-2.617zm68.126-51.488l100.197-75.734a7.041 7.041 0 0 0 3.142 1.782l-18.326 162.579a7.013 7.013 0 0 0-3.469 1.429l-81.544-90.056zm-1.397-1.537l-51.64-57.028a7.063 7.063 0 0 0 1.599-4.207l149.751-16.218c.147.566.361 1.109.631 1.596l-100.341 75.857zm-56.823-68.563l-14.3-132.077a7.082 7.082 0 0 0 3.299-1.928l76.231 54.484-62.07 80.415a6.851 6.851 0 0 0-3.16-.894zm-84.428-230.793l221.176-26.569c.136.533.339 1.043.597 1.519l-119.16 89.788-103.188-62.258a6.91 6.91 0 0 0 .575-2.48zm258.739 73.08l-72.721 35.65a7.094 7.094 0 0 0-2.589-2.274l43.318-127.934a7.213 7.213 0 0 0 2.022.078c.122-.012.233-.035.333-.046l29.637 94.525zm.622 2.007l15.35 48.97a7.102 7.102 0 0 0-3.709 4.397L729.371-9.79c0-.044-.011-.1-.001-.155a8.047 8.047 0 0 0-.285-1.387l72.411-35.516zm15.887 61.92l-8.563 24.94-79.931-46.567c.142-.367.251-.745.349-1.135L812.86 8.588c.001.222.013.433.037.655.292 2.72 2.092 4.898 4.486 5.83zm-9.252 26.931L791.224 91.24a6.955 6.955 0 0 0-2.044-.078 7.064 7.064 0 0 0-2.063.544L727.214-4.079a6.25 6.25 0 0 0 .64-.692l80.277 46.775zm-35.624 225.789a6.843 6.843 0 0 0-.633-.141l13.492-119.697 4.812-42.703c.167-.012.344-.013.511-.025 3.808-.41 6.567-3.779 6.291-7.566l70.172-15.964a6.96 6.96 0 0 0 2.308 3.475l-96.953 182.621zm111.341 64.225a6.978 6.978 0 0 0 3.846-1.676l68.324 59.081-89.892-56.265 10.906-4.524a7.044 7.044 0 0 0 6.816 3.384zm76.403 67.802l-122.228 64.789-55.177-90.711a7.024 7.024 0 0 0 2.226-3.344l174.766 26.869c.001.266.014.522.038.788a6.64 6.64 0 0 0 .375 1.609zm1.848 2.822l-82.658 120.616a7.062 7.062 0 0 0-3.859-.679 7.793 7.793 0 0 0-1.985.511l-34.487-56.699 122.106-64.733c.269.354.559.686.883.984zm-90.773 131.946l-53.564 71.771a7.05 7.05 0 0 0-6.609-.042l-58.913-87.313a7.017 7.017 0 0 0 2.037-3.333l114.99 14.118c.013.189.014.389.037.589a7.182 7.182 0 0 0 2.022 4.21zM705.542 705.952l-29.188-30.134a7.076 7.076 0 0 0 1.427-5.062 6.022 6.022 0 0 0-.16-.91l130.977-53.262c.022.044.056.077.089.133l-103.145 89.235zm-1.581 1.352l-67.554 58.462a7.719 7.719 0 0 0-1.093-.772l33.844-86.594c.745.163 1.535.237 2.334.143a6.86 6.86 0 0 0 3.348-1.284l29.121 30.045zm1.452 1.503l72.364 74.722a7.327 7.327 0 0 0-1.297 2.562l-29.477-3.262-108.147-11.967c-.012-.166-.013-.322-.036-.499a6.967 6.967 0 0 0-1.072-3.027l67.665-58.529zm73.685 84.801l-21.794 39.119-118.779-59.386c.044-.133.076-.256.12-.389l108.781 12.041 28.832 3.199c.001.177.013.344.025.533.211 1.998 1.287 3.747 2.815 4.883zm-22.806 40.924L691.318 951.12a6.949 6.949 0 0 0-3.257-.416c-.1.012-.188.034-.288.046l-36.029-117.907-16.918-55.338a6.964 6.964 0 0 0 2.742-2.326l118.724 59.353zm1.86.934l98.196 49.1a6.851 6.851 0 0 0-.154 2.389c.081.677.24 1.32.499 1.93l-161.782 65.259a7.036 7.036 0 0 0-1.777-2.023l65.018-116.655zm23.183 166.234l-38.54 54.37a6.893 6.893 0 0 0-4.504-1.03c-.2.02-.411.06-.599.09l-44.862-91.577a7.199 7.199 0 0 0 1.9-1.943l86.605 40.09zm-137.825 27.7c.108-.62.138-1.28.068-1.94a7.138 7.138 0 0 0-2.034-4.25l30.569-41.217 62.178 74.837a7.398 7.398 0 0 0-1.391 1.74l-89.39-29.17zm-66.367-161.285c.078-.033.144-.1.222-.134l93.373 112.387-30.856 41.622a7.09 7.09 0 0 0-4.092-.8c-.244.02-.488.07-.743.13l-57.904-153.205zm21.147-101.054c.467.042.956.039 1.444-.008.411-.036.799-.138 1.188-.24l13.457 29.62-37.782 59.055c-.067-.021-.133-.066-.2-.087l21.893-88.34zm11.949-521.772l2.57 172.93-123.192 81.756a6.885 6.885 0 0 0-1.283-1.115l121.905-253.571zm16.145-122.311c.222-.001.433-.013.655-.036a7.283 7.283 0 0 0 3.171-1.151l51.506 56.895-66.312 50.124a7.033 7.033 0 0 0-2.997-1.75l13.977-104.082zM822.388 1.86a7.105 7.105 0 0 0-3.224-.405c-.122.012-.233.035-.333.047l-15.452-49.27 60.213-29.53c.426.62.951 1.161 1.542 1.614L822.388 1.86zm46.692 72.683l-.365.37-58.079-33.833 8.782-25.54c.411.03.833.028 1.277-.019a7.162 7.162 0 0 0 2.794-.926l45.591 59.948zm4.554 12.217l8.172 231.284a7.095 7.095 0 0 0-4.67 3.135l-99.694-44.659c.24-.846.335-1.746.23-2.667a7.06 7.06 0 0 0-3.249-5.204l96.82-182.398c.79.318 1.635.491 2.513.52l-.122-.01zM783.65 780.876a6.117 6.117 0 0 0-1.111.028 6.998 6.998 0 0 0-3.259 1.217l-72.308-74.666 103.134-89.246a7.243 7.243 0 0 0 2.173 1.132L783.65 780.876zm74.281 100.637a7.797 7.797 0 0 0-.805 1.105l-97.962-48.979 21.761-39.063c.979.35 2.035.488 3.134.383a7.184 7.184 0 0 0 2.95-1.016l70.922 87.57zM842.868 1033.4l-97.278 25.96a6.92 6.92 0 0 0-1.21-1.94l38.87-54.85 59.645 27.61a6.947 6.947 0 0 0-.153 2.41c.012.28.058.54.126.81z" fill="#fff"/></g><defs><clipPath id="mclip0"><path transform="rotate(-45.31 .042 408.528)" fill="#fff" d="M.042 408.528H966.75v1049.51H.042z"/></clipPath></defs></svg><svg viewBox="0 0 24 24" id="youtube" xmlns="http://www.w3.org/2000/svg"><path d="M21.582 6.186a2.506 2.506 0 0 0-1.768-1.768C18.254 4 12 4 12 4s-6.254 0-7.814.418c-.86.23-1.538.908-1.768 1.768C2 7.746 2 12 2 12s0 4.254.418 5.814c.23.86.908 1.538 1.768 1.768C5.746 20 12 20 12 20s6.254 0 7.814-.418a2.504 2.504 0 0 0 1.768-1.768C22 16.254 22 12 22 12s0-4.254-.418-5.814zM10 15.464V8.536L16 12l-6 3.464z"/></svg></svg>