<svg width="90" height="110" viewBox="0 0 90 110" fill="none" xmlns="http://www.w3.org/2000/svg">
<path d="M77.7273 40.9648V29.537C77.7273 13.2611 63.0409 0 45 0C26.9591 0 12.2727 13.2611 12.2727 29.537V40.9648C5.31818 42.1667 0 48.1963 0 55.4685V95.2722C0 103.4 6.62727 110 14.7886 110H75.2114C83.3727 110 90 103.4 90 95.2722V55.4685C90 48.1963 84.6818 42.1667 77.7273 40.9648ZM16.3636 29.537C16.3636 15.5019 29.2091 4.07407 45 4.07407C60.7909 4.07407 73.6364 15.5019 73.6364 29.537V40.7407H16.3636V29.537ZM85.9091 95.2722C85.9091 101.139 81.1023 105.926 75.2114 105.926H14.7886C8.89773 105.926 4.09091 101.139 4.09091 95.2722V55.4685C4.09091 49.6019 8.89773 44.8148 14.7886 44.8148H75.2114C81.1023 44.8148 85.9091 49.6019 85.9091 55.4685V95.2722Z" fill="black"/>
<path d="M45.0001 57.037C40.4796 57.037 36.8182 60.6833 36.8182 65.1852V77.4074C36.8182 81.9093 40.4796 85.5556 45.0001 85.5556C49.5205 85.5556 53.1819 81.9093 53.1819 77.4074V65.1852C53.1819 60.6833 49.5205 57.037 45.0001 57.037ZM49.091 77.4074C49.091 79.6482 47.2501 81.4815 45.0001 81.4815C42.7501 81.4815 40.9091 79.6482 40.9091 77.4074V65.1852C40.9091 62.9445 42.7501 61.1111 45.0001 61.1111C47.2501 61.1111 49.091 62.9445 49.091 65.1852V77.4074Z" fill="black"/>
</svg>
