<svg width="443" height="652" viewBox="0 0 443 652" fill="none" xmlns="http://www.w3.org/2000/svg">
<g opacity="0.2">
<g clip-path="url(#clip0)">
<path d="M94.9097 39.0121L50.4914 51.7881C49.8496 50.7205 48.6178 50.0743 47.3045 50.2441C45.5297 50.471 44.2776 52.089 44.5046 53.8638C44.6686 55.1518 45.5684 56.1572 46.7222 56.5306L42.2849 117.041C40.588 117.333 39.401 118.913 39.6267 120.637C39.8537 122.412 41.4717 123.664 43.2465 123.437C43.7434 123.374 44.1917 123.195 44.5875 122.946L77.8224 162.403C77.254 163.074 76.9557 163.971 77.0755 164.909C77.2391 166.177 78.1185 167.183 79.2571 167.562L67.5588 241.793C67.4368 241.796 67.3098 241.804 67.1828 241.812C65.4081 242.039 64.1559 243.657 64.3829 245.432C64.4779 246.188 64.8352 246.855 65.3407 247.347L41.4566 280.67C40.8951 280.384 40.2458 280.252 39.5663 280.34C37.7915 280.567 36.5394 282.185 36.7664 283.96C36.8727 284.766 37.2613 285.464 37.8229 285.959L1.05258 341.896C0.517353 341.645 -0.0904942 341.543 -0.719362 341.619C-2.49415 341.846 -3.74626 343.464 -3.51931 345.239C-3.2924 347.014 -1.6744 348.266 0.100394 348.039C0.774913 347.956 1.37297 347.662 1.84577 347.238L35.9305 375.58C35.5639 376.184 35.3885 376.911 35.4835 377.666C35.6791 379.203 36.9179 380.342 38.3965 380.478L44.1725 486.275L44.6551 486.247L44.6449 486.248C42.8702 486.475 41.618 488.093 41.845 489.867C42.0719 491.642 43.6899 492.894 45.4647 492.667C45.8501 492.617 46.2134 492.496 46.5399 492.33L67.9733 519.423C67.3694 520.099 67.0513 521.018 67.1718 521.986C67.2911 522.904 67.7834 523.68 68.4725 524.187L49.6114 560.078C49.1496 559.916 48.6497 559.857 48.1324 559.921C46.3576 560.148 45.1055 561.766 45.3324 563.541C45.5593 565.315 47.1774 566.567 48.9522 566.341C49.7482 566.234 50.4407 565.851 50.941 565.305L91.6762 592.49C91.4199 593.031 91.308 593.649 91.3898 594.283C91.6167 596.058 93.2347 597.31 95.0095 597.083C96.6373 596.875 97.819 595.497 97.8305 593.9L198.812 579.788C199.226 581.325 200.722 582.361 202.345 582.148C204.119 581.921 205.372 580.303 205.145 578.528C204.918 576.753 203.3 575.501 201.525 575.728C201.058 575.791 200.63 575.949 200.254 576.177L169.047 539.523C169.636 538.852 169.944 537.945 169.823 536.986C169.621 535.373 168.259 534.196 166.681 534.164L158.971 473.836C160.491 473.407 161.513 471.927 161.305 470.309C161.134 468.966 160.162 467.921 158.934 467.596L164.408 419.837C164.51 419.835 164.606 419.827 164.708 419.815C166.482 419.588 167.735 417.97 167.508 416.195C167.305 414.603 165.969 413.43 164.416 413.372L218.716 294.611C219.131 294.728 219.57 294.768 220.026 294.716C221.801 294.49 223.053 292.871 222.826 291.097C222.599 289.322 220.981 288.07 219.206 288.297C218.552 288.379 217.969 288.658 217.501 289.056L135.576 218.535C135.962 217.92 136.147 217.173 136.052 216.397C135.963 215.687 135.643 215.064 135.183 214.577L163.322 178.473C163.91 178.804 164.606 178.96 165.326 178.871C167.101 178.644 168.353 177.026 168.126 175.251C167.974 174.034 167.161 173.062 166.088 172.646L175.33 132.018C175.544 132.033 175.768 132.028 175.986 131.997C177.76 131.77 179.012 130.152 178.785 128.377C178.559 126.603 176.941 125.35 175.166 125.577C175.054 125.59 174.943 125.613 174.831 125.637L146.976 56.0138C148.065 55.3816 148.726 54.1342 148.556 52.8108C148.329 51.036 146.711 49.7839 144.936 50.0108C143.805 50.1558 142.882 50.8754 142.427 51.8328L101.3 39.2765C101.368 38.9441 101.385 38.5928 101.341 38.2327C101.114 36.4579 99.4957 35.2058 97.7209 35.4327C95.951 35.6545 94.7086 37.2519 94.9097 39.0121ZM50.5361 55.0375L77.8693 67.0544L43.7981 117.141C43.6136 117.085 43.4346 117.044 43.2406 117.018L43.6598 111.33L47.6618 56.6803C47.8146 56.6867 47.9721 56.6778 48.1191 56.6589C49.1842 56.5308 50.0537 55.8989 50.5361 55.0375ZM41.8218 376.431L47.3926 373.989L84.47 396.214L41.8322 378.089C41.9345 377.7 41.97 377.287 41.9139 376.866C41.895 376.719 41.861 376.578 41.8218 376.431ZM48.3 489.449L80.3545 481.505C80.6575 482.24 81.2164 482.832 81.9116 483.176L74.664 505.676L48.0085 490.829C48.1964 490.402 48.3019 489.937 48.3 489.449ZM51.6093 562.088L78.7791 548.116L93.1347 590.989C92.7831 591.171 92.4635 591.413 92.2009 591.699L51.4657 564.513C51.722 563.973 51.8289 563.36 51.7521 562.721C51.7213 562.503 51.6754 562.29 51.6093 562.088ZM157.045 158.092L123.843 88.6321C123.983 88.5371 124.113 88.4321 124.237 88.3222L172.783 127.152C172.437 127.746 172.271 128.452 172.365 129.187C172.473 130.024 172.892 130.751 173.495 131.255L157.045 158.092ZM44.6682 117.562L78.759 67.4445L118.913 85.1015C118.801 85.501 118.771 85.929 118.822 86.3652C118.841 86.5021 118.87 86.6387 118.903 86.7702L45.2925 118.127C45.1142 117.907 44.9011 117.725 44.6682 117.562ZM121.627 82.7403C121.409 82.7711 121.197 82.817 120.995 82.883L99.9895 42.0201L128.905 75.4898L123.507 83.0703C122.946 82.784 122.296 82.6525 121.627 82.7403ZM129.544 76.2269L171.834 125.176L124.829 87.5751C125.176 86.9815 125.341 86.2755 125.247 85.5402C125.147 84.7797 124.795 84.1169 124.279 83.6159L129.544 76.2269ZM156.449 159.063L151.041 167.885C150.532 167.669 149.954 167.576 149.366 167.652C149.321 167.658 149.28 167.669 149.235 167.675L138.394 134.502L124.754 92.7554L156.449 159.063ZM156.942 160.089L163.1 172.969C162.629 173.286 162.254 173.723 162.002 174.227L152.973 171.373C153.022 171.071 153.029 170.761 152.986 170.452C152.879 169.615 152.454 168.893 151.857 168.384L156.942 160.089ZM162.565 177.881L134.426 213.985C134.41 213.981 134.4 213.971 134.389 213.961L149.122 174.032C149.464 174.1 149.826 174.126 150.191 174.076C151.312 173.932 152.226 173.233 152.69 172.285L161.719 175.14C161.67 175.441 161.663 175.752 161.706 176.061C161.79 176.776 162.11 177.399 162.565 177.881ZM43.1145 284.363L95.8725 289.811C95.8797 289.897 95.882 289.988 95.8944 290.08C95.9312 290.333 95.988 290.576 96.0752 290.808L58.4194 311.708L42.1022 286.011C42.5902 285.581 42.9474 285.008 43.1145 284.363ZM96.0183 590.964L114.717 532.024C115.018 532.072 115.329 532.08 115.643 532.041C116.516 531.928 117.257 531.483 117.766 530.845L150.271 549.611L96.8207 591.529C96.586 591.296 96.3117 591.104 96.0183 590.964ZM199.432 576.884L151.967 549.478L164.382 539.74C165.06 540.385 166.014 540.727 167.018 540.601C167.495 540.538 167.938 540.375 168.319 540.131L199.516 576.775C199.492 576.821 199.462 576.852 199.432 576.884ZM163.704 535.977C163.637 536.111 163.579 536.255 163.532 536.399L118.465 528.879C118.466 528.721 118.462 528.569 118.443 528.412C118.337 527.605 117.948 526.908 117.381 526.408L128.295 511.687L163.704 535.977ZM128.075 510.385L86.2446 481.69C86.4481 481.278 86.5588 480.818 86.5673 480.339L154.968 471.595C155.124 472.141 155.41 472.622 155.791 473.004L128.075 510.385ZM147.232 412.087L93.8452 399.518C93.8558 399.329 93.856 399.131 93.8257 398.933C93.7499 398.335 93.5129 397.802 93.1713 397.357L111.545 375.727L161.486 414.991C161.412 415.12 161.345 415.253 161.287 415.397L147.232 412.087ZM133.247 220.012C133.303 220.005 133.363 219.994 133.424 219.982L158.397 292.998C157.97 293.217 157.602 293.531 157.316 293.904L109.833 267.643L131.932 219.902C132.342 220.024 132.785 220.069 133.247 220.012ZM87.0099 359.602C87.905 359.392 88.6387 358.819 89.0677 358.066L110.788 375.146L92.4787 396.708C92.0491 396.408 91.5508 396.212 91.0201 396.144L87.0099 359.602ZM163.799 538.997L151.084 548.965L118.243 530.009C118.268 529.952 118.281 529.896 118.3 529.834L163.372 537.339C163.371 537.496 163.374 537.649 163.394 537.806C163.455 538.242 163.592 538.641 163.799 538.997ZM157.079 297.502L118.192 328.678L100.9 292.352C101.556 291.914 102.032 291.235 102.227 290.468L103.456 290.595L156.636 296.017C156.643 296.103 156.645 296.195 156.657 296.276C156.719 296.722 156.872 297.135 157.079 297.502ZM117.434 329.286L87.3552 353.398C87.2012 353.341 87.0424 353.299 86.884 353.267L96.0379 307.432L98.9447 292.894C99.1332 292.904 99.3264 292.9 99.5191 292.874C99.7016 292.85 99.8787 292.81 100.055 292.759L117.434 329.286ZM117.852 330.171L127.805 351.082C127.06 351.604 126.556 352.435 126.452 353.359L109.891 353.869L88.8578 354.51C88.6894 354.281 88.486 354.077 88.2577 353.9L117.852 330.171ZM111.411 374.418L89.4315 357.141C89.5092 356.789 89.5307 356.422 89.4807 356.047C89.4554 355.844 89.4097 355.641 89.3439 355.45L109.839 354.822L126.48 354.309C126.586 354.886 126.838 355.404 127.194 355.823L111.411 374.418ZM100.874 286.966L109.417 268.508L156.843 294.735C156.8 294.843 156.772 294.956 156.739 295.073L102.331 289.524C102.324 289.438 102.321 289.346 102.309 289.265C102.188 288.286 101.639 287.466 100.874 286.966ZM157.973 298.482L130.673 350.655C130.227 350.508 129.753 350.454 129.256 350.517C129.048 350.548 128.85 350.588 128.659 350.654L118.615 329.557L157.677 298.24C157.771 298.329 157.869 298.403 157.973 298.482ZM130.075 356.937C130.304 356.906 130.521 356.854 130.733 356.778L162.331 414.018C162.242 414.092 162.157 414.16 162.072 414.238L112.158 375L127.912 356.446C128.532 356.848 129.29 357.043 130.075 356.937ZM127.514 511.152L116.585 525.889C116.055 525.642 115.452 525.535 114.823 525.612C114.484 525.656 114.166 525.75 113.874 525.889L85.5012 482.69C85.5758 482.622 85.6504 482.554 85.7146 482.477L127.514 511.152ZM88.1185 397.294L48.4596 373.526L83.5257 358.172C84.071 359.039 85.0111 359.616 86.0606 359.682L90.0644 396.167C89.274 396.299 88.5977 396.717 88.1185 397.294ZM47.463 372.924L2.68188 346.078C2.72996 345.965 2.76789 345.852 2.80579 345.739L83.0317 356.501C83.0347 356.623 83.0426 356.74 83.0558 356.861C83.0747 357.008 83.1038 357.155 83.148 357.297L47.463 372.924ZM85.8558 353.242C85.5364 353.285 85.2334 353.374 84.9514 353.493L58.9276 312.51L96.5381 291.636C96.9165 292.125 97.4242 292.499 98.0093 292.708L85.9165 353.23C85.8965 353.241 85.8761 353.241 85.8558 353.242ZM98.6891 286.455C98.3139 286.505 97.9708 286.615 97.6492 286.776L69.8975 247.305C70.0314 247.165 70.1548 247.014 70.2679 246.854L108.586 268.045L100.014 286.565C99.5943 286.443 99.1506 286.398 98.6891 286.455ZM70.6606 244.011L130.081 218.498C130.33 218.904 130.669 219.246 131.062 219.501L108.992 267.181L70.6842 245.999C70.816 245.568 70.8707 245.104 70.8081 244.627C70.7772 244.409 70.7316 244.207 70.6606 244.011ZM134.947 219.248L216.872 289.768C216.593 290.208 216.418 290.716 216.38 291.256L163.029 295.162C162.669 293.548 161.136 292.447 159.462 292.661C159.407 292.668 159.346 292.679 159.285 292.691L134.312 219.675C134.548 219.553 134.758 219.415 134.947 219.248ZM216.716 292.926L161.556 331.091L160.459 299.051C161.923 298.786 163.002 297.559 163.108 296.112L216.459 292.205C216.517 292.458 216.604 292.7 216.716 292.926ZM160.62 331.73L132.022 351.512C131.87 351.348 131.699 351.204 131.523 351.076L158.813 298.914C159.039 298.989 159.264 299.045 159.509 299.069L160.62 331.73ZM160.663 332.863L163.412 413.488C163.331 413.511 163.245 413.538 163.165 413.571L131.577 356.34C132.496 355.666 133.032 354.529 132.875 353.317C132.826 352.952 132.721 352.614 132.565 352.297L160.663 332.863ZM161.484 418.206L131.509 441.78L93.291 401.175C93.4432 400.952 93.5695 400.715 93.66 400.464L103.796 402.853L161.071 416.334C161.051 416.553 161.057 416.787 161.088 417.015C161.139 417.441 161.281 417.844 161.484 418.206ZM130.755 442.374L85.5615 477.923C85.1604 477.541 84.6551 477.268 84.1075 477.134L91.0614 402.557C91.6596 402.471 92.1979 402.229 92.6367 401.872L130.755 442.374ZM131.408 443.065L155.548 468.712C155.124 469.251 154.866 469.929 154.853 470.652L86.4524 479.396C86.38 479.138 86.2772 478.892 86.1497 478.671L131.408 443.065ZM158.022 473.946L165.733 534.274C165.147 534.441 164.636 534.759 164.239 535.186L128.867 510.92L156.568 473.565C157.006 473.803 157.503 473.939 158.022 473.946ZM198.702 578.84L97.7002 592.952C97.6332 592.709 97.5359 592.478 97.4136 592.262L151.163 550.113L198.944 577.7C198.795 578.054 198.713 578.443 198.702 578.84ZM79.6278 547.672L112.599 530.713C112.91 531.148 113.331 531.498 113.804 531.731L95.1056 590.671C94.8043 590.622 94.4938 590.615 94.1793 590.653C94.1236 590.66 94.0729 590.671 94.0273 590.677L79.6278 547.672ZM79.3255 546.759L71.8675 524.48C72.6813 524.063 73.2887 523.32 73.5262 522.435L112.012 529.16C112.012 529.181 112.018 529.206 112.013 529.232C112.044 529.45 112.09 529.662 112.156 529.864L79.3255 546.759ZM71.5077 518.557L75.207 507.066L112.204 527.675C112.142 527.845 112.095 528.019 112.054 528.198L73.635 521.486C73.6325 521.384 73.6251 521.288 73.6124 521.186C73.4545 519.944 72.6113 518.962 71.5077 518.557ZM75.5047 506.149L82.809 483.464C83.1103 483.512 83.426 483.525 83.7454 483.482C84.0802 483.443 84.3931 483.343 84.685 483.214L112.949 526.528C112.844 526.627 112.75 526.736 112.662 526.85L75.5047 506.149ZM89.8185 402.486C89.9157 402.509 90.0129 402.532 90.1099 402.545L84.99 457.452L83.1641 477.041C83.088 477.048 83.0067 477.05 82.9306 477.057C81.1912 477.278 79.9582 478.844 80.1179 480.575L48.1393 488.501C47.9405 487.865 47.5557 487.32 47.0526 486.931L89.8185 402.486ZM38.2892 374.072C37.6147 374.154 37.0166 374.449 36.5438 374.873L4.74935 348.433L46.391 373.393L41.4391 375.561C40.793 374.529 39.5821 373.902 38.2892 374.072ZM2.72014 343.711L58.0947 312.978L84.1503 354.011C83.6823 354.42 83.3293 354.957 83.1611 355.562L2.93025 344.805C2.92724 344.683 2.91926 344.566 2.90608 344.444C2.86905 344.181 2.8122 343.938 2.72014 343.711ZM1.8493 342.436L38.6196 286.498C39.1549 286.75 39.7627 286.852 40.3916 286.775C40.711 286.732 41.014 286.643 41.2959 286.524L57.5814 312.172L2.26209 342.878C2.13606 342.719 2.00012 342.569 1.8493 342.436ZM42.2337 281.241L66.1178 247.917C66.6794 248.204 67.3286 248.335 68.0081 248.247C68.4187 248.191 68.7971 248.065 69.1436 247.878L96.8793 287.324C96.442 287.741 96.1245 288.273 95.9764 288.867L43.2184 283.419C43.2112 283.333 43.2089 283.242 43.1965 283.15C43.0914 282.395 42.7393 281.732 42.2337 281.241ZM116.605 201.342L130.231 214.877C129.753 215.525 129.514 216.35 129.622 217.207C129.635 217.349 129.669 217.491 129.703 217.622L70.2224 243.157C70.2117 243.136 70.1961 243.122 70.1802 243.097L116.605 201.342ZM117.316 200.709L147.722 173.354C147.877 173.482 148.048 173.595 148.229 173.698L133.501 213.632C133.159 213.564 132.797 213.537 132.432 213.587C131.859 213.657 131.34 213.879 130.911 214.204L117.316 200.709ZM116.638 200.034L82.8571 166.471C83.1231 166.118 83.3166 165.717 83.4281 165.287L96.9489 166.52L146.556 171.043C146.563 171.119 146.564 171.19 146.576 171.271C146.64 171.778 146.824 172.242 147.094 172.647L116.638 200.034ZM82.1636 161.869L91.7938 143.771L146.685 169.905C146.666 169.967 146.652 170.023 146.634 170.085L96.7363 165.533L83.5111 164.323C83.5091 164.242 83.5022 164.166 83.4949 164.079C83.3808 163.167 82.873 162.375 82.1636 161.869ZM92.2412 142.936L120.952 88.9985C121.419 89.165 121.925 89.2288 122.447 89.16C122.492 89.1537 122.533 89.1426 122.579 89.1364L140.11 142.787L148.341 167.967C147.834 168.219 147.416 168.595 147.107 169.056L92.2412 142.936ZM91.3816 142.525L46.0024 120.917C46.0801 120.564 46.1016 120.198 46.0516 119.822C46.0084 119.513 45.93 119.22 45.8061 118.943L119.281 87.646C119.498 88.0018 119.781 88.3102 120.112 88.5563L91.3816 142.525ZM79.3038 66.6425L96.4646 41.4153C97.0636 41.777 97.785 41.9474 98.5354 41.8475C98.6267 41.835 98.7229 41.8174 98.809 41.8L120.151 83.321C119.811 83.5634 119.524 83.8757 119.298 84.2272L79.3038 66.6425ZM142.144 52.7453C142.101 53.0312 142.093 53.3315 142.131 53.6358C142.231 54.3963 142.583 55.0591 143.099 55.5601L129.471 74.6976L100.351 40.9938C100.594 40.7589 100.806 40.4841 100.972 40.185L142.144 52.7453ZM173.945 125.984C173.91 126 173.88 126.031 173.845 126.047L130.115 75.4295L143.87 56.1057C144.432 56.392 145.076 56.5185 145.751 56.4357C145.862 56.4228 145.974 56.3997 146.09 56.3714L173.945 125.984ZM165.157 172.425C164.943 172.41 164.719 172.416 164.496 172.441C164.308 172.461 164.131 172.511 163.954 172.562L157.534 159.123L174.306 131.759C174.337 131.768 174.368 131.788 174.399 131.797L165.157 172.425ZM164.29 411.355L161.589 332.225L217.255 293.717C217.432 293.906 217.63 294.074 217.852 294.216L164.29 411.355ZM157.98 467.482C157.878 467.484 157.781 467.492 157.68 467.505C157.148 467.574 156.659 467.774 156.239 468.059L132.162 442.471L162.071 418.944C162.457 419.311 162.937 419.579 163.459 419.718L157.98 467.482ZM69.3334 524.649C69.7952 524.811 70.2951 524.87 70.8124 524.806C70.8682 524.799 70.9188 524.788 70.9644 524.782L78.4716 547.197L51.1714 561.245C50.9712 560.965 50.7261 560.722 50.4515 560.52L69.3334 524.649ZM47.3201 491.792C47.3747 491.735 47.4292 491.678 47.4838 491.62L74.3661 506.594L70.5719 518.362C70.3835 518.351 70.1903 518.356 69.9874 518.381C69.521 518.444 69.0925 518.602 68.7166 518.83L47.3201 491.792ZM45.128 486.241L39.347 380.45C40.2479 380.265 41.0024 379.712 41.4572 378.973L87.4828 398.535C87.3804 398.925 87.3449 399.338 87.401 399.758C87.533 400.778 88.1235 401.618 88.9343 402.111L46.2269 486.453C45.8623 486.314 45.474 486.242 45.072 486.237L45.128 486.241ZM80.1923 167.737C80.3552 167.743 80.5281 167.739 80.7004 167.714C81.2532 167.645 81.7617 167.434 82.1815 167.128L115.937 200.667L69.5176 242.426C69.212 242.205 68.8772 242.035 68.5134 241.927L80.1923 167.737ZM45.3047 122.328C45.4381 122.167 45.561 121.996 45.6634 121.816L90.9344 143.37L81.3188 161.442C80.8674 161.291 80.3828 161.236 79.8807 161.295C79.3837 161.358 78.9354 161.537 78.5397 161.785L45.3047 122.328ZM50.8592 52.6743L95.1563 39.9318C95.3017 40.2588 95.4922 40.5594 95.7274 40.813L78.4194 66.2574L50.8753 54.1491C50.953 53.7962 50.9745 53.4294 50.9243 53.0441C50.9161 52.9171 50.8927 52.7956 50.8592 52.6743Z" fill="white"/>
</g>
</g>
<defs>
<clipPath id="clip0">
<rect x="442.146" y="331.255" width="442.563" height="480.47" transform="rotate(133.586 442.146 331.255)" fill="white"/>
</clipPath>
</defs>
</svg>
