<svg width="376" height="326" viewBox="0 0 376 326" fill="none" xmlns="http://www.w3.org/2000/svg">
<g clip-path="url(#clip0)">
<path d="M213.04 350.033L237.959 340.629C238.377 341.212 239.115 341.526 239.861 341.368C240.87 341.155 241.514 340.167 241.301 339.158C241.147 338.426 240.583 337.89 239.903 337.73L239.638 302.767C240.599 302.52 241.207 301.557 240.998 300.577C240.785 299.569 239.797 298.925 238.788 299.138C238.506 299.197 238.257 299.321 238.041 299.482L217.116 278.364C217.411 277.952 217.541 277.423 217.429 276.89C217.276 276.169 216.724 275.632 216.052 275.468L219.319 232.286C219.389 232.279 219.462 232.268 219.534 232.257C220.543 232.044 221.187 231.057 220.974 230.048C220.885 229.618 220.648 229.251 220.335 228.993L232.504 208.741C232.84 208.88 233.219 208.925 233.605 208.843C234.614 208.63 235.258 207.642 235.045 206.634C234.947 206.175 234.691 205.793 234.345 205.535L252.865 171.695C253.184 171.814 253.538 171.845 253.895 171.772C254.904 171.559 255.548 170.571 255.335 169.562C255.122 168.553 254.135 167.909 253.126 168.122C252.742 168.201 252.412 168.398 252.161 168.663L231.265 153.969C231.447 153.605 231.514 153.18 231.424 152.75C231.241 151.877 230.476 151.28 229.62 151.27L221.383 90.7708L221.107 90.8088L221.112 90.8082C222.121 90.5953 222.765 89.6077 222.552 88.5989C222.34 87.59 221.352 86.946 220.343 87.1589C220.124 87.2057 219.921 87.292 219.741 87.4024L206.17 72.8376C206.486 72.4211 206.626 71.8788 206.511 71.328C206.4 70.8064 206.081 70.3834 205.662 70.1243L214.826 48.632C215.099 48.7034 215.389 48.7139 215.683 48.6533C216.692 48.4404 217.336 47.4528 217.123 46.444C216.91 45.4351 215.923 44.7911 214.914 45.004C214.461 45.102 214.082 45.3544 213.82 45.6916L189.157 31.9709C189.279 31.6485 189.315 31.2882 189.239 30.9279C189.026 29.919 188.038 29.2751 187.029 29.488C186.104 29.6832 185.489 30.5292 185.557 31.4473L128.21 44.249C127.901 43.3859 126.994 42.8602 126.072 43.058C125.063 43.2709 124.419 44.2585 124.632 45.2674C124.845 46.2762 125.832 46.9202 126.841 46.7073C127.106 46.6498 127.345 46.539 127.55 46.3906L147.18 65.9926C146.873 66.4053 146.738 66.9411 146.852 67.4861C147.043 68.4029 147.88 69.0157 148.788 68.9608L156.022 103.254C155.169 103.571 154.651 104.469 154.845 105.388C155.006 106.152 155.613 106.707 156.334 106.837L155.41 134.523C155.352 134.529 155.297 134.538 155.239 134.55C154.23 134.763 153.586 135.751 153.799 136.759C153.989 137.665 154.812 138.276 155.706 138.237L130.04 208.977C129.796 208.929 129.542 208.927 129.283 208.978C128.274 209.191 127.63 210.178 127.843 211.187C128.056 212.196 129.043 212.84 130.052 212.627C130.424 212.549 130.746 212.362 130.996 212.112L181.333 248.808C181.139 249.179 181.068 249.617 181.159 250.058C181.243 250.462 181.456 250.805 181.743 251.063L167.259 273.11C166.905 272.947 166.499 272.89 166.089 272.974C165.08 273.187 164.436 274.175 164.649 275.184C164.793 275.876 165.305 276.396 165.941 276.585L162.522 300.351C162.398 300.352 162.27 300.366 162.146 300.394C161.138 300.607 160.494 301.594 160.706 302.603C160.919 303.612 161.907 304.256 162.916 304.043C162.979 304.031 163.042 304.012 163.105 303.994L182.343 342.689C181.747 343.103 181.425 343.85 181.584 344.602C181.797 345.611 182.785 346.255 183.794 346.042C184.437 345.906 184.933 345.45 185.15 344.879L209.357 350.178C209.333 350.372 209.34 350.575 209.382 350.78C209.595 351.789 210.583 352.433 211.591 352.22C212.598 352.01 213.237 351.035 213.04 350.033ZM237.782 338.765L221.523 333.133L238.764 302.779C238.873 302.803 238.978 302.819 239.09 302.825L239.114 306.111L239.357 337.687C239.269 337.691 239.179 337.703 239.095 337.721C238.489 337.844 238.019 338.247 237.782 338.765ZM227.841 153.754L224.755 155.416L202.424 144.375L227.758 152.802C227.717 153.031 227.716 153.269 227.768 153.509C227.786 153.592 227.812 153.672 227.841 153.754ZM218.864 89.1396L200.822 95.193C200.614 94.7848 200.265 94.471 199.85 94.3058L202.966 81.0449L218.967 88.333C218.879 88.5869 218.84 88.8592 218.864 89.1396ZM213.585 47.5699L198.629 56.8594L188.39 32.9008C188.583 32.7802 188.755 32.6264 188.893 32.4497L213.555 46.1705C213.433 46.4928 213.4 46.8499 213.474 47.2134C213.502 47.3372 213.538 47.4571 213.585 47.5699ZM171.812 284.524L194.113 322.877C194.037 322.938 193.968 323.005 193.901 323.074L164.211 303.028C164.382 302.671 164.445 302.258 164.356 301.84C164.256 301.364 163.981 300.966 163.611 300.704L171.812 284.524ZM238.245 302.578L220.994 332.951L197.109 324.676C197.155 324.441 197.152 324.194 197.103 323.946C197.085 323.868 197.063 323.791 197.037 323.717L237.86 302.283C237.973 302.401 238.104 302.496 238.245 302.578ZM195.66 326.159C195.784 326.131 195.904 326.094 196.017 326.047L209.982 348.541L191.817 330.662L194.565 326.056C194.901 326.195 195.28 326.24 195.66 326.159ZM191.415 330.268L164.848 304.119L193.596 323.53C193.425 323.887 193.362 324.301 193.451 324.719C193.544 325.151 193.777 325.515 194.096 325.779L191.415 330.268ZM172.109 283.939L174.806 278.62C175.108 278.721 175.444 278.747 175.778 278.676C175.804 278.671 175.827 278.662 175.853 278.657L183.622 297.207L193.398 320.551L172.109 283.939ZM171.778 283.373L167.642 276.261C167.898 276.057 168.093 275.789 168.215 275.487L173.533 276.707C173.519 276.882 173.529 277.061 173.569 277.236C173.669 277.712 173.947 278.107 174.314 278.372L171.778 283.373ZM167.721 273.414L182.205 251.368C182.214 251.37 182.221 251.375 182.227 251.38L175.622 275C175.422 274.977 175.213 274.979 175.005 275.024C174.368 275.16 173.876 275.604 173.653 276.169L168.335 274.95C168.348 274.774 168.338 274.596 168.299 274.42C168.218 274.013 168.005 273.67 167.721 273.414ZM231.38 206.697L200.823 206.022C200.815 205.973 200.81 205.92 200.798 205.868C200.765 205.724 200.721 205.588 200.661 205.459L221.318 191.702L231.885 205.704C231.625 205.973 231.446 206.319 231.38 206.697ZM186.734 33.0495L178.735 67.7737C178.56 67.7598 178.381 67.7699 178.202 67.8065C177.706 67.912 177.301 68.2025 177.039 68.5927L157.495 59.3251L186.247 32.7622C186.393 32.8853 186.559 32.9826 186.734 33.0495ZM127.989 45.9463L156.528 59.4806L149.849 65.6511C149.43 65.3124 148.866 65.1599 148.295 65.2793C148.024 65.3375 147.777 65.452 147.57 65.6095L127.946 46.0127C127.958 45.9849 127.974 45.9656 127.989 45.9463ZM150.413 67.7809C150.446 67.7008 150.472 67.6155 150.493 67.5308L176.729 69.7542C176.735 69.8449 176.744 69.9323 176.763 70.0217C176.861 70.4798 177.117 70.8624 177.466 71.1231L171.881 80.0863L150.413 67.7809ZM172.069 80.8239L197.43 95.3605C197.332 95.6066 197.29 95.8763 197.308 96.1515L158.426 104.355C158.311 104.049 158.124 103.786 157.887 103.584L172.069 80.8239ZM165.637 138.176L196.886 142.913C196.888 143.022 196.898 143.136 196.924 143.248C196.996 143.588 197.156 143.883 197.373 144.123L187.826 157.401L157.314 137.171C157.35 137.094 157.383 137.014 157.409 136.928L165.637 138.176ZM182.602 247.852C182.57 247.858 182.536 247.867 182.501 247.877L164.761 207.099C164.997 206.953 165.194 206.756 165.34 206.528L193.835 219.404L183.362 247.854C183.121 247.802 182.864 247.797 182.602 247.852ZM202.668 165.522C202.164 165.685 201.769 166.048 201.558 166.5L188.287 157.7L197.801 144.463C198.062 144.615 198.357 144.705 198.665 144.72L202.668 165.522ZM150.218 66.0511L157.058 59.7338L176.803 69.0951C176.792 69.1287 176.787 69.1616 176.779 69.1978L150.541 66.9835C150.534 66.8929 150.525 66.8054 150.507 66.716C150.451 66.4685 150.354 66.246 150.218 66.0511ZM165.309 204.451L186.196 184.735L197.817 204.796C197.461 205.078 197.219 205.49 197.143 205.94L196.431 205.924L165.633 205.283C165.625 205.234 165.619 205.181 165.609 205.135C165.552 204.882 165.445 204.651 165.309 204.451ZM186.603 184.35L202.758 169.102C202.85 169.128 202.943 169.144 203.035 169.155L199.909 195.908L198.915 204.394C198.806 204.396 198.696 204.408 198.586 204.432C198.483 204.454 198.383 204.486 198.283 204.523L186.603 184.35ZM186.321 183.861L179.632 172.313C180.036 171.979 180.287 171.478 180.304 170.943L189.792 169.879L201.844 168.533C201.951 168.657 202.077 168.764 202.217 168.856L186.321 183.861ZM187.963 158.147L201.392 167.048C201.363 167.255 201.368 167.466 201.414 167.679C201.438 167.795 201.474 167.909 201.521 168.016L189.778 169.33L180.243 170.398C180.155 170.071 179.987 169.786 179.763 169.562L187.963 158.147ZM198.083 207.889L194.034 218.888L165.573 206.029C165.593 205.965 165.604 205.899 165.617 205.83L197.127 206.487C197.135 206.536 197.141 206.589 197.152 206.635C197.266 207.191 197.62 207.637 198.083 207.889ZM164.75 203.929L178.005 172.692C178.268 172.755 178.543 172.765 178.825 172.705C178.943 172.678 179.055 172.646 179.162 172.599L185.912 184.249L164.931 204.055C164.873 204.008 164.813 203.97 164.75 203.929ZM178.056 169.056C177.926 169.084 177.804 169.124 177.686 169.178L156.874 137.769C156.922 137.723 156.967 137.679 157.012 137.63L187.507 157.847L179.322 169.237C178.946 169.035 178.502 168.959 178.056 169.056ZM172.355 80.3574L177.947 71.3845C178.263 71.5013 178.614 71.5349 178.972 71.4616C179.165 71.4206 179.344 71.3516 179.505 71.2579L197.811 94.7515C197.771 94.794 197.731 94.8365 197.698 94.8842L172.355 80.3574ZM200.279 143.924L224.164 155.732L204.736 166.181C204.382 165.709 203.816 165.421 203.21 165.432L199.213 144.662C199.661 144.549 200.03 144.277 200.279 143.924ZM224.764 156.031L251.734 169.369C251.712 169.436 251.695 169.502 251.679 169.569L205.097 167.119C205.09 167.049 205.08 166.982 205.067 166.913C205.049 166.829 205.026 166.746 204.994 166.667L224.764 156.031ZM203.627 169.122C203.808 169.082 203.978 169.017 204.135 168.936L220.988 191.266L200.356 205.005C200.116 204.741 199.807 204.55 199.461 204.457L203.593 169.131C203.604 169.124 203.615 169.123 203.627 169.122ZM199.361 208.08C199.575 208.034 199.767 207.955 199.944 207.848L217.72 229.228C217.649 229.315 217.585 229.408 217.528 229.505L194.533 219.115L198.595 208.079C198.842 208.129 199.099 208.135 199.361 208.08ZM217.435 231.156L184.491 248.574C184.329 248.352 184.118 248.171 183.881 248.043L194.34 219.63L217.329 230.015C217.273 230.269 217.263 230.538 217.321 230.809C217.349 230.933 217.385 231.047 217.435 231.156ZM181.661 248.37L131.324 211.673C131.464 211.408 131.541 211.108 131.538 210.796L162 206.071C162.282 206.981 163.214 207.543 164.165 207.342C164.197 207.336 164.232 207.326 164.266 207.316L182.006 248.094C181.876 248.176 181.762 248.265 181.661 248.37ZM131.267 209.852L161.176 185.365L163.296 203.718C162.467 203.938 161.905 204.693 161.911 205.529L131.448 210.254C131.404 210.112 131.342 209.977 131.267 209.852ZM161.683 184.955L177.19 172.263C177.285 172.35 177.39 172.424 177.497 172.489L164.248 203.72C164.114 203.687 163.983 203.666 163.841 203.663L161.683 184.955ZM161.606 184.306L156.278 138.124C156.323 138.107 156.371 138.087 156.416 138.065L177.221 169.469C176.725 169.898 176.469 170.577 176.616 171.265C176.661 171.473 176.737 171.662 176.841 171.837L161.606 184.306ZM157.166 135.324L173.287 120.389L197.127 141.936C197.05 142.07 196.988 142.212 196.948 142.361L191.015 141.46L157.49 136.381C157.491 136.254 157.477 136.12 157.449 135.99C157.399 135.748 157.299 135.523 157.166 135.324ZM173.692 120.013L197.998 97.4929C198.246 97.6935 198.549 97.8265 198.869 97.878L198.343 141.038C198.004 141.115 197.706 141.279 197.47 141.504L173.692 120.013ZM173.285 119.647L158.227 106.038C158.445 105.709 158.562 105.307 158.535 104.892L197.417 96.6879C197.471 96.8326 197.541 96.9695 197.625 97.0903L173.285 119.647ZM156.562 103.147L149.327 68.8536C149.656 68.7304 149.935 68.5241 150.143 68.2604L171.589 80.5534L157.415 103.298C157.152 103.181 156.86 103.127 156.562 103.147ZM128.318 44.7887L185.676 31.9858C185.726 32.122 185.792 32.2505 185.873 32.3687L156.959 59.0783L128.232 45.455C128.301 45.2443 128.33 45.0173 128.318 44.7887ZM198.162 57.1534L180.012 68.4282C179.814 68.1929 179.556 68.0109 179.273 67.8995L187.272 33.1753C187.448 33.1892 187.626 33.1791 187.805 33.1425C187.837 33.1362 187.865 33.1272 187.891 33.1216L198.162 57.1534ZM198.378 57.6639L203.698 70.1141C203.25 70.3914 202.936 70.8461 202.841 71.366L180.422 69.2925C180.421 69.2808 180.417 69.2665 180.418 69.2517C180.39 69.1279 180.354 69.008 180.306 68.8951L198.378 57.6639ZM204.18 73.4991L202.59 80.2715L180.381 70.1544C180.409 70.0542 180.427 69.952 180.443 69.8473L202.822 71.916C202.828 71.9743 202.837 72.0294 202.849 72.0871C202.998 72.7933 203.527 73.3178 204.18 73.4991ZM202.461 80.8125L199.321 94.182C199.146 94.1681 198.964 94.1756 198.782 94.2154C198.592 94.2533 198.417 94.3249 198.255 94.4127L180.006 70.8482C180.062 70.7864 180.111 70.7193 180.156 70.6497L202.461 80.8125ZM199.061 141.021C199.004 141.012 198.947 141.003 198.891 141L199.278 109.224L199.416 97.8879C199.459 97.8804 199.506 97.8755 199.549 97.8679C200.538 97.6601 201.173 96.7029 201.001 95.7162L219.001 89.6763C219.144 90.0323 219.391 90.3274 219.698 90.5278L199.061 141.021ZM229.98 154.945C230.364 154.866 230.693 154.669 230.945 154.404L250.437 168.112L225.358 155.712L228.101 154.237C228.521 154.799 229.245 155.103 229.98 154.945ZM251.822 170.73L221.445 190.958L204.571 168.601C204.821 168.344 204.998 168.019 205.067 167.664L251.651 170.111C251.658 170.181 251.668 170.248 251.681 170.317C251.715 170.467 251.759 170.604 251.822 170.73ZM252.382 171.422L233.863 205.262C233.544 205.142 233.19 205.112 232.832 205.185C232.651 205.225 232.481 205.29 232.324 205.372L221.777 191.397L252.124 171.187C252.204 171.273 252.289 171.352 252.382 171.422ZM232.031 208.45L219.862 228.701C219.526 228.563 219.147 228.517 218.761 228.6C218.528 228.651 218.316 228.741 218.126 228.864L200.361 207.497C200.592 207.237 200.75 206.917 200.808 206.569L231.364 207.244C231.373 207.293 231.378 207.346 231.39 207.398C231.485 207.827 231.718 208.191 232.031 208.45ZM193.029 257.801L184.573 250.66C184.817 250.266 184.916 249.781 184.815 249.294C184.8 249.213 184.774 249.133 184.748 249.059L217.726 231.627C217.733 231.638 217.743 231.645 217.753 231.659L193.029 257.801ZM192.65 258.198L176.458 275.324C176.362 275.258 176.259 275.201 176.15 275.151L182.752 251.528C182.952 251.551 183.161 251.55 183.369 251.504C183.695 251.437 183.982 251.286 184.214 251.079L192.65 258.198ZM193.071 258.554L214.035 276.262C213.899 276.477 213.806 276.716 213.762 276.968L205.939 276.889L177.235 276.598C177.227 276.554 177.223 276.514 177.212 276.468C177.152 276.179 177.025 275.922 176.851 275.701L193.071 258.554ZM214.647 278.873L209.958 289.716L177.213 277.257C177.221 277.221 177.227 277.188 177.234 277.152L206.107 277.446L213.759 277.526C213.764 277.572 213.772 277.616 213.78 277.665C213.888 278.184 214.216 278.615 214.647 278.873ZM209.739 290.216L195.756 322.532C195.48 322.459 195.187 322.445 194.891 322.509C194.865 322.515 194.842 322.523 194.816 322.529L182.251 292.528L176.352 278.448C176.632 278.279 176.854 278.044 177.011 277.765L209.739 290.216ZM210.252 290.412L237.323 300.713C237.294 300.919 237.299 301.131 237.345 301.344C237.384 301.52 237.443 301.685 237.527 301.838L196.779 323.232C196.638 323.037 196.461 322.873 196.26 322.747L210.252 290.412ZM220.719 333.437L212.035 348.725C211.674 348.545 211.252 348.481 210.825 348.573C210.773 348.584 210.719 348.599 210.67 348.613L196.481 325.756C196.665 325.601 196.815 325.409 196.928 325.196L220.719 333.437ZM185.27 344.341C185.282 344.175 185.272 344.002 185.236 343.829C185.143 343.397 184.91 343.033 184.591 342.769L191.529 331.143L209.822 349.148C209.693 349.294 209.584 349.462 209.503 349.641L185.27 344.341ZM163.598 303.753C163.618 303.742 163.633 303.723 163.653 303.712L191.125 330.752L184.122 342.492C183.786 342.353 183.411 342.311 183.027 342.389C182.963 342.402 182.901 342.42 182.835 342.442L163.598 303.753ZM166.486 276.669C166.61 276.668 166.738 276.654 166.865 276.629C166.972 276.609 167.071 276.572 167.17 276.535L171.483 283.955L163.122 300.453C163.104 300.449 163.085 300.439 163.067 300.435L166.486 276.669ZM155.872 139.39L161.104 184.716L130.921 209.423C130.81 209.323 130.689 209.236 130.555 209.164L155.872 139.39ZM156.887 106.858C156.945 106.852 157 106.843 157.058 106.831C157.361 106.766 157.632 106.629 157.86 106.445L172.88 120.023L156.794 134.928C156.555 134.735 156.267 134.603 155.961 134.547L156.887 106.858ZM205.146 69.899C204.873 69.8276 204.583 69.8171 204.289 69.8777C204.257 69.884 204.229 69.8929 204.203 69.8986L198.848 57.3725L213.876 48.0342C214.004 48.1857 214.156 48.314 214.323 48.4172L205.146 69.899ZM219.318 87.7478C219.289 87.7832 219.261 87.8187 219.232 87.8541L203.095 80.5038L204.727 73.568C204.836 73.5653 204.946 73.5536 205.062 73.5296C205.327 73.4721 205.565 73.3613 205.771 73.2129L219.318 87.7478ZM220.835 90.8346L229.076 151.331C228.567 151.479 228.159 151.832 227.932 152.277L200.586 143.181C200.627 142.953 200.628 142.714 200.576 142.475C200.453 141.896 200.075 141.441 199.586 141.195L220.194 90.764C220.41 90.8266 220.637 90.8498 220.868 90.8341L220.835 90.8346ZM215.507 275.41C215.413 275.414 215.314 275.425 215.216 275.447C214.902 275.513 214.619 275.658 214.393 275.853L193.444 258.158L218.165 232.013C218.351 232.126 218.551 232.208 218.765 232.253L215.507 275.41ZM237.658 299.87C237.589 299.969 237.526 300.073 237.475 300.181L210.47 289.906L215.153 279.078C215.419 279.145 215.7 279.153 215.985 279.096C216.268 279.037 216.517 278.913 216.733 278.752L237.658 299.87ZM237.706 340.137L212.855 349.516C212.757 349.335 212.633 349.171 212.486 349.037L221.245 333.617L237.629 339.291C237.6 339.497 237.605 339.709 237.652 339.928C237.663 340 237.682 340.069 237.706 340.137Z" fill="#D5A744"/>
</g>
<defs>
<clipPath id="clip0">
<rect y="198.32" width="255.035" height="276.88" transform="rotate(-51.0431 0 198.32)" fill="white"/>
</clipPath>
</defs>
</svg>
