<svg width="481" height="480" viewBox="0 0 481 480" fill="none" xmlns="http://www.w3.org/2000/svg">
<g opacity="0.2">
<g clip-path="url(#clip0)">
<path d="M253.909 451.198L286.667 442.043C287.133 442.832 288.036 443.315 289.004 443.197C290.311 443.04 291.241 441.856 291.084 440.549C290.971 439.6 290.314 438.855 289.467 438.574L293.069 394.069C294.319 393.864 295.201 392.708 295.045 391.438C294.888 390.13 293.704 389.2 292.396 389.357C292.03 389.401 291.7 389.53 291.407 389.711L267.169 360.49C267.591 360 267.815 359.341 267.732 358.65C267.619 357.716 266.977 356.971 266.142 356.686L275.163 302.125C275.252 302.123 275.346 302.118 275.439 302.112C276.747 301.955 277.677 300.772 277.52 299.464C277.454 298.908 277.195 298.414 276.826 298.05L294.587 273.66C294.999 273.874 295.476 273.974 295.976 273.913C297.284 273.756 298.214 272.572 298.057 271.265C297.983 270.671 297.701 270.156 297.29 269.788L324.66 228.829C325.053 229.017 325.499 229.095 325.963 229.042C327.27 228.885 328.2 227.701 328.043 226.394C327.886 225.087 326.702 224.156 325.395 224.313C324.898 224.371 324.456 224.584 324.106 224.893L299.181 203.847C299.454 203.405 299.587 202.871 299.521 202.314C299.386 201.183 298.481 200.337 297.393 200.229L293.73 122.342L293.375 122.359L293.383 122.359C294.69 122.202 295.62 121.018 295.463 119.711C295.306 118.403 294.122 117.473 292.815 117.63C292.531 117.665 292.263 117.752 292.022 117.872L276.4 97.8158C276.848 97.3216 277.087 96.6475 277.004 95.934C276.921 95.2579 276.563 94.684 276.059 94.3071L290.138 68.0002C290.477 68.1216 290.844 68.1678 291.225 68.1238C292.533 67.9666 293.463 66.7829 293.306 65.4756C293.149 64.1683 291.965 63.2379 290.658 63.395C290.071 63.4687 289.56 63.7469 289.188 64.1463L259.363 43.9143C259.554 43.518 259.64 43.0637 259.583 42.5968C259.426 41.2894 258.242 40.359 256.935 40.5162C255.736 40.6602 254.859 41.6672 254.842 42.8427L180.451 52.6664C180.155 51.5337 179.06 50.7627 177.865 50.9104C176.557 51.0676 175.627 52.2513 175.784 53.5586C175.941 54.866 177.125 55.7964 178.432 55.6392C178.776 55.5959 179.092 55.4819 179.37 55.3162L202.132 82.4627C201.695 82.953 201.463 83.6195 201.546 84.3254C201.686 85.5133 202.682 86.387 203.843 86.4195L209.182 130.857C208.061 131.165 207.301 132.248 207.445 133.44C207.563 134.43 208.272 135.203 209.175 135.45L204.881 170.565C204.806 170.566 204.735 170.571 204.66 170.58C203.353 170.737 202.422 171.921 202.579 173.228C202.719 174.401 203.696 175.271 204.839 175.323L164.22 262.416C163.915 262.328 163.593 262.296 163.256 262.332C161.949 262.489 161.019 263.672 161.176 264.98C161.333 266.287 162.517 267.218 163.824 267.06C164.306 267.003 164.737 266.801 165.084 266.511L224.98 318.862C224.692 319.312 224.552 319.861 224.618 320.433C224.679 320.956 224.912 321.416 225.247 321.777L204.339 348.19C203.908 347.943 203.397 347.824 202.867 347.885C201.559 348.043 200.629 349.226 200.786 350.534C200.891 351.43 201.484 352.15 202.271 352.462L195.245 382.309C195.087 382.296 194.923 382.299 194.762 382.321C193.455 382.478 192.524 383.661 192.681 384.969C192.839 386.276 194.022 387.207 195.33 387.049C195.412 387.04 195.494 387.024 195.576 387.008L215.688 438.397C214.883 438.857 214.39 439.771 214.508 440.746C214.665 442.053 215.849 442.983 217.156 442.826C217.989 442.726 218.672 442.201 219.012 441.5L249.208 450.968C249.156 451.212 249.141 451.471 249.172 451.736C249.329 453.043 250.513 453.974 251.82 453.817C253.124 453.663 254.047 452.495 253.909 451.198ZM286.652 439.652L266.605 430.657L291.956 393.987C292.091 394.03 292.223 394.061 292.365 394.081L292.025 398.264L288.776 438.459C288.664 438.453 288.548 438.459 288.44 438.472C287.655 438.56 287.012 439.02 286.652 439.652ZM294.85 203.188L290.737 204.954L263.575 188.393L294.852 201.968C294.774 202.253 294.746 202.557 294.785 202.867C294.798 202.975 294.822 203.08 294.85 203.188ZM290.711 119.983L267.078 125.651C266.859 125.108 266.451 124.669 265.941 124.412L271.4 107.895L290.933 118.969C290.792 119.282 290.712 119.624 290.711 119.983ZM288.679 66.5093L268.607 76.641L258.281 45.0108C258.541 44.8791 258.777 44.7029 258.972 44.4937L288.798 64.7257C288.606 65.122 288.524 65.5725 288.577 66.0432C288.599 66.2038 288.631 66.3604 288.679 66.5093ZM208.845 363.223L232.893 414.522C232.789 414.591 232.693 414.668 232.601 414.748L197.092 385.904C197.35 385.469 197.476 384.95 197.41 384.409C197.336 383.792 197.031 383.255 196.591 382.881L208.845 363.223ZM291.318 393.672L265.952 430.365L236.501 417.148C236.586 416.854 236.61 416.54 236.575 416.218C236.562 416.118 236.541 416.017 236.517 415.92L290.861 393.254C290.991 393.416 291.147 393.552 291.318 393.672ZM234.491 418.87C234.651 418.849 234.808 418.816 234.957 418.769L250.187 448.956L229.094 424.165L233.109 418.617C233.52 418.831 233.998 418.931 234.491 418.87ZM228.628 423.62L197.779 387.363L232.161 415.295C231.903 415.73 231.777 416.248 231.842 416.79C231.912 417.35 232.167 417.84 232.544 418.211L228.628 423.62ZM209.289 362.511L213.318 356.049C213.692 356.211 214.116 356.283 214.549 356.23C214.583 356.226 214.612 356.218 214.646 356.214L222.439 380.686L232.245 411.483L209.289 362.511ZM208.932 361.754L204.472 352.241C204.82 352.01 205.099 351.691 205.287 351.321L211.915 353.472C211.878 353.694 211.871 353.922 211.901 354.15C211.975 354.766 212.284 355.3 212.721 355.678L208.932 361.754ZM204.893 348.629L225.801 322.217C225.812 322.22 225.82 322.228 225.828 322.235L214.764 351.537C214.513 351.485 214.247 351.463 213.978 351.498C213.152 351.598 212.476 352.107 212.129 352.802L205.5 350.651C205.538 350.43 205.545 350.201 205.515 349.974C205.457 349.447 205.225 348.987 204.893 348.629ZM293.387 270.933L254.593 266.631C254.589 266.568 254.587 266.5 254.579 266.433C254.553 266.247 254.513 266.068 254.45 265.896L282.276 250.725L294.142 269.726C293.78 270.04 293.514 270.46 293.387 270.933ZM256.159 45.0135L242.071 88.2833C241.85 88.246 241.621 88.2386 241.389 88.2651C240.747 88.3435 240.199 88.6673 239.821 89.1341L216.005 75.1433L255.571 44.5931C255.743 44.7661 255.944 44.9086 256.159 45.0135ZM179.979 54.8005L214.756 75.2321L205.565 82.329C205.071 81.8509 204.37 81.5934 203.63 81.6809C203.279 81.7244 202.952 81.8422 202.671 82.0192L179.917 54.8802C179.935 54.8462 179.957 54.8233 179.979 54.8005ZM206.043 85.1017C206.094 85.0035 206.137 84.898 206.173 84.7926L239.296 90.5766C239.294 90.6927 239.296 90.805 239.309 90.9208C239.383 91.5146 239.665 92.0301 240.079 92.401L231.966 103.174L206.043 85.1017ZM232.121 104.133L262.744 125.482C262.592 125.784 262.508 126.122 262.499 126.474L212.115 132.529C212.003 132.126 211.795 131.771 211.517 131.487L232.121 104.133ZM217.478 176.364L256.695 185.91C256.686 186.048 256.684 186.194 256.706 186.34C256.758 186.781 256.93 187.174 257.179 187.503L243.537 203.319L207.004 174.148C207.059 174.053 207.11 173.955 207.153 173.849L217.478 176.364ZM226.702 317.788C226.661 317.793 226.616 317.801 226.572 317.809L208.599 263.939C208.915 263.78 209.188 263.551 209.4 263.277L244.197 282.867L227.669 317.877C227.368 317.784 227.042 317.749 226.702 317.788ZM261.503 215.321C260.843 215.471 260.3 215.888 259.98 216.44L244.091 203.751L257.685 187.985C257.999 188.208 258.365 188.355 258.755 188.408L261.503 215.321ZM205.99 82.8794L215.403 75.614L239.465 89.7466C239.447 89.788 239.436 89.8294 239.422 89.8745L206.296 84.1018C206.298 83.9857 206.296 83.8735 206.282 83.7577C206.239 83.4365 206.141 83.1425 205.99 82.8794ZM209.594 260.632L238.385 237.905L250.908 264.733C250.423 265.052 250.068 265.549 249.921 266.113L249.017 266.012L209.913 261.727C209.908 261.663 209.907 261.596 209.898 261.536C209.855 261.207 209.745 260.902 209.594 260.632ZM238.946 237.462L261.214 219.885C261.327 219.928 261.444 219.96 261.56 219.984L254.569 253.663L252.35 264.345C252.211 264.337 252.069 264.339 251.927 264.356C251.792 264.374 251.662 264.402 251.532 264.438L238.946 237.462ZM238.643 236.808L231.435 221.365C231.986 220.985 232.361 220.376 232.443 219.697L244.633 219.413L260.115 219.058C260.237 219.228 260.386 219.379 260.553 219.511L238.643 236.808ZM243.629 204.283L259.707 217.119C259.648 217.378 259.63 217.648 259.665 217.924C259.682 218.074 259.715 218.223 259.762 218.364L244.677 218.713L232.427 218.997C232.353 218.572 232.17 218.19 231.911 217.88L243.629 204.283ZM250.897 268.697L244.508 282.232L209.753 262.669C209.785 262.59 209.806 262.507 209.831 262.42L249.839 266.806C249.844 266.87 249.845 266.937 249.854 266.997C249.937 267.718 250.337 268.325 250.897 268.697ZM208.942 259.906L229.322 221.663C229.649 221.773 229.998 221.816 230.364 221.772C230.517 221.751 230.663 221.722 230.804 221.675L238.078 237.256L209.158 260.085C209.09 260.019 209.018 259.964 208.942 259.906ZM229.796 217.044C229.628 217.065 229.468 217.102 229.312 217.157L206.376 174.858C206.443 174.805 206.506 174.755 206.568 174.698L243.082 203.851L231.386 217.417C230.932 217.118 230.375 216.97 229.796 217.044ZM232.538 103.572L240.662 92.7877C241.051 92.9719 241.494 93.0542 241.957 93.0013C242.207 92.9708 242.442 92.9032 242.657 92.8022L263.297 124.75C263.242 124.799 263.186 124.849 263.139 124.906L232.538 103.572ZM260.897 187.578L289.949 205.289L264.059 216.393C263.663 215.752 262.974 215.322 262.202 215.268L259.458 188.396C260.041 188.304 260.541 188 260.897 187.578ZM290.679 205.737L323.484 225.742C323.448 225.825 323.42 225.908 323.391 225.991L264.413 217.626C264.412 217.536 264.407 217.45 264.398 217.36C264.384 217.252 264.364 217.144 264.332 217.039L290.679 205.737ZM262.317 220.008C262.552 219.978 262.776 219.914 262.984 219.829L281.907 250.132L254.114 265.285C253.838 264.923 253.466 264.644 253.037 264.487L262.272 220.017C262.287 220.009 262.302 220.009 262.317 220.008ZM252.502 269.085C252.778 269.05 253.031 268.971 253.269 268.855L273.472 298.055C273.373 298.158 273.281 298.268 273.197 298.385L245.116 282.578L251.527 268.997C251.836 269.089 252.162 269.125 252.502 269.085ZM272.892 300.475L229.023 318.92C228.842 318.62 228.595 318.366 228.307 318.176L244.813 283.212L272.886 299.012C272.787 299.328 272.744 299.67 272.787 300.021C272.809 300.181 272.841 300.33 272.892 300.475ZM225.447 318.341L165.55 265.99C165.758 265.669 165.89 265.296 165.92 264.899L205.203 262.32C205.459 263.51 206.581 264.329 207.814 264.181C207.855 264.176 207.9 264.168 207.944 264.16L225.917 318.03C225.742 318.119 225.587 318.219 225.447 318.341ZM165.682 263.667L206.487 235.888L207.115 259.473C206.037 259.66 205.236 260.557 205.15 261.621L165.867 264.199C165.827 264.013 165.764 263.834 165.682 263.667ZM207.179 235.423L228.334 221.025C228.444 221.147 228.57 221.253 228.699 221.348L208.326 259.583C208.161 259.526 207.995 259.484 207.815 259.464L207.179 235.423ZM207.153 234.589L205.578 175.243C205.638 175.227 205.701 175.207 205.761 175.183L228.688 217.474C228.008 217.965 227.607 218.799 227.716 219.692C227.75 219.961 227.826 220.21 227.938 220.444L207.153 234.589ZM207.024 171.782L229.213 154.6L257.112 184.694C256.998 184.856 256.904 185.03 256.836 185.215L249.39 183.4L207.317 173.162C207.333 173 207.33 172.828 207.308 172.66C207.273 172.346 207.17 172.049 207.024 171.782ZM229.771 154.167L263.226 128.258C263.519 128.541 263.889 128.744 264.292 128.846L258.76 183.688C258.319 183.748 257.922 183.924 257.597 184.184L229.771 154.167ZM229.294 153.655L211.672 134.647C211.987 134.253 212.181 133.755 212.194 133.224L262.579 127.169C262.63 127.359 262.705 127.541 262.797 127.704L229.294 153.655ZM209.881 130.782L204.541 86.3439C204.973 86.2242 205.351 85.9932 205.645 85.6812L231.541 103.735L210.948 131.07C210.627 130.892 210.262 130.79 209.881 130.782ZM180.527 53.3651L254.932 43.5411C254.98 43.7199 255.05 43.8909 255.139 44.0503L215.351 74.769L180.343 54.2029C180.454 53.9427 180.517 53.6572 180.527 53.3651ZM267.98 76.9624L243.622 89.2598C243.396 88.9381 243.088 88.6776 242.741 88.5039L256.829 45.2341C257.05 45.2715 257.279 45.2788 257.51 45.2523C257.551 45.2479 257.589 45.2397 257.622 45.2354L267.98 76.9624ZM268.197 77.6362L273.562 94.0729C272.961 94.3751 272.51 94.9181 272.33 95.5687L244.046 90.4054C244.046 90.3904 244.042 90.3718 244.045 90.353C244.024 90.1924 243.991 90.0358 243.944 89.8869L268.197 77.6362ZM273.794 98.4331L271.008 106.869L243.896 91.4971C243.943 91.3728 243.978 91.245 244.01 91.1134L272.245 96.2663C272.246 96.3412 272.251 96.4122 272.26 96.4869C272.369 97.4021 272.984 98.1289 273.794 98.4331ZM270.783 107.543L265.282 124.195C265.061 124.158 264.829 124.147 264.593 124.177C264.347 124.204 264.116 124.275 263.9 124.369L243.342 92.3376C243.419 92.2651 243.489 92.1853 243.555 92.1019L270.783 107.543ZM259.674 183.748C259.603 183.73 259.531 183.713 259.46 183.703L263.533 143.325L264.985 128.92C265.041 128.916 265.101 128.915 265.157 128.91C266.439 128.757 267.355 127.611 267.247 126.336L290.824 120.681C290.966 121.15 291.247 121.553 291.615 121.843L259.674 183.748ZM297.437 204.944C297.933 204.887 298.375 204.673 298.726 204.364L321.976 223.998L291.471 205.398L295.127 203.831C295.597 204.594 296.484 205.061 297.437 204.944ZM323.443 227.483L282.523 249.792L263.576 219.452C263.923 219.154 264.186 218.76 264.313 218.316L323.295 226.677C323.296 226.767 323.301 226.853 323.31 226.943C323.336 227.137 323.377 227.316 323.443 227.483ZM324.077 228.427L296.707 269.387C296.315 269.199 295.868 269.12 295.405 269.173C295.169 269.204 294.946 269.267 294.738 269.353L282.896 250.389L323.776 228.099C323.867 228.217 323.967 228.328 324.077 228.427ZM294.018 273.236L276.257 297.626C275.845 297.412 275.368 297.311 274.868 297.372C274.565 297.411 274.286 297.502 274.03 297.638L253.839 268.456C254.163 268.151 254.399 267.761 254.512 267.325L293.306 271.627C293.311 271.691 293.312 271.758 293.32 271.825C293.394 272.382 293.649 272.871 294.018 273.236ZM238.845 331.62L228.893 321.583C229.248 321.11 229.429 320.504 229.354 319.873C229.345 319.768 229.321 319.664 229.297 319.567L273.21 301.106C273.218 301.121 273.229 301.132 273.241 301.151L238.845 331.62ZM238.318 332.082L215.791 352.043C215.677 351.948 215.552 351.864 215.42 351.788L226.479 322.482C226.731 322.534 226.997 322.555 227.266 322.521C227.688 322.472 228.071 322.312 228.389 322.075L238.318 332.082ZM238.813 332.582L263.486 357.469C263.289 357.727 263.144 358.021 263.059 358.337L253.116 357.355L216.636 353.75C216.632 353.694 216.631 353.642 216.622 353.582C216.578 353.209 216.445 352.867 216.249 352.567L238.813 332.582ZM263.971 360.859L256.784 374.124L216.535 354.587C216.549 354.542 216.559 354.5 216.573 354.455L253.267 358.082L262.993 359.046C262.994 359.106 262.999 359.162 263.004 359.225C263.082 359.898 263.452 360.483 263.971 360.859ZM256.45 374.736L235.022 414.269C234.679 414.144 234.308 414.094 233.923 414.142C233.889 414.146 233.859 414.154 233.826 414.158L221.223 374.58L215.305 356.004C215.68 355.822 215.99 355.547 216.22 355.21L256.45 374.736ZM257.08 375.043L290.354 391.196C290.295 391.455 290.277 391.725 290.312 392.002C290.342 392.229 290.398 392.446 290.488 392.65L236.244 415.273C236.086 415.01 235.88 414.782 235.638 414.599L257.08 375.043ZM265.547 430.952L252.778 449.421C252.339 449.151 251.809 449.022 251.256 449.091C251.189 449.1 251.118 449.113 251.055 449.125L235.58 418.451C235.832 418.275 236.045 418.047 236.212 417.789L265.547 430.952ZM219.225 440.83C219.259 440.619 219.267 440.398 219.24 440.174C219.171 439.614 218.915 439.124 218.538 438.753L228.674 424.745L249.916 449.71C249.735 449.881 249.578 450.082 249.454 450.301L219.225 440.83ZM196.23 386.757C196.256 386.745 196.278 386.722 196.304 386.711L228.204 424.203L217.974 438.347C217.562 438.133 217.089 438.037 216.592 438.094C216.51 438.103 216.428 438.119 216.342 438.139L196.23 386.757ZM202.955 352.63C203.113 352.642 203.277 352.639 203.442 352.622C203.58 352.608 203.711 352.572 203.841 352.536L208.491 362.461L195.997 382.505C195.974 382.498 195.951 382.484 195.929 382.477L202.955 352.63ZM204.92 176.807L206.469 235.054L165.291 263.083C165.161 262.943 165.017 262.818 164.854 262.712L204.92 176.807ZM209.876 135.539C209.951 135.538 210.022 135.533 210.097 135.524C210.489 135.476 210.849 135.331 211.16 135.124L228.736 154.088L206.595 171.235C206.313 170.963 205.962 170.763 205.578 170.657L209.876 135.539ZM275.428 93.9623C275.089 93.8409 274.721 93.7948 274.34 93.8387C274.299 93.8432 274.262 93.8513 274.228 93.8556L268.828 77.3184L288.996 67.1327C289.142 67.3398 289.321 67.5201 289.522 67.6701L275.428 93.9623ZM291.445 118.264C291.404 118.306 291.364 118.347 291.323 118.389L271.624 107.221L274.481 98.5823C274.62 98.5911 274.762 98.5887 274.912 98.5712C275.255 98.5279 275.571 98.4139 275.849 98.2482L291.445 118.264ZM293.027 122.361L296.694 200.244C296.03 200.376 295.471 200.778 295.133 201.319L261.371 186.668C261.449 186.382 261.477 186.078 261.438 185.768C261.347 185.018 260.917 184.396 260.323 184.028L292.22 122.199C292.487 122.303 292.772 122.358 293.068 122.364L293.027 122.361ZM265.454 356.552C265.334 356.546 265.207 356.549 265.08 356.566C264.673 356.614 264.298 356.766 263.987 356.989L239.333 332.12L273.725 301.648C273.948 301.812 274.194 301.939 274.461 302.021L265.454 356.552ZM290.876 390.162C290.777 390.279 290.685 390.404 290.609 390.537L257.414 374.424L264.59 361.178C264.922 361.292 265.278 361.335 265.648 361.295C266.014 361.251 266.345 361.122 266.637 360.941L290.876 390.162ZM286.401 441.389L253.733 450.52C253.627 450.278 253.489 450.056 253.317 449.868L266.195 431.24L286.398 440.303C286.338 440.563 286.321 440.833 286.355 441.116C286.361 441.21 286.377 441.299 286.401 441.389Z" fill="white"/>
</g>
</g>
<defs>
<clipPath id="clip0">
<rect y="234.209" width="325.689" height="353.586" transform="rotate(-45.9819 0 234.209)" fill="white"/>
</clipPath>
</defs>
</svg>
