<svg width="1051" height="900" viewBox="0 0 1051 900" fill="none" xmlns="http://www.w3.org/2000/svg">
<g clip-path="url(#clip0)">
<path d="M746.09 1061.38L843.634 1035.35C844.991 1037.71 847.654 1039.17 850.529 1038.86C854.415 1038.44 857.217 1034.95 856.797 1031.07C856.492 1028.25 854.57 1026.02 852.066 1025.15L864.303 893.187C868.022 892.623 870.68 889.22 870.26 885.446C869.839 881.56 866.358 878.757 862.472 879.178C861.384 879.295 860.398 879.667 859.523 880.194L788.601 792.624C789.871 791.184 790.56 789.236 790.338 787.182C790.034 784.407 788.156 782.173 785.685 781.298L814.358 619.674C814.624 619.673 814.902 619.66 815.179 619.647C819.065 619.226 821.868 615.746 821.447 611.86C821.271 610.206 820.519 608.732 819.435 607.639L872.999 535.867C874.214 536.516 875.626 536.831 877.114 536.667C880.999 536.246 883.802 532.765 883.381 528.88C883.183 527.115 882.363 525.575 881.158 524.471L963.816 403.855C964.974 404.426 966.298 404.675 967.674 404.534C971.56 404.113 974.363 400.632 973.942 396.746C973.521 392.861 970.04 390.058 966.154 390.479C964.678 390.631 963.359 391.25 962.309 392.155L889.063 328.824C889.889 327.52 890.302 325.94 890.127 324.286C889.764 320.922 887.107 318.382 883.883 318.021L875.722 86.7266L874.667 86.7656L874.689 86.7655C878.575 86.3446 881.377 82.8636 880.956 78.978C880.535 75.0925 877.054 72.2898 873.169 72.7108C872.325 72.8042 871.527 73.0529 870.807 73.4012L825.138 13.331C826.485 11.8796 827.219 9.88724 826.996 7.76679C826.774 5.75741 825.732 4.04131 824.248 2.90522L866.95 -74.6834C867.952 -74.3112 869.041 -74.1615 870.174 -74.2787C874.059 -74.6996 876.862 -78.1806 876.441 -82.0662C876.02 -85.9518 872.539 -88.7544 868.654 -88.3334C866.911 -88.1351 865.382 -87.3272 864.267 -86.1548L776.448 -147.241C777.03 -148.41 777.301 -149.756 777.149 -151.144C776.728 -155.029 773.247 -157.832 769.361 -157.411C765.798 -157.025 763.159 -154.067 763.066 -150.579L541.935 -124.01C541.095 -127.383 537.872 -129.709 534.32 -129.312C530.434 -128.891 527.631 -125.41 528.052 -121.525C528.473 -117.639 531.954 -114.836 535.84 -115.257C536.861 -115.374 537.804 -115.701 538.634 -116.183L605.246 -34.8211C603.932 -33.381 603.221 -31.411 603.443 -29.3128C603.818 -25.7824 606.742 -23.1545 610.186 -23.0177L624.487 109.059C621.148 109.932 618.855 113.122 619.241 116.663C619.556 119.605 621.635 121.927 624.305 122.69L610.339 226.76C610.117 226.761 609.906 226.774 609.684 226.797C605.798 227.218 602.996 230.699 603.417 234.585C603.791 238.07 606.66 240.688 610.049 240.88L486.463 497.96C485.561 497.687 484.606 497.581 483.606 497.675C479.721 498.096 476.918 501.577 477.339 505.463C477.76 509.348 481.241 512.151 485.126 511.73C486.559 511.578 487.844 510.993 488.884 510.143L664.834 667.604C663.964 668.931 663.528 670.555 663.704 672.254C663.868 673.808 664.542 675.182 665.525 676.265L602.552 753.93C601.281 753.182 599.768 752.812 598.192 752.976C594.306 753.397 591.504 756.878 591.925 760.764C592.206 763.428 593.939 765.585 596.266 766.539L574.372 854.878C573.906 854.836 573.417 854.839 572.939 854.897C569.054 855.318 566.251 858.799 566.672 862.685C567.093 866.57 570.574 869.373 574.46 868.952C574.704 868.928 574.948 868.883 575.192 868.837L633.096 1022.06C630.692 1023.4 629.196 1026.09 629.512 1028.99C629.933 1032.88 633.414 1035.68 637.299 1035.26C639.775 1034.99 641.822 1033.45 642.855 1031.38L732.145 1060.54C731.982 1061.26 731.93 1062.03 732.012 1062.81C732.433 1066.7 735.914 1069.5 739.8 1069.08C743.674 1068.67 746.455 1065.24 746.09 1061.38ZM843.674 1028.25L784.485 1000.86L861.003 892.905C861.403 893.036 861.793 893.134 862.215 893.198L861.06 905.601L850.02 1024.79C849.686 1024.76 849.342 1024.78 849.02 1024.81C846.689 1025.05 844.763 1026.39 843.674 1028.25ZM876.233 326.716L863.963 331.815L783.924 281.717L876.28 323.095C876.04 323.94 875.945 324.84 876.05 325.762C876.085 326.084 876.153 326.394 876.233 326.716ZM866.841 79.621L796.502 95.6199C795.871 94.0015 794.676 92.6861 793.172 91.9056L809.947 43.0721L867.536 76.618C867.108 77.5423 866.858 78.5545 866.841 79.621ZM862.671 -79.1591L802.746 -49.7867L773.199 -144.024C773.975 -144.406 774.683 -144.921 775.268 -145.535L863.087 -84.4487C862.505 -83.2792 862.245 -81.9449 862.386 -80.5461C862.444 -80.0687 862.536 -79.6027 862.671 -79.1591ZM615.402 798.704L684.99 951.798C684.68 952 684.393 952.224 684.116 952.458L579.729 865.613C580.511 864.331 580.902 862.796 580.727 861.187C580.528 859.355 579.642 857.749 578.347 856.623L615.402 798.704ZM859.12 891.949L782.559 999.968L695.608 959.716C695.87 958.849 695.954 957.915 695.86 956.96C695.825 956.66 695.768 956.361 695.7 956.072L857.78 890.69C858.161 891.176 858.618 891.585 859.12 891.949ZM689.581 964.759C690.059 964.701 690.525 964.609 690.968 964.474L735.123 1054.6L673.381 980.287L685.489 963.959C686.704 964.608 688.116 964.922 689.581 964.759ZM672.017 978.65L581.719 869.968L682.792 954.065C682.01 955.347 681.619 956.882 681.794 958.492C681.981 960.157 682.722 961.619 683.828 962.735L672.017 978.65ZM616.746 796.609L628.928 777.57C630.031 778.064 631.287 778.29 632.575 778.15C632.675 778.138 632.763 778.116 632.863 778.104L655.141 851.009L683.175 942.755L616.746 796.609ZM615.711 794.348L602.805 765.959C603.846 765.287 604.685 764.349 605.257 763.257L624.854 769.872C624.736 770.528 624.706 771.206 624.787 771.883C624.986 773.715 625.883 775.309 627.167 776.446L615.711 794.348ZM604.181 755.254L667.154 677.589C667.188 677.6 667.21 677.622 667.232 677.644L633.377 764.227C632.632 764.065 631.843 763.991 631.043 764.084C628.59 764.353 626.565 765.841 625.51 767.891L605.913 761.277C606.031 760.621 606.061 759.943 605.98 759.266C605.827 757.7 605.153 756.327 604.181 755.254ZM869.534 527.733L754.543 513.615C754.531 513.426 754.53 513.226 754.507 513.026C754.437 512.471 754.323 511.939 754.143 511.429L837.26 467.368L871.814 524.177C870.731 525.094 869.926 526.331 869.534 527.733ZM766.901 -144.09L723.583 -16.1557C722.927 -16.2744 722.249 -16.304 721.561 -16.2337C719.651 -16.0234 718.012 -15.0814 716.875 -13.7089L646.676 -56.0621L765.172 -145.358C765.675 -144.839 766.266 -144.409 766.901 -144.09ZM540.459 -117.693L642.967 -55.8421L615.442 -35.0985C613.99 -36.5347 611.92 -37.3232 609.721 -37.0892C608.678 -36.9724 607.702 -36.634 606.861 -36.1184L540.271 -117.459C540.326 -117.559 540.393 -117.626 540.459 -117.693ZM616.764 -26.8523C616.918 -27.1419 617.05 -27.4537 617.159 -27.7653L715.266 -9.44581C715.256 -9.10142 715.258 -8.76817 715.293 -8.42401C715.492 -6.65888 716.311 -5.11929 717.528 -4.00393L693.073 27.6868L616.764 -26.8523ZM693.499 30.5393L783.646 94.9675C783.185 95.8586 782.923 96.8598 782.885 97.9041L633.134 114.122C632.817 112.924 632.211 111.861 631.396 111.01L693.499 30.5393ZM647.525 244.41L763.588 274.107C763.557 274.518 763.549 274.951 763.606 275.384C763.747 276.694 764.242 277.869 764.969 278.853L723.932 325.319L616.518 237.468C616.683 237.19 616.837 236.9 616.968 236.588L647.525 244.41ZM669.983 664.477C669.861 664.489 669.727 664.512 669.594 664.535L618.127 504.023C619.069 503.562 619.888 502.891 620.527 502.088L723.122 561.439L672.85 664.773C671.96 664.489 670.993 664.372 669.983 664.477ZM776.836 361.567C774.873 361.989 773.246 363.209 772.277 364.836L725.561 326.621L766.455 280.301C767.38 280.973 768.46 281.423 769.616 281.594L776.836 361.567ZM616.684 -33.4501L644.873 -54.686L715.797 -11.9036C715.742 -11.7811 715.709 -11.6587 715.665 -11.5252L617.548 -29.8113C617.557 -30.1557 617.555 -30.4889 617.52 -30.8331C617.404 -31.7877 617.121 -32.6638 616.684 -33.4501ZM621.196 494.242L707.436 427.792L743.671 507.853C742.221 508.783 741.151 510.244 740.693 511.912L738.015 511.583L622.102 497.503C622.09 497.314 622.089 497.114 622.066 496.937C621.949 495.96 621.633 495.051 621.196 494.242ZM709.117 426.495L775.821 375.103C776.155 375.234 776.5 375.332 776.845 375.408L754.924 475.123L747.964 506.752C747.552 506.721 747.13 506.723 746.708 506.77C746.309 506.817 745.92 506.897 745.532 506.999L709.117 426.495ZM708.24 424.545L687.385 378.459C689.034 377.35 690.168 375.555 690.435 373.543L726.623 373.125L772.586 372.61C772.944 373.119 773.38 373.572 773.871 373.969L708.24 424.545ZM724.169 328.184L771.444 366.84C771.259 367.607 771.197 368.407 771.29 369.229C771.337 369.673 771.429 370.117 771.564 370.538L726.779 371.047L690.413 371.466C690.206 370.201 689.678 369.06 688.917 368.131L724.169 328.184ZM743.501 519.617L724.067 559.568L621.595 500.294C621.694 500.06 621.759 499.815 621.836 499.559L740.427 513.969C740.439 514.158 740.44 514.358 740.463 514.535C740.686 516.678 741.851 518.493 743.501 519.617ZM619.285 492.064L681.102 379.27C682.07 379.609 683.104 379.748 684.192 379.631C684.647 379.573 685.08 379.493 685.501 379.357L706.547 425.853L619.921 492.605C619.72 492.406 619.508 492.241 619.285 492.064ZM682.672 365.576C682.172 365.635 681.695 365.737 681.229 365.895L614.629 239.556C614.829 239.399 615.017 239.254 615.205 239.086L722.563 326.882L687.377 366.739C686.039 365.836 684.392 365.378 682.672 365.576ZM694.756 28.8885L719.245 -2.83579C720.392 -2.2755 721.704 -2.01598 723.081 -2.1567C723.825 -2.23848 724.523 -2.4311 725.166 -2.7234L785.312 92.8146C785.146 92.9599 784.98 93.1052 784.837 93.2726L694.756 28.8885ZM776.002 279.205L861.614 332.783L784.385 364.837C783.231 362.921 781.202 361.622 778.913 361.434L771.705 281.583C773.436 281.329 774.931 280.444 776.002 279.205ZM863.765 334.137L960.434 394.653C960.324 394.898 960.237 395.143 960.149 395.388L785.394 368.508C785.392 368.242 785.38 367.986 785.356 367.72C785.321 367.398 785.264 367.076 785.173 366.765L863.765 334.137ZM779.089 375.507C779.788 375.426 780.454 375.244 781.075 374.997L836.184 465.596L753.166 509.601C752.361 508.517 751.268 507.679 749.999 507.197L778.956 375.53C779 375.508 779.045 375.507 779.089 375.507ZM748.251 520.825C749.072 520.731 749.826 520.505 750.535 520.168L809.482 607.537C809.184 607.838 808.908 608.162 808.654 608.508L725.861 560.613L745.361 520.529C746.274 520.813 747.241 520.93 748.251 520.825ZM807.677 614.7L676.833 667.917C676.306 667.02 675.58 666.258 674.732 665.685L724.938 562.484L807.709 610.357C807.403 611.292 807.264 612.303 807.381 613.347C807.439 613.824 807.53 614.268 807.677 614.7ZM666.237 666.075L490.286 508.614C490.914 507.666 491.319 506.564 491.424 505.386L608.103 499.101C608.822 502.64 612.124 505.11 615.787 504.713C615.909 504.701 616.043 504.678 616.176 504.655L667.643 665.168C667.122 665.426 666.657 665.717 666.237 666.075ZM490.76 501.724L612.833 420.696L613.879 490.716C610.671 491.233 608.264 493.868 607.97 497.024L491.29 503.31C491.176 502.755 490.996 502.223 490.76 501.724ZM614.903 419.34L678.192 377.342C678.516 377.707 678.885 378.027 679.264 378.314L617.469 491.085C616.979 490.91 616.489 490.78 615.956 490.716L614.903 419.34ZM614.856 416.863L612.247 240.668C612.425 240.623 612.613 240.566 612.791 240.499L679.368 366.816C677.332 368.249 676.112 370.711 676.404 373.364C676.498 374.163 676.713 374.906 677.039 375.604L614.856 416.863ZM616.657 230.447L683.112 180.223L764.869 270.512C764.527 270.991 764.241 271.504 764.033 272.049L741.997 266.403L617.479 234.553C617.532 234.075 617.53 233.564 617.471 233.064C617.377 232.132 617.084 231.245 616.657 230.447ZM684.783 178.959L784.98 103.225C785.84 104.075 786.932 104.692 788.122 105.007L769.796 267.586C768.486 267.748 767.3 268.255 766.327 269.015L684.783 178.959ZM683.386 177.422L631.746 120.394C632.695 119.234 633.287 117.765 633.345 116.187L783.096 99.9691C783.243 100.535 783.457 101.078 783.727 101.565L683.386 177.422ZM626.563 108.859L612.263 -23.2177C613.549 -23.5579 614.679 -24.2305 615.562 -25.1462L691.793 29.3378L629.723 109.753C628.775 109.214 627.696 108.897 626.563 108.859ZM542.135 -121.934L763.311 -148.503C763.447 -147.97 763.65 -147.46 763.908 -146.984L644.748 -57.1958L541.56 -119.454C541.9 -120.222 542.096 -121.068 542.135 -121.934ZM800.874 -48.8546L728.153 -13.2035C727.492 -14.1663 726.588 -14.9501 725.564 -15.4778L768.882 -143.412C769.538 -143.293 770.215 -143.264 770.904 -143.334C771.026 -143.346 771.137 -143.369 771.237 -143.38L800.874 -48.8546ZM801.496 -46.8474L816.846 2.12325C815.051 2.99938 813.694 4.59524 813.137 6.51995L729.371 -9.7888C729.371 -9.83325 729.36 -9.88872 729.37 -9.94431C729.312 -10.4217 729.221 -10.8877 729.085 -11.3313L801.496 -46.8474ZM817.383 15.0726L808.82 40.0123L728.889 -6.55372C729.031 -6.92102 729.14 -7.29929 729.238 -7.68859L812.86 8.58756C812.861 8.80974 812.873 9.02074 812.897 9.24282C813.189 11.9627 814.989 14.1413 817.383 15.0726ZM808.131 42.0044L791.224 91.2385C790.568 91.1199 789.879 91.0792 789.18 91.1607C788.447 91.2314 787.759 91.435 787.117 91.7051L727.214 -4.07863C727.446 -4.29096 727.656 -4.52529 727.854 -4.77076L808.131 42.0044ZM772.507 267.793C772.296 267.739 772.085 267.685 771.874 267.652L785.366 147.955L790.178 105.252C790.345 105.24 790.522 105.239 790.689 105.227C794.497 104.817 797.256 101.448 796.98 97.6613L867.152 81.6966C867.56 83.094 868.377 84.3003 869.46 85.172L772.507 267.793ZM883.848 332.018C885.325 331.866 886.643 331.247 887.694 330.342L956.018 389.423L866.126 333.158L877.032 328.634C878.399 330.914 881.017 332.333 883.848 332.018ZM960.251 399.82L838.023 464.609L782.846 373.898C783.885 373.026 784.679 371.867 785.072 370.554L959.838 397.423C959.839 397.689 959.852 397.945 959.876 398.211C959.945 398.788 960.059 399.321 960.251 399.82ZM962.099 402.642L879.441 523.258C878.282 522.687 876.959 522.438 875.582 522.579C874.883 522.661 874.217 522.842 873.597 523.09L839.11 466.391L961.216 401.658C961.485 402.012 961.775 402.344 962.099 402.642ZM871.326 534.588L817.762 606.359C816.548 605.71 815.136 605.396 813.648 605.559C812.749 605.664 811.917 605.924 811.153 606.317L752.24 519.004C753.213 518.11 753.928 516.962 754.277 515.671L869.267 529.789C869.28 529.978 869.281 530.178 869.304 530.378C869.502 532.032 870.243 533.494 871.326 534.588ZM705.542 705.952L676.354 675.818C677.423 674.423 677.98 672.632 677.781 670.756C677.757 670.445 677.689 670.134 677.621 669.846L808.598 616.584C808.62 616.628 808.654 616.661 808.687 616.717L705.542 705.952ZM703.961 707.304L636.407 765.766C636.072 765.479 635.704 765.225 635.314 764.994L669.158 678.4C669.903 678.563 670.693 678.637 671.492 678.543C672.746 678.414 673.888 677.953 674.84 677.259L703.961 707.304ZM705.413 708.807L777.777 783.529C777.181 784.287 776.741 785.156 776.48 786.091L747.003 782.829L638.856 770.862C638.844 770.696 638.843 770.54 638.82 770.363C638.703 769.253 638.32 768.233 637.748 767.336L705.413 708.807ZM779.098 793.608L757.304 832.727L638.525 773.341C638.569 773.208 638.601 773.085 638.645 772.952L747.426 784.993L776.258 788.192C776.259 788.369 776.271 788.536 776.283 788.725C776.494 790.723 777.57 792.472 779.098 793.608ZM756.292 834.532L691.318 951.12C690.305 950.736 689.205 950.576 688.061 950.704C687.961 950.716 687.873 950.738 687.773 950.75L651.744 832.843L634.826 777.505C635.945 776.977 636.874 776.172 637.568 775.179L756.292 834.532ZM758.152 835.466L856.348 884.566C856.163 885.333 856.101 886.133 856.194 886.955C856.275 887.632 856.434 888.275 856.693 888.885L694.911 954.144C694.452 953.358 693.848 952.672 693.134 952.121L758.152 835.466ZM781.335 1001.7L742.795 1056.07C741.502 1055.25 739.934 1054.85 738.291 1055.04C738.091 1055.06 737.88 1055.1 737.692 1055.13L692.83 963.553C693.582 963.038 694.223 962.368 694.73 961.61L781.335 1001.7ZM643.51 1029.4C643.618 1028.78 643.648 1028.12 643.578 1027.46C643.391 1025.79 642.65 1024.33 641.544 1023.21L672.113 981.993L734.291 1056.83C733.749 1057.33 733.274 1057.92 732.9 1058.57L643.51 1029.4ZM577.143 868.115C577.221 868.082 577.287 868.015 577.365 867.981L670.738 980.368L639.882 1021.99C638.668 1021.34 637.267 1021.04 635.79 1021.19C635.546 1021.21 635.302 1021.26 635.047 1021.32L577.143 868.115ZM598.29 767.061C598.757 767.103 599.246 767.1 599.734 767.053C600.145 767.017 600.533 766.915 600.922 766.813L614.379 796.433L576.597 855.488C576.53 855.467 576.464 855.422 576.397 855.401L598.29 767.061ZM610.239 245.289L612.809 418.219L489.617 499.975C489.237 499.555 488.813 499.18 488.334 498.86L610.239 245.289ZM626.384 122.978C626.606 122.977 626.817 122.965 627.039 122.942C628.205 122.813 629.28 122.396 630.21 121.791L681.716 178.686L615.404 228.81C614.578 227.992 613.542 227.387 612.407 227.06L626.384 122.978ZM822.388 1.85999C821.386 1.48771 820.296 1.33815 819.164 1.45535C819.042 1.4671 818.931 1.48991 818.831 1.50156L803.379 -47.7685L863.592 -77.2979C864.018 -76.6781 864.543 -76.1366 865.134 -75.6844L822.388 1.85999ZM869.08 74.5435C868.958 74.6664 868.837 74.7892 868.715 74.9121L810.636 41.0799L819.418 15.5392C819.829 15.5702 820.251 15.5679 820.695 15.5211C821.717 15.4045 822.659 15.0773 823.489 14.5951L869.08 74.5435ZM873.634 86.7601L881.806 318.044C879.831 318.41 878.16 319.585 877.136 321.179L777.442 276.52C777.682 275.674 777.777 274.774 777.672 273.853C777.427 271.621 776.173 269.762 774.423 268.649L871.243 86.2509C872.033 86.5688 872.878 86.742 873.756 86.7705L873.634 86.7601ZM783.65 780.876C783.294 780.855 782.917 780.857 782.539 780.904C781.329 781.033 780.209 781.472 779.28 782.121L706.972 707.455L810.106 618.209C810.764 618.705 811.489 619.09 812.279 619.341L783.65 780.876ZM857.931 881.513C857.633 881.859 857.357 882.228 857.126 882.618L759.164 833.639L780.925 794.576C781.904 794.926 782.96 795.064 784.059 794.959C785.147 794.842 786.134 794.47 787.009 793.943L857.931 881.513ZM842.868 1033.4L745.59 1059.36C745.286 1058.64 744.883 1057.98 744.38 1057.42L783.25 1002.57L842.895 1030.18C842.711 1030.95 842.648 1031.75 842.742 1032.59C842.754 1032.87 842.8 1033.13 842.868 1033.4Z" fill="white"/>
</g>
<defs>
<clipPath id="clip0">
<rect x="0.0419312" y="408.528" width="966.708" height="1049.51" transform="rotate(-45.3102 0.0419312 408.528)" fill="white"/>
</clipPath>
</defs>
</svg>
