<svg width="452" height="404" viewBox="0 0 452 404" fill="none" xmlns="http://www.w3.org/2000/svg">
<g clip-path="url(#clip0)">
<path d="M216.22 -21.025L185.304 -12.9533C184.879 -13.7021 184.038 -14.1697 183.128 -14.0748C181.897 -13.9482 181.004 -12.8513 181.131 -11.6209C181.222 -10.7279 181.827 -10.0178 182.618 -9.74007L178.519 32.0037C177.341 32.176 176.494 33.2482 176.621 34.4435C176.747 35.674 177.844 36.5669 179.074 36.4403C179.419 36.4052 179.732 36.2892 180.01 36.124L202.305 63.9602C201.901 64.4137 201.68 65.0289 201.746 65.6793C201.838 66.5582 202.428 67.2683 203.209 67.5496L193.857 118.652C193.773 118.652 193.685 118.655 193.597 118.659C192.367 118.785 191.474 119.882 191.6 121.113C191.653 121.636 191.889 122.104 192.23 122.452L175.155 145.075C174.771 144.867 174.325 144.765 173.854 144.815C172.623 144.941 171.73 146.038 171.857 147.268C171.917 147.827 172.173 148.316 172.553 148.668L146.186 186.699C145.821 186.516 145.402 186.435 144.966 186.478C143.736 186.604 142.843 187.701 142.97 188.931C143.096 190.162 144.193 191.055 145.423 190.928C145.891 190.882 146.309 190.689 146.643 190.404L169.716 210.573C169.452 210.984 169.319 211.484 169.371 212.008C169.48 213.073 170.317 213.881 171.337 214.001L173.523 287.216L173.857 287.205L173.85 287.205C172.62 287.332 171.727 288.429 171.853 289.659C171.98 290.89 173.077 291.783 174.307 291.656C174.575 291.628 174.828 291.551 175.056 291.442L189.407 310.531C188.978 310.988 188.742 311.617 188.809 312.289C188.876 312.925 189.203 313.47 189.67 313.832L176.023 338.315C175.706 338.195 175.362 338.146 175.003 338.181C173.773 338.308 172.88 339.404 173.007 340.635C173.133 341.865 174.23 342.758 175.46 342.632C176.012 342.572 176.497 342.319 176.853 341.95L204.541 361.433C204.355 361.802 204.267 362.227 204.313 362.667C204.439 363.897 205.536 364.79 206.766 364.664C207.895 364.548 208.735 363.616 208.77 362.512L278.8 354.483C279.061 355.551 280.077 356.293 281.201 356.174C282.432 356.047 283.325 354.95 283.198 353.72C283.072 352.489 281.975 351.596 280.744 351.723C280.421 351.758 280.122 351.86 279.859 352.011L258.916 326.147C259.335 325.694 259.563 325.072 259.496 324.407C259.384 323.289 258.463 322.452 257.373 322.403L253.073 280.579C254.132 280.308 254.863 279.302 254.747 278.181C254.652 277.249 253.998 276.511 253.154 276.265L257.753 243.352C257.823 243.352 257.89 243.349 257.96 243.342C259.191 243.215 260.084 242.118 259.957 240.888C259.844 239.784 258.941 238.951 257.869 238.884L297.422 157.734C297.707 157.822 298.009 157.857 298.326 157.829C299.556 157.703 300.449 156.606 300.323 155.375C300.196 154.145 299.099 153.252 297.869 153.378C297.415 153.424 297.007 153.607 296.677 153.874L241.261 103.739C241.539 103.32 241.68 102.807 241.627 102.269C241.578 101.777 241.367 101.341 241.057 100.997L261.121 76.5248C261.521 76.7638 262 76.8834 262.499 76.8342C263.729 76.7076 264.622 75.6107 264.496 74.3803C264.411 73.5366 263.866 72.851 263.132 72.5452L270.212 44.6246C270.36 44.6386 270.514 44.6386 270.665 44.6211C271.896 44.4945 272.789 43.3976 272.662 42.1672C272.536 40.9367 271.439 40.0438 270.208 40.1704C270.131 40.1774 270.054 40.1915 269.976 40.2055L251.913 -8.38657C252.676 -8.80492 253.154 -9.6557 253.059 -10.5733C252.933 -11.8037 251.836 -12.6967 250.606 -12.5701C249.822 -12.4892 249.171 -12.0076 248.841 -11.3537L220.632 -20.7332C220.685 -20.9618 220.702 -21.2043 220.678 -21.4539C220.551 -22.6844 219.454 -23.5773 218.224 -23.4508C216.997 -23.3277 216.111 -22.2449 216.22 -21.025ZM185.279 -10.7068L203.965 -1.93553L179.563 32.0986C179.437 32.0565 179.314 32.0248 179.18 32.0037L179.567 28.0803L183.265 -9.62053C183.37 -9.61352 183.479 -9.61703 183.581 -9.62757C184.32 -9.69788 184.931 -10.1197 185.279 -10.7068ZM173.773 211.262L177.665 209.67L202.91 225.662L173.752 212.408C173.829 212.141 173.861 211.856 173.829 211.565C173.819 211.463 173.798 211.364 173.773 211.262ZM176.322 289.48L198.61 284.537C198.807 285.05 199.183 285.469 199.658 285.718L194.265 301.145L176.097 290.429C176.234 290.137 176.315 289.817 176.322 289.48ZM177.369 339.738L196.385 330.545L205.575 360.42C205.329 360.54 205.104 360.702 204.917 360.895L177.229 341.412C177.415 341.043 177.499 340.621 177.457 340.178C177.44 340.027 177.412 339.879 177.369 339.738ZM257.13 62.3325L235.369 13.7615C235.468 13.6982 235.559 13.6279 235.647 13.554L268.535 41.218C268.285 41.6223 268.159 42.1074 268.212 42.6172C268.271 43.1973 268.549 43.707 268.957 44.0656L257.13 62.3325ZM180.157 32.4045L204.573 -1.65075L232.022 11.2373C231.938 11.5115 231.91 11.8068 231.938 12.1092C231.948 12.2041 231.966 12.299 231.987 12.3904L180.579 32.8053C180.46 32.6506 180.315 32.5205 180.157 32.4045ZM233.938 9.65177C233.787 9.66934 233.639 9.69747 233.499 9.73966L219.679 -18.8594L239.092 4.76512L235.232 9.91192C234.849 9.7045 234.402 9.60256 233.938 9.65177ZM239.521 5.28544L267.913 39.8364L236.069 13.0478C236.318 12.6435 236.445 12.1584 236.392 11.6486C236.336 11.1213 236.104 10.6572 235.756 10.3022L239.521 5.28544ZM256.702 62.9934L252.813 68.998C252.465 68.8398 252.068 68.7659 251.66 68.8081C251.629 68.8116 251.6 68.8187 251.569 68.8222L244.643 45.7109L235.928 16.6266L256.702 62.9934ZM257.025 63.7106L261.061 72.7174C260.73 72.9284 260.463 73.2237 260.28 73.5682L254.089 71.4413C254.128 71.2339 254.139 71.0194 254.114 70.805C254.054 70.2249 253.773 69.7187 253.369 69.3566L257.025 63.7106ZM260.607 76.1029L240.544 100.575C240.533 100.571 240.526 100.564 240.519 100.557L251.383 73.2131C251.618 73.2659 251.868 73.2905 252.121 73.2623C252.898 73.1815 253.541 72.7139 253.879 72.0671L260.069 74.194C260.031 74.4014 260.02 74.6158 260.045 74.8303C260.091 75.326 260.301 75.7619 260.607 76.1029ZM176.237 147.655L212.606 152.32C212.609 152.38 212.609 152.443 212.616 152.507C212.637 152.682 212.673 152.851 212.729 153.013L186.348 166.815L175.51 148.777C175.854 148.488 176.111 148.098 176.237 147.655ZM207.568 360.452L221.497 320.037C221.704 320.076 221.919 320.086 222.137 320.065C222.741 320.002 223.262 319.707 223.624 319.274L245.768 332.799L208.113 360.856C207.955 360.691 207.768 360.554 207.568 360.452ZM279.278 352.486L246.942 332.735L255.689 326.218C256.146 326.675 256.8 326.928 257.496 326.857C257.827 326.822 258.136 326.717 258.403 326.555L279.338 352.412C279.321 352.444 279.3 352.465 279.278 352.486ZM255.285 323.606C255.236 323.697 255.193 323.795 255.158 323.894L224.14 317.928C224.144 317.819 224.144 317.713 224.133 317.604C224.074 317.045 223.817 316.557 223.434 316.202L231.228 306.214L255.285 323.606ZM231.098 305.311L202.678 284.766C202.826 284.484 202.91 284.168 202.924 283.837L250.345 278.961C250.444 279.341 250.634 279.679 250.89 279.949L231.098 305.311ZM246.014 237.703L209.333 228.105C209.343 227.975 209.347 227.838 209.329 227.701C209.287 227.286 209.132 226.914 208.904 226.601L221.971 211.965L255.816 239.953C255.763 240.041 255.714 240.132 255.671 240.23L246.014 237.703ZM239.626 104.72C239.665 104.716 239.707 104.709 239.75 104.702L255.763 155.59C255.464 155.734 255.204 155.945 255 156.198L222.632 137.239L238.719 104.621C239.001 104.713 239.307 104.751 239.626 104.72ZM205.29 200.403C205.912 200.273 206.429 199.889 206.738 199.376L221.458 211.55L208.436 226.14C208.145 225.926 207.804 225.781 207.438 225.725L205.29 200.403ZM255.299 325.694L246.341 332.366L223.968 318.705C223.986 318.666 223.996 318.627 224.01 318.585L255.032 324.541C255.028 324.65 255.028 324.755 255.039 324.864C255.074 325.166 255.162 325.444 255.299 325.694ZM254.775 158.68L227.368 179.562L216.037 154.162C216.498 153.871 216.839 153.41 216.986 152.883L217.834 152.992L254.494 157.646C254.497 157.706 254.497 157.769 254.504 157.826C254.539 158.135 254.638 158.423 254.775 158.68ZM226.833 179.97L205.635 196.121C205.529 196.078 205.42 196.047 205.311 196.022L212.42 164.502L214.677 154.503C214.807 154.514 214.94 154.514 215.074 154.5C215.2 154.486 215.323 154.461 215.446 154.43L226.833 179.97ZM227.108 180.589L233.629 195.21C233.105 195.558 232.743 196.124 232.655 196.761L221.201 196.831L206.654 196.915C206.542 196.753 206.404 196.609 206.25 196.483L227.108 180.589ZM221.901 211.058L207.006 198.743C207.065 198.501 207.086 198.248 207.058 197.987C207.044 197.847 207.016 197.706 206.974 197.573L221.149 197.488L232.659 197.418C232.722 197.819 232.887 198.181 233.126 198.476L221.901 211.058ZM216.111 150.439L222.33 137.829L254.659 156.764C254.627 156.838 254.606 156.915 254.582 156.996L217.074 152.232C217.071 152.173 217.071 152.109 217.064 152.053C216.997 151.375 216.631 150.798 216.111 150.439ZM255.376 159.373L235.619 194.964C235.313 194.855 234.986 194.809 234.641 194.845C234.497 194.862 234.36 194.887 234.227 194.929L227.645 180.178L255.176 159.2C255.239 159.264 255.306 159.316 255.376 159.373ZM235.098 199.295C235.257 199.278 235.408 199.246 235.555 199.197L256.417 239.295C256.353 239.345 256.294 239.39 256.234 239.443L222.407 211.473L233.611 198.919C234.033 199.207 234.553 199.355 235.098 199.295ZM230.697 305.831L222.892 315.829C222.53 315.65 222.115 315.565 221.68 315.608C221.444 315.632 221.222 315.692 221.019 315.783L202.147 285.444C202.2 285.398 202.253 285.353 202.298 285.3L230.697 305.831ZM205.413 226.471L178.41 209.367L202.906 199.355C203.269 199.963 203.908 200.378 204.633 200.441L206.777 225.725C206.229 225.803 205.754 226.08 205.413 226.471ZM177.731 208.935L147.241 189.617C147.276 189.54 147.304 189.462 147.332 189.385L202.594 198.191C202.594 198.276 202.597 198.357 202.604 198.441C202.615 198.543 202.632 198.645 202.66 198.743L177.731 208.935ZM204.601 195.987C204.379 196.012 204.168 196.068 203.972 196.145L186.686 167.377L213.035 153.593C213.288 153.937 213.632 154.205 214.033 154.359L204.643 195.98C204.629 195.987 204.615 195.987 204.601 195.987ZM214.61 150.049C214.35 150.077 214.111 150.148 213.886 150.253L195.38 122.501C195.475 122.406 195.562 122.304 195.643 122.195L221.764 137.495L215.524 150.148C215.235 150.056 214.93 150.018 214.61 150.049ZM195.963 120.237L237.464 103.619C237.63 103.904 237.858 104.147 238.125 104.329L222.059 136.905L195.946 121.612C196.044 121.317 196.09 120.997 196.055 120.666C196.037 120.515 196.009 120.374 195.963 120.237ZM240.815 104.22L296.231 154.356C296.03 154.655 295.9 155.003 295.865 155.375L258.927 157.165C258.705 156.043 257.665 155.256 256.505 155.375C256.466 155.379 256.424 155.386 256.382 155.393L240.368 104.505C240.533 104.424 240.681 104.333 240.815 104.22ZM296.069 156.535L257.296 181.971L257.085 159.808C258.101 159.65 258.867 158.821 258.966 157.822L295.904 156.033C295.939 156.209 295.995 156.377 296.069 156.535ZM256.638 182.396L236.536 195.579C236.434 195.463 236.318 195.361 236.199 195.27L255.949 159.685C256.104 159.742 256.259 159.784 256.427 159.805L256.638 182.396ZM256.649 183.18L257.173 238.947C257.116 238.961 257.057 238.979 257 239L236.146 198.909C236.793 198.459 237.183 197.682 237.095 196.841C237.067 196.588 237 196.353 236.898 196.131L256.649 183.18ZM255.759 242.175L234.641 257.956L208.922 229.241C209.031 229.09 209.122 228.928 209.189 228.756L216.153 230.58L255.506 240.874C255.489 241.025 255.489 241.187 255.506 241.345C255.534 241.64 255.626 241.921 255.759 242.175ZM234.111 258.353L202.27 282.15C201.999 281.879 201.655 281.682 201.279 281.58L207.357 230.158C207.772 230.109 208.148 229.951 208.457 229.712L234.111 258.353ZM234.55 258.842L250.795 276.979C250.493 277.344 250.303 277.808 250.282 278.307L202.861 283.184C202.815 283.004 202.748 282.832 202.664 282.677L234.55 258.842ZM252.416 280.638L256.716 322.463C256.308 322.568 255.949 322.779 255.668 323.068L231.636 305.694L251.418 280.35C251.716 280.522 252.057 280.624 252.416 280.638ZM278.741 353.825L208.697 361.855C208.654 361.686 208.591 361.524 208.51 361.373L246.376 333.161L278.927 353.041C278.818 353.284 278.755 353.551 278.741 353.825ZM196.979 330.253L220.055 319.095C220.263 319.401 220.547 319.651 220.871 319.819L206.942 360.234C206.735 360.195 206.52 360.185 206.302 360.206C206.264 360.21 206.229 360.217 206.197 360.22L196.979 330.253ZM196.786 329.617L192.012 314.092C192.581 313.818 193.014 313.315 193.193 312.707L219.676 318.012C219.676 318.026 219.679 318.044 219.676 318.061C219.693 318.213 219.721 318.36 219.764 318.501L196.786 329.617ZM191.864 309.993L194.617 302.115L219.834 316.989C219.788 317.105 219.753 317.225 219.721 317.348L193.284 312.053C193.284 311.983 193.281 311.916 193.274 311.846C193.186 310.985 192.62 310.292 191.864 309.993ZM194.838 301.486L200.273 285.933C200.481 285.971 200.699 285.985 200.92 285.961C201.152 285.94 201.37 285.877 201.574 285.792L220.368 316.209C220.294 316.276 220.228 316.349 220.164 316.427L194.838 301.486ZM206.499 230.088C206.566 230.106 206.633 230.123 206.7 230.134L202.224 267.993L200.628 281.5C200.576 281.503 200.519 281.503 200.467 281.507C199.261 281.63 198.382 282.691 198.463 283.89L176.227 288.823C176.1 288.38 175.844 287.996 175.503 287.719L206.499 230.088ZM171.372 209.571C170.904 209.617 170.486 209.81 170.152 210.095L148.63 191.28L176.983 209.241L173.523 210.654C173.094 209.93 172.268 209.476 171.372 209.571ZM147.308 187.982L186.102 167.687L203.409 196.49C203.079 196.764 202.826 197.13 202.699 197.545L147.434 188.742C147.434 188.657 147.431 188.576 147.424 188.492C147.403 188.309 147.368 188.14 147.308 187.982ZM146.728 187.086L173.094 149.054C173.46 149.237 173.878 149.318 174.314 149.276C174.536 149.251 174.747 149.195 174.944 149.118L185.761 167.121L147.005 187.399C146.921 187.286 146.83 187.181 146.728 187.086ZM175.682 145.483L192.757 122.86C193.14 123.067 193.587 123.169 194.058 123.12C194.343 123.088 194.606 123.008 194.849 122.884L213.344 150.619C213.035 150.9 212.806 151.262 212.694 151.67L176.325 147.005C176.322 146.945 176.322 146.882 176.315 146.818C176.255 146.295 176.023 145.831 175.682 145.483ZM228.443 91.5327L237.63 101.12C237.289 101.559 237.109 102.125 237.169 102.719C237.176 102.818 237.197 102.916 237.218 103.008L195.675 119.64C195.668 119.626 195.657 119.615 195.647 119.597L228.443 91.5327ZM228.946 91.1073L250.426 72.7209C250.532 72.8123 250.648 72.8932 250.771 72.967L239.911 100.315C239.676 100.262 239.426 100.237 239.173 100.265C238.776 100.304 238.414 100.448 238.111 100.666L228.946 91.1073ZM228.489 90.6292L205.715 66.857C205.905 66.6179 206.046 66.3437 206.13 66.0484L215.453 67.1312L249.66 71.1038C249.663 71.1565 249.663 71.2057 249.67 71.262C249.706 71.6135 249.825 71.937 250.004 72.2217L228.489 90.6292ZM205.315 63.6649L212.279 51.3217L249.769 70.3198C249.755 70.362 249.744 70.4007 249.73 70.4429L215.323 66.4457L206.204 65.384C206.204 65.3277 206.201 65.275 206.197 65.2152C206.134 64.5824 205.796 64.027 205.315 63.6649ZM212.602 50.7522L233.365 13.9654C233.685 14.0884 234.033 14.1411 234.395 14.1025C234.427 14.0989 234.455 14.0919 234.487 14.0884L245.687 51.4659L250.947 69.0085C250.592 69.1738 250.296 69.4269 250.075 69.7397L212.602 50.7522ZM212.015 50.4534L181.022 34.7458C181.082 34.5033 181.103 34.2502 181.075 33.99C181.05 33.7755 181.001 33.5717 180.92 33.3783L232.233 13.0021C232.377 13.2517 232.567 13.4697 232.792 13.6454L212.015 50.4534ZM204.963 -2.19568L217.253 -19.3376C217.661 -19.0774 218.157 -18.9473 218.677 -19.0036C218.741 -19.0106 218.807 -19.0211 218.867 -19.0317L232.908 10.0279C232.669 10.1897 232.465 10.4006 232.304 10.6396L204.963 -2.19568ZM248.63 -10.7279C248.595 -10.5311 248.584 -10.3237 248.605 -10.1127C248.661 -9.58538 248.893 -9.12134 249.242 -8.76625L239.496 4.22725L219.946 -19.5626C220.119 -19.7208 220.27 -19.9071 220.389 -20.111L248.63 -10.7279ZM269.358 40.4305C269.333 40.4411 269.312 40.4622 269.287 40.4727L239.929 4.74403L249.765 -8.37605C250.149 -8.16862 250.592 -8.07018 251.059 -8.11588C251.136 -8.12291 251.214 -8.13698 251.295 -8.15456L269.358 40.4305ZM262.492 72.3764C262.344 72.3624 262.189 72.3624 262.035 72.3764C261.905 72.387 261.782 72.4186 261.659 72.4503L257.45 63.0532L269.509 44.4277C269.53 44.4347 269.551 44.4488 269.572 44.4558L262.492 72.3764ZM257.816 237.488L257.299 182.755L296.427 157.091C296.547 157.224 296.681 157.344 296.832 157.446L257.816 237.488ZM252.497 276.17C252.427 276.17 252.36 276.174 252.29 276.181C251.92 276.219 251.579 276.349 251.284 276.539L235.081 258.445L256.153 242.695C256.413 242.955 256.74 243.148 257.099 243.254L252.497 276.17ZM190.257 314.166C190.574 314.286 190.918 314.335 191.277 314.3C191.316 314.296 191.351 314.289 191.382 314.286L196.188 329.905L177.081 339.148C176.947 338.951 176.782 338.779 176.596 338.635L190.257 314.166ZM175.605 291.083C175.643 291.044 175.682 291.006 175.721 290.967L194.044 301.774L191.221 309.842C191.091 309.832 190.957 309.832 190.816 309.846C190.493 309.881 190.194 309.983 189.93 310.134L175.605 291.083ZM174.184 287.209L171.994 213.997C172.62 213.885 173.151 213.516 173.478 213.013L204.952 227.318C204.875 227.585 204.843 227.87 204.875 228.162C204.949 228.868 205.343 229.459 205.895 229.814L174.94 287.374C174.691 287.272 174.423 287.216 174.146 287.205L174.184 287.209ZM203.852 67.6867C203.965 67.6937 204.084 67.6937 204.204 67.6796C204.587 67.641 204.942 67.5038 205.237 67.2999L227.993 91.0546L195.2 119.123C194.993 118.965 194.764 118.842 194.515 118.761L203.852 67.6867ZM180.516 35.7091C180.611 35.6001 180.699 35.4841 180.772 35.3611L211.692 51.0299L204.738 63.3555C204.429 63.243 204.095 63.1973 203.747 63.2289C203.402 63.2641 203.089 63.3801 202.812 63.5453L180.516 35.7091ZM185.543 -12.3346L216.375 -20.3852C216.469 -20.1567 216.596 -19.9457 216.754 -19.7664L204.358 -2.47692L185.529 -11.315C185.589 -11.5576 185.61 -11.8107 185.582 -12.0779C185.578 -12.1658 185.564 -12.2502 185.543 -12.3346Z" fill="#D5A744"/>
</g>
<defs>
<clipPath id="clip0">
<rect x="451.212" y="186.871" width="305.952" height="332.158" transform="rotate(135 451.212 186.871)" fill="white"/>
</clipPath>
</defs>
</svg>
