<svg width="308" height="209" viewBox="0 0 308 209" fill="none" xmlns="http://www.w3.org/2000/svg">
<g opacity="0.3">
<g clip-path="url(#clip0)">
<path d="M144.252 -80.6037L123.306 -74.5791C123.003 -75.0826 122.423 -75.3873 121.803 -75.3072C120.966 -75.2002 120.376 -74.4372 120.483 -73.6003C120.56 -72.9929 120.985 -72.5189 121.529 -72.3428L119.436 -43.8087C118.636 -43.6714 118.076 -42.926 118.183 -42.1131C118.29 -41.2761 119.053 -40.6857 119.89 -40.7927C120.124 -40.8225 120.335 -40.9069 120.522 -41.0242L136.194 -22.4181C135.926 -22.102 135.785 -21.6788 135.842 -21.2364C135.919 -20.6386 136.334 -20.1643 136.871 -19.9857L131.354 15.0184C131.297 15.0198 131.237 15.0237 131.177 15.0276C130.34 15.1346 129.75 15.8975 129.857 16.7345C129.901 17.0907 130.07 17.4056 130.308 17.6372L119.046 33.3511C118.781 33.2161 118.475 33.1541 118.154 33.1956C117.317 33.3026 116.727 34.0656 116.834 34.9025C116.884 35.2826 117.067 35.6115 117.332 35.8449L99.9929 62.2223C99.7406 62.1038 99.4539 62.0558 99.1574 62.0919C98.3205 62.1989 97.73 62.9619 97.8371 63.7988C97.9441 64.6357 98.707 65.2261 99.5439 65.1191C99.862 65.0801 100.144 64.9412 100.367 64.7414L116.44 78.106C116.267 78.3909 116.184 78.7336 116.229 79.0899C116.321 79.8144 116.905 80.3517 117.603 80.4161L120.326 130.305L120.554 130.292L120.549 130.292C119.712 130.399 119.122 131.162 119.229 131.999C119.336 132.836 120.099 133.426 120.936 133.319C121.117 133.295 121.289 133.238 121.443 133.16L131.55 145.936C131.265 146.255 131.115 146.688 131.172 147.145C131.228 147.577 131.46 147.943 131.785 148.182L122.891 165.107C122.673 165.031 122.438 165.003 122.194 165.033C121.357 165.14 120.766 165.903 120.873 166.74C120.98 167.577 121.743 168.167 122.58 168.06C122.956 168.01 123.282 167.829 123.518 167.572L142.727 180.391C142.606 180.646 142.553 180.937 142.592 181.236C142.699 182.073 143.462 182.664 144.299 182.557C145.066 182.459 145.624 181.809 145.629 181.056L193.247 174.401C193.443 175.126 194.148 175.615 194.913 175.514C195.75 175.407 196.34 174.644 196.233 173.807C196.126 172.97 195.363 172.38 194.526 172.487C194.306 172.516 194.104 172.591 193.927 172.698L179.211 155.414C179.489 155.098 179.634 154.67 179.578 154.218C179.482 153.457 178.84 152.902 178.096 152.887L174.46 124.439C175.177 124.237 175.659 123.539 175.561 122.776C175.48 122.143 175.022 121.65 174.442 121.497L177.024 98.9759C177.072 98.9748 177.117 98.9712 177.165 98.9653C178.002 98.8582 178.592 98.0953 178.485 97.2583C178.39 96.5075 177.76 95.9546 177.028 95.9271L202.633 39.9252C202.829 39.9803 203.036 39.9992 203.251 39.9747C204.088 39.8677 204.678 39.1047 204.571 38.2678C204.464 37.4309 203.701 36.8404 202.864 36.9474C202.556 36.9862 202.281 37.1178 202.06 37.3055L163.428 4.05111C163.61 3.76116 163.697 3.4088 163.652 3.04291C163.611 2.70812 163.459 2.41441 163.243 2.18468L176.512 -14.8404C176.789 -14.6842 177.117 -14.6107 177.457 -14.6527C178.294 -14.7597 178.884 -15.5227 178.777 -16.3596C178.705 -16.9335 178.322 -17.3918 177.816 -17.588L182.174 -36.7462C182.275 -36.7391 182.38 -36.7417 182.483 -36.7563C183.32 -36.8633 183.911 -37.6263 183.804 -38.4632C183.697 -39.3001 182.934 -39.8905 182.097 -39.7835C182.044 -39.7774 181.992 -39.7665 181.939 -39.7556L168.804 -72.5865C169.317 -72.8846 169.629 -73.4728 169.549 -74.0969C169.441 -74.9338 168.679 -75.5242 167.842 -75.4172C167.308 -75.3489 166.873 -75.0095 166.659 -74.558L147.265 -80.479C147.297 -80.6357 147.305 -80.8014 147.284 -80.9712C147.177 -81.8081 146.414 -82.3986 145.577 -82.2916C144.743 -82.187 144.157 -81.4337 144.252 -80.6037ZM123.327 -73.0469L136.216 -67.3803L120.15 -43.7616C120.063 -43.7882 119.978 -43.8077 119.887 -43.8198L120.085 -46.5017L121.972 -72.2722C122.044 -72.2692 122.118 -72.2734 122.187 -72.2823C122.69 -72.3427 123.1 -72.6406 123.327 -73.0469ZM119.218 78.5076L121.845 77.3561L139.329 87.8362L119.223 79.2894C119.271 79.106 119.288 78.9112 119.261 78.7128C119.252 78.6435 119.236 78.5767 119.218 78.5076ZM122.273 131.801L137.388 128.056C137.531 128.402 137.795 128.681 138.122 128.843L134.705 139.453L122.135 132.452C122.224 132.251 122.274 132.032 122.273 131.801ZM123.833 166.055L136.645 159.466L143.415 179.683C143.249 179.769 143.098 179.883 142.974 180.018L123.765 167.198C123.886 166.944 123.937 166.654 123.901 166.353C123.886 166.25 123.864 166.15 123.833 166.055ZM173.552 -24.451L157.895 -57.2052C157.961 -57.25 158.022 -57.2995 158.081 -57.3513L180.973 -39.041C180.81 -38.7611 180.732 -38.4281 180.776 -38.0814C180.827 -37.6869 181.025 -37.3439 181.309 -37.1063L173.552 -24.451ZM120.56 -43.563L136.636 -67.1963L155.571 -58.8701C155.518 -58.6817 155.503 -58.4798 155.528 -58.2741C155.536 -58.2096 155.55 -58.1452 155.566 -58.0832L120.854 -43.2968C120.77 -43.4003 120.67 -43.4866 120.56 -43.563ZM156.85 -59.9835C156.748 -59.969 156.647 -59.9473 156.552 -59.9162L146.647 -79.1853L160.282 -63.4025L157.737 -59.8279C157.472 -59.9629 157.166 -60.0249 156.85 -59.9835ZM160.584 -63.0549L180.526 -39.9726L158.36 -57.7036C158.524 -57.9835 158.602 -58.3165 158.557 -58.6632C158.51 -59.0218 158.344 -59.3344 158.101 -59.5706L160.584 -63.0549ZM173.271 -23.9931L170.72 -19.8331C170.48 -19.9351 170.208 -19.9788 169.931 -19.9432C169.909 -19.9402 169.89 -19.9349 169.869 -19.932L164.757 -35.575L158.325 -55.2608L173.271 -23.9931ZM173.503 -23.5095L176.407 -17.4357C176.185 -17.2863 176.008 -17.0804 175.889 -16.8424L171.632 -18.1885C171.655 -18.3306 171.658 -18.477 171.638 -18.6228C171.587 -19.0174 171.387 -19.3578 171.105 -19.5979L173.503 -23.5095ZM176.155 -15.1195L162.886 1.90566C162.878 1.90344 162.873 1.89876 162.868 1.89408L169.816 -16.9347C169.977 -16.9027 170.148 -16.8901 170.32 -16.9136C170.848 -16.9818 171.279 -17.3115 171.498 -17.7582L175.756 -16.4121C175.733 -16.27 175.729 -16.1236 175.75 -15.9778C175.789 -15.6406 175.94 -15.3468 176.155 -15.1195ZM119.827 35.0924L144.706 37.6613C144.709 37.702 144.71 37.7452 144.716 37.7882C144.733 37.9077 144.76 38.0222 144.801 38.1315L127.045 47.9873L119.35 35.8694C119.58 35.667 119.749 35.3966 119.827 35.0924ZM144.774 179.671L153.592 151.878C153.734 151.901 153.88 151.904 154.029 151.886C154.44 151.833 154.79 151.623 155.029 151.322L170.357 160.171L145.153 179.938C145.042 179.828 144.913 179.737 144.774 179.671ZM193.54 173.032L171.157 160.108L177.012 155.517C177.331 155.82 177.781 155.982 178.255 155.922C178.479 155.893 178.689 155.816 178.868 155.701L193.579 172.98C193.568 173.002 193.554 173.017 193.54 173.032ZM176.692 153.742C176.66 153.805 176.633 153.873 176.611 153.941L155.359 150.395C155.36 150.321 155.358 150.249 155.349 150.175C155.299 149.794 155.116 149.465 154.848 149.23L159.995 142.288L176.692 153.742ZM159.891 141.674L140.166 128.143C140.262 127.949 140.314 127.731 140.318 127.506L172.572 123.383C172.646 123.64 172.781 123.867 172.961 124.047L159.891 141.674ZM168.924 95.3212L143.75 89.3942C143.755 89.3053 143.755 89.2117 143.74 89.1186C143.705 88.8364 143.593 88.5849 143.432 88.3754L152.096 78.1756L175.646 96.6904C175.611 96.7512 175.579 96.8144 175.552 96.8822L168.924 95.3212ZM162.33 4.74747C162.356 4.74442 162.385 4.73893 162.413 4.73342L174.189 39.1642C173.988 39.2675 173.814 39.4157 173.68 39.5918L151.289 27.2083L161.709 4.69562C161.903 4.75321 162.112 4.77444 162.33 4.74747ZM140.526 70.5718C140.949 70.4727 141.295 70.2026 141.497 69.8474L151.739 77.9013L143.105 88.0692C142.903 87.9279 142.668 87.8353 142.417 87.8031L140.526 70.5718ZM176.737 155.166L170.741 159.867L155.255 150.928C155.266 150.901 155.273 150.874 155.282 150.845L176.535 154.384C176.535 154.458 176.536 154.53 176.545 154.605C176.575 154.81 176.639 154.998 176.737 155.166ZM173.568 41.288L155.23 55.9892L147.076 38.8597C147.386 38.653 147.61 38.3332 147.702 37.9711L148.282 38.0312L173.359 40.588C173.362 40.6286 173.363 40.6718 173.369 40.71C173.398 40.9204 173.47 41.1153 173.568 41.288ZM154.873 56.2762L140.689 67.6462C140.617 67.6192 140.542 67.5994 140.467 67.5845L144.784 45.971L146.154 39.1151C146.243 39.1201 146.334 39.1179 146.425 39.1061C146.511 39.0943 146.595 39.0755 146.678 39.0518L154.873 56.2762ZM155.07 56.6935L159.763 66.554C159.412 66.8001 159.175 67.1922 159.125 67.6276L151.316 67.8683L141.398 68.1708C141.318 68.0624 141.223 67.9664 141.115 67.8827L155.07 56.6935ZM152.033 77.5583L141.668 69.4114C141.705 69.245 141.715 69.0721 141.692 68.8951C141.68 68.7995 141.658 68.7041 141.627 68.6137L151.291 68.3175L159.139 68.0758C159.189 68.348 159.308 68.5921 159.476 68.7895L152.033 77.5583ZM147.064 36.3198L151.092 27.6161L173.456 39.9835C173.436 40.0343 173.423 40.0874 173.408 40.143L147.751 37.5261C147.748 37.4855 147.747 37.4423 147.741 37.4041C147.684 36.9425 147.425 36.5555 147.064 36.3198ZM173.989 41.7501L161.116 66.3527C160.906 66.2835 160.682 66.2578 160.448 66.2876C160.35 66.302 160.257 66.3211 160.166 66.3521L155.43 56.404L173.85 41.6361C173.894 41.6781 173.941 41.713 173.989 41.7501ZM160.834 69.3148C160.942 69.3002 161.044 69.2761 161.144 69.24L176.045 96.232C176.002 96.2666 175.962 96.2988 175.922 96.3357L152.385 77.8326L159.814 69.0834C160.106 69.2728 160.464 69.3648 160.834 69.3148ZM159.626 142.036L154.473 148.985C154.223 148.869 153.939 148.818 153.642 148.854C153.482 148.875 153.332 148.919 153.194 148.985L139.815 128.615C139.85 128.582 139.885 128.55 139.916 128.514L159.626 142.036ZM141.049 88.3455L122.348 77.1374L138.883 69.8976C139.141 70.3062 139.584 70.5783 140.079 70.6093L141.967 87.8143C141.594 87.8762 141.275 88.0736 141.049 88.3455ZM121.878 76.8539L100.761 64.1943C100.784 64.141 100.802 64.0878 100.82 64.0346L138.651 69.1093C138.652 69.1669 138.656 69.222 138.662 69.2794C138.671 69.3487 138.685 69.4179 138.705 69.4846L121.878 76.8539ZM139.982 67.5725C139.832 67.593 139.689 67.6349 139.556 67.6909L127.284 48.3652L145.02 38.5219C145.198 38.7526 145.437 38.929 145.713 39.0277L140.011 67.567C140.001 67.572 139.992 67.5722 139.982 67.5725ZM146.034 36.0789C145.857 36.1025 145.695 36.1545 145.543 36.2302L132.457 17.6177C132.52 17.5514 132.578 17.4804 132.632 17.4048L150.701 27.3979L146.659 36.1307C146.461 36.0732 146.251 36.052 146.034 36.0789ZM132.817 16.0641L160.837 4.03354C160.954 4.22493 161.114 4.3865 161.299 4.50666L150.892 26.9902L132.828 17.0017C132.89 16.7987 132.916 16.5798 132.886 16.355C132.872 16.2522 132.85 16.1568 132.817 16.0641ZM163.131 4.38705L201.764 37.6414C201.632 37.8486 201.549 38.0881 201.531 38.3428L176.374 40.1849C176.204 39.4239 175.481 38.9044 174.692 39.0055C174.665 39.0085 174.637 39.014 174.608 39.0195L162.832 4.58876C162.943 4.53084 163.042 4.46602 163.131 4.38705ZM201.69 39.1305L175.679 57.1274L175.162 42.0187C175.852 41.8937 176.361 41.315 176.411 40.6325L201.569 38.7905C201.596 38.9097 201.637 39.0238 201.69 39.1305ZM175.238 57.4286L161.752 66.7567C161.681 66.6793 161.6 66.6118 161.517 66.5515L174.385 41.9539C174.492 41.9896 174.598 42.0158 174.714 42.0273L175.238 57.4286ZM175.258 57.963L176.554 95.9819C176.516 95.9925 176.476 96.0055 176.438 96.0208L161.542 69.0335C161.976 68.7158 162.229 68.1794 162.155 67.6079C162.131 67.4358 162.082 67.2763 162.008 67.127L175.258 57.963ZM175.645 98.2064L161.51 109.323L143.488 90.1754C143.56 90.0705 143.62 89.9587 143.662 89.8401L148.442 90.967L175.45 97.3237C175.441 97.4271 175.444 97.5373 175.458 97.6449C175.482 97.8458 175.549 98.0361 175.645 98.2064ZM161.155 109.603L139.843 126.366C139.654 126.186 139.416 126.058 139.158 125.995L142.437 90.8274C142.719 90.7869 142.973 90.6727 143.18 90.5045L161.155 109.603ZM161.463 109.929L172.846 122.023C172.646 122.277 172.524 122.597 172.518 122.938L140.264 127.061C140.229 126.94 140.181 126.823 140.121 126.719L161.463 109.929ZM174.013 124.491L177.649 152.939C177.372 153.018 177.131 153.168 176.944 153.369L160.264 141.926L173.327 124.311C173.534 124.424 173.768 124.488 174.013 124.491ZM193.195 173.954L145.568 180.609C145.536 180.494 145.49 180.385 145.432 180.283L170.778 160.408L193.309 173.416C193.239 173.584 193.2 173.767 193.195 173.954ZM137.045 159.257L152.593 151.26C152.74 151.465 152.938 151.63 153.162 151.74L144.344 179.533C144.202 179.51 144.056 179.507 143.907 179.525C143.881 179.528 143.857 179.533 143.836 179.536L137.045 159.257ZM136.903 158.826L133.386 148.32C133.77 148.124 134.056 147.774 134.168 147.356L152.316 150.528C152.316 150.537 152.319 150.549 152.317 150.561C152.331 150.664 152.353 150.764 152.384 150.859L136.903 158.826ZM133.216 145.528L134.961 140.109L152.407 149.827C152.377 149.907 152.356 149.989 152.336 150.074L134.219 146.909C134.218 146.861 134.215 146.815 134.209 146.767C134.134 146.181 133.737 145.719 133.216 145.528ZM135.101 139.676L138.545 128.979C138.688 129.002 138.836 129.008 138.987 128.988C139.145 128.969 139.292 128.922 139.43 128.861L152.758 149.286C152.709 149.333 152.664 149.384 152.623 149.438L135.101 139.676ZM141.851 90.7939C141.897 90.8048 141.943 90.8157 141.988 90.8217L139.574 116.713L138.713 125.95C138.677 125.954 138.639 125.955 138.603 125.958C137.783 126.062 137.201 126.801 137.277 127.617L122.197 131.355C122.103 131.055 121.922 130.798 121.684 130.614L141.851 90.7939ZM117.552 77.3949C117.234 77.434 116.952 77.5729 116.729 77.7727L101.736 65.3048L121.372 77.0751L119.037 78.097C118.733 77.6104 118.162 77.3151 117.552 77.3949ZM100.779 63.0785L126.891 48.5859L139.178 67.9353C138.957 68.1279 138.791 68.3815 138.712 68.6665L100.878 63.5941C100.877 63.5366 100.873 63.4815 100.867 63.4241C100.85 63.2998 100.823 63.1853 100.779 63.0785ZM100.369 62.4769L117.708 36.0994C117.96 36.218 118.247 36.266 118.543 36.2299C118.694 36.2094 118.837 36.1675 118.97 36.1115L126.649 48.2057L100.563 62.6856C100.504 62.6103 100.44 62.5399 100.369 62.4769ZM119.412 33.6203L130.675 17.9064C130.94 18.0414 131.246 18.1034 131.566 18.0619C131.76 18.0356 131.938 17.976 132.102 17.888L145.18 36.4886C144.974 36.6856 144.824 36.9364 144.755 37.2163L119.876 34.6475C119.873 34.6068 119.872 34.5636 119.866 34.5206C119.816 34.1644 119.65 33.8519 119.412 33.6203ZM154.482 -4.05638L160.907 2.32629C160.682 2.63169 160.569 3.02068 160.62 3.4248C160.627 3.49181 160.643 3.55858 160.659 3.62055L132.61 15.6614C132.605 15.6519 132.598 15.6449 132.59 15.6331L154.482 -4.05638ZM154.818 -4.35492L169.155 -17.2542C169.229 -17.1937 169.309 -17.1405 169.394 -17.0922L162.45 1.73891C162.288 1.70692 162.118 1.69434 161.945 1.71778C161.675 1.75083 161.431 1.85521 161.228 2.00894L154.818 -4.35492ZM154.498 -4.67325L138.568 -20.5001C138.694 -20.6663 138.785 -20.8557 138.837 -21.0585L145.213 -20.4771L168.605 -18.3441C168.609 -18.3082 168.61 -18.2746 168.615 -18.2364C168.645 -17.9972 168.732 -17.7787 168.859 -17.5875L154.498 -4.67325ZM138.241 -22.6701L142.782 -31.2041L168.667 -18.8805C168.658 -18.8515 168.651 -18.8249 168.642 -18.7959L145.113 -20.9424L138.877 -21.5128C138.876 -21.5512 138.872 -21.5871 138.869 -21.6277C138.815 -22.0582 138.576 -22.4313 138.241 -22.6701ZM142.993 -31.5979L156.532 -57.0324C156.752 -56.9539 156.991 -56.9238 157.237 -56.9563C157.258 -56.9592 157.277 -56.9645 157.299 -56.9674L165.566 -31.6683L169.448 -19.7945C169.208 -19.6758 169.011 -19.4983 168.865 -19.2812L142.993 -31.5979ZM142.588 -31.7918L121.189 -41.981C121.226 -42.1474 121.236 -42.3204 121.212 -42.4973C121.192 -42.6431 121.155 -42.7813 121.097 -42.9118L155.744 -57.6702C155.847 -57.5024 155.98 -57.357 156.136 -57.2409L142.588 -31.7918ZM136.893 -67.5745L144.985 -79.4704C145.267 -79.2999 145.608 -79.2196 145.961 -79.2667C146.004 -79.2725 146.05 -79.2808 146.09 -79.289L156.154 -59.7097C155.994 -59.5954 155.858 -59.4481 155.752 -59.2824L136.893 -67.5745ZM166.525 -74.1278C166.505 -73.9929 166.501 -73.8513 166.519 -73.7078C166.566 -73.3492 166.732 -73.0367 166.976 -72.8004L160.549 -63.7761L146.817 -79.6692C146.932 -79.78 147.032 -79.9096 147.11 -80.0506L166.525 -74.1278ZM181.521 -39.5918C181.504 -39.5842 181.49 -39.5695 181.474 -39.5618L160.853 -63.431L167.339 -72.5431C167.604 -72.4081 167.908 -72.3485 168.226 -72.3875C168.278 -72.3936 168.331 -72.4045 168.386 -72.4179L181.521 -39.5918ZM177.377 -17.6923C177.276 -17.6994 177.17 -17.6968 177.065 -17.6846C176.977 -17.6752 176.893 -17.6516 176.81 -17.6279L173.782 -23.9649L181.691 -36.8686C181.706 -36.8642 181.72 -36.855 181.735 -36.8505L177.377 -17.6923ZM176.968 94.9762L175.694 57.662L201.944 39.5032C202.028 39.5923 202.121 39.6715 202.226 39.7385L176.968 94.9762ZM173.992 121.443C173.945 121.444 173.899 121.448 173.851 121.454C173.6 121.486 173.37 121.581 173.172 121.715L161.818 109.649L175.922 98.5546C176.104 98.7276 176.33 98.8539 176.576 98.9198L173.992 121.443ZM132.191 148.4C132.409 148.476 132.645 148.504 132.888 148.474C132.915 148.471 132.939 148.466 132.96 148.463L136.5 159.033L123.627 165.657C123.532 165.525 123.417 165.41 123.287 165.315L132.191 148.4ZM121.811 132.907C121.836 132.88 121.862 132.853 121.888 132.826L134.564 139.886L132.775 145.435C132.686 145.43 132.595 145.433 132.499 145.445C132.279 145.474 132.077 145.549 131.9 145.656L121.811 132.907ZM120.777 130.289L118.051 80.4026C118.476 80.3153 118.831 80.0547 119.046 79.7064L140.749 88.9309C140.701 89.1144 140.684 89.3091 140.711 89.5076C140.773 89.9882 141.052 90.3843 141.434 90.6171L121.295 130.389C121.123 130.323 120.94 130.289 120.75 130.287L120.777 130.289ZM137.312 -19.903C137.388 -19.9001 137.47 -19.9021 137.551 -19.9137C137.812 -19.9465 138.052 -20.046 138.25 -20.19L154.167 -4.37483L132.278 15.317C132.134 15.2126 131.976 15.1326 131.804 15.0816L137.312 -19.903ZM120.86 -41.3156C120.923 -41.3915 120.981 -41.4721 121.029 -41.5573L142.377 -31.3932L137.843 -22.8713C137.63 -22.9428 137.401 -22.9684 137.165 -22.9409C136.93 -22.9112 136.719 -22.8268 136.532 -22.7095L120.86 -41.3156ZM123.479 -74.1612L144.368 -80.17C144.436 -80.0158 144.526 -79.8741 144.637 -79.7545L136.476 -67.7561L123.487 -73.4658C123.524 -73.6322 123.534 -73.8052 123.51 -73.9869C123.506 -74.0468 123.495 -74.104 123.479 -74.1612Z" fill="white"/>
</g>
</g>
<defs>
<clipPath id="clip0">
<rect x="307.993" y="57.2045" width="208.692" height="226.568" transform="rotate(133.586 307.993 57.2045)" fill="white"/>
</clipPath>
</defs>
</svg>
