<svg width="188" height="188" viewBox="0 0 188 188" fill="none" xmlns="http://www.w3.org/2000/svg">
<g opacity="0.2">
<g clip-path="url(#clip0)">
<path d="M87.9521 11.2164L75.1814 14.8897C74.9969 14.5827 74.6427 14.3969 74.2651 14.4457C73.7549 14.511 73.3949 14.9762 73.4601 15.4865C73.5073 15.8568 73.766 16.1458 74.0977 16.2532L72.8219 33.6507C72.3341 33.7344 71.9928 34.1889 72.0577 34.6845C72.1229 35.1948 72.5881 35.5548 73.0984 35.4895C73.2413 35.4714 73.3702 35.42 73.484 35.3484L83.0394 46.6927C82.8759 46.8854 82.7902 47.1435 82.8246 47.4132C82.8716 47.7777 83.1245 48.0669 83.4518 48.1758L80.0885 69.5181C80.0534 69.5189 80.0169 69.5213 79.9804 69.5237C79.4701 69.5889 79.1101 70.0541 79.1754 70.5644C79.2027 70.7816 79.3054 70.9736 79.4507 71.1148L72.5838 80.6957C72.4224 80.6134 72.2357 80.5756 72.0403 80.6009C71.53 80.6661 71.1701 81.1313 71.2353 81.6416C71.2659 81.8734 71.3776 82.0739 71.5391 82.2162L60.9672 98.2988C60.8133 98.2265 60.6386 98.1972 60.4578 98.2192C59.9475 98.2845 59.5875 98.7497 59.6527 99.2599C59.718 99.7702 60.1832 100.13 60.6935 100.065C60.8874 100.041 61.0593 99.9565 61.1953 99.8346L70.995 107.983C70.8896 108.157 70.8392 108.366 70.8665 108.583C70.9227 109.025 71.2789 109.352 71.704 109.392L73.3647 139.809L73.5034 139.801L73.5005 139.801C72.9902 139.867 72.6302 140.332 72.6955 140.842C72.7607 141.352 73.2259 141.712 73.7362 141.647C73.847 141.633 73.9514 141.598 74.0453 141.55L80.2076 149.34C80.034 149.534 79.9425 149.798 79.9772 150.077C80.0115 150.34 80.153 150.564 80.3511 150.709L74.9284 161.028C74.7956 160.982 74.6519 160.965 74.5032 160.983C73.9929 161.048 73.6329 161.514 73.6981 162.024C73.7634 162.534 74.2286 162.894 74.7388 162.829C74.9677 162.798 75.1668 162.688 75.3107 162.531L87.0225 170.347C86.9488 170.503 86.9166 170.68 86.9401 170.863C87.0054 171.373 87.4706 171.733 87.9808 171.668C88.4488 171.608 88.7886 171.212 88.7919 170.753L117.825 166.695C117.944 167.137 118.374 167.435 118.841 167.374C119.351 167.309 119.711 166.843 119.646 166.333C119.581 165.823 119.115 165.463 118.605 165.528C118.471 165.546 118.348 165.591 118.24 165.657L109.267 155.119C109.437 154.926 109.525 154.665 109.491 154.389C109.432 153.926 109.041 153.587 108.587 153.578L106.37 136.233C106.808 136.11 107.101 135.684 107.041 135.219C106.992 134.833 106.713 134.532 106.36 134.439L107.934 120.708C107.963 120.707 107.991 120.705 108.02 120.701C108.53 120.636 108.89 120.171 108.825 119.661C108.767 119.203 108.383 118.866 107.936 118.849L123.548 84.704C123.667 84.7376 123.793 84.7491 123.924 84.7342C124.435 84.6689 124.795 84.2037 124.729 83.6934C124.664 83.1832 124.199 82.8232 123.689 82.8884C123.501 82.9121 123.333 82.9923 123.198 83.1067L99.644 62.8312C99.7552 62.6545 99.8084 62.4396 99.781 62.2165C99.7554 62.0124 99.6633 61.8333 99.5311 61.6933L107.621 51.3129C107.791 51.4082 107.991 51.453 108.198 51.4274C108.708 51.3621 109.068 50.8969 109.003 50.3866C108.959 50.0367 108.725 49.7573 108.417 49.6377L111.074 37.9567C111.135 37.961 111.2 37.9595 111.262 37.9506C111.773 37.8853 112.133 37.4202 112.067 36.9099C112.002 36.3996 111.537 36.0396 111.027 36.1049C110.995 36.1086 110.963 36.1152 110.93 36.1219L102.922 16.1046C103.235 15.9228 103.425 15.5642 103.376 15.1837C103.311 14.6734 102.845 14.3134 102.335 14.3787C102.01 14.4203 101.745 14.6273 101.614 14.9025L89.7895 11.2924C89.8091 11.1969 89.8139 11.0959 89.8011 10.9923C89.7358 10.4821 89.2706 10.1221 88.7604 10.1873C88.2515 10.2511 87.8943 10.7103 87.9521 11.2164ZM75.1942 15.8239L83.0528 19.2789L73.257 33.6794C73.204 33.6632 73.1525 33.6513 73.0967 33.6439L73.2172 32.0087L74.3679 16.2962C74.4118 16.2981 74.4571 16.2955 74.4993 16.29C74.8056 16.2532 75.0556 16.0716 75.1942 15.8239ZM72.6888 108.228L74.2905 107.526L84.9506 113.916L72.6918 108.705C72.7212 108.593 72.7314 108.474 72.7153 108.353C72.7098 108.311 72.7001 108.27 72.6888 108.228ZM74.5514 140.722L83.7674 138.438C83.8545 138.649 84.0152 138.819 84.2151 138.918L82.1313 145.387L74.4676 141.119C74.5216 140.996 74.5519 140.862 74.5514 140.722ZM75.5028 161.606L83.3144 157.589L87.4418 169.916C87.3407 169.968 87.2488 170.037 87.1733 170.12L75.4615 162.304C75.5352 162.148 75.5659 161.972 75.5439 161.788C75.535 161.726 75.5218 161.664 75.5028 161.606ZM105.817 45.4532L96.2707 25.4827C96.311 25.4554 96.3483 25.4252 96.3841 25.3936L110.342 36.5576C110.242 36.7283 110.194 36.9313 110.222 37.1427C110.252 37.3832 110.373 37.5923 110.546 37.7372L105.817 45.4532ZM73.5072 33.8005L83.3086 19.391L94.8534 24.4676C94.8211 24.5825 94.8124 24.7055 94.8272 24.831C94.8326 24.8703 94.8409 24.9096 94.8506 24.9474L73.6867 33.9628C73.6354 33.8997 73.5741 33.8471 73.5072 33.8005ZM95.6337 23.7887C95.571 23.7976 95.5099 23.8108 95.4519 23.8298L89.4126 12.0813L97.7263 21.7042L96.1742 23.8836C96.0128 23.8013 95.8261 23.7635 95.6337 23.7887ZM97.9099 21.9161L110.069 35.9896L96.5543 25.1788C96.6539 25.0082 96.7015 24.8052 96.6744 24.5938C96.6456 24.3751 96.5444 24.1845 96.396 24.0405L97.9099 21.9161ZM105.645 45.7324L104.09 48.2688C103.944 48.2066 103.778 48.18 103.609 48.2017C103.596 48.2035 103.584 48.2067 103.571 48.2085L100.454 38.6708L96.5325 26.6682L105.645 45.7324ZM105.787 46.0273L107.558 49.7306C107.422 49.8216 107.314 49.9472 107.242 50.0923L104.646 49.2715C104.66 49.1849 104.662 49.0956 104.65 49.0067C104.619 48.7662 104.497 48.5586 104.325 48.4122L105.787 46.0273ZM107.404 51.1428L99.3134 61.5231C99.309 61.5218 99.306 61.5189 99.303 61.5161L103.539 50.036C103.637 50.0555 103.741 50.0632 103.846 50.0489C104.168 50.0073 104.431 49.8063 104.565 49.5339L107.16 50.3546C107.147 50.4412 107.144 50.5305 107.157 50.6194C107.181 50.825 107.273 51.0041 107.404 51.1428ZM73.0605 81.7574L88.2289 83.3237C88.231 83.3485 88.2317 83.3748 88.2352 83.401C88.2458 83.4739 88.2622 83.5437 88.2872 83.6104L77.4608 89.6195L72.7694 82.2311C72.9097 82.1078 73.0124 81.9429 73.0605 81.7574ZM88.2709 169.908L93.647 152.963C93.7336 152.976 93.8229 152.979 93.9133 152.968C94.1641 152.935 94.3773 152.807 94.5234 152.624L103.869 158.019L88.5016 170.071C88.4341 170.004 88.3552 169.949 88.2709 169.908ZM118.003 165.86L104.357 157.981L107.926 155.181C108.121 155.366 108.395 155.465 108.684 155.429C108.821 155.411 108.949 155.364 109.058 155.294L118.028 165.829C118.021 165.842 118.012 165.851 118.003 165.86ZM107.731 154.099C107.712 154.138 107.695 154.179 107.682 154.22L94.7245 152.058C94.7248 152.013 94.7238 151.969 94.7182 151.924C94.6877 151.692 94.5759 151.492 94.413 151.348L97.5509 147.115L107.731 154.099ZM97.4875 146.741L85.4608 138.491C85.5193 138.373 85.5512 138.24 85.5536 138.103L105.22 135.589C105.264 135.746 105.347 135.884 105.456 135.994L97.4875 146.741ZM102.995 118.479L87.6461 114.866C87.6491 114.811 87.6492 114.754 87.6405 114.698C87.6187 114.526 87.5505 114.372 87.4523 114.245L92.735 108.026L107.093 119.314C107.072 119.351 107.053 119.39 107.036 119.431L102.995 118.479ZM98.9744 63.2558C98.9905 63.254 99.0079 63.2506 99.0254 63.2472L106.206 84.24C106.083 84.303 105.977 84.3934 105.895 84.5007L92.2427 76.9504L98.5963 63.2242C98.7142 63.2593 98.8418 63.2722 98.9744 63.2558ZM85.6808 103.39C85.9382 103.329 86.1491 103.164 86.2725 102.948L92.5173 107.858L87.2532 114.058C87.1297 113.972 86.9864 113.915 86.8338 113.896L85.6808 103.39ZM107.759 154.967L104.103 157.833L94.6608 152.383C94.6678 152.367 94.6717 152.351 94.6772 152.333L107.636 154.491C107.635 154.536 107.636 154.58 107.642 154.625C107.66 154.75 107.699 154.865 107.759 154.967ZM105.827 85.5349L94.646 94.4983L89.6744 84.0544C89.8629 83.9283 89.9999 83.7333 90.0559 83.5126L90.4093 83.5492L105.699 85.1081C105.701 85.1329 105.702 85.1592 105.705 85.1825C105.723 85.3108 105.767 85.4296 105.827 85.5349ZM94.428 94.6734L85.7801 101.606C85.7359 101.589 85.6902 101.577 85.6447 101.568L88.2765 88.3901L89.1123 84.2101C89.1664 84.2131 89.222 84.2118 89.2774 84.2046C89.3299 84.1974 89.3808 84.1859 89.4316 84.1715L94.428 94.6734ZM94.5483 94.9278L97.4098 100.94C97.1956 101.09 97.0508 101.329 97.0208 101.594L92.2595 101.741L86.2122 101.926C86.1637 101.859 86.1052 101.801 86.0396 101.75L94.5483 94.9278ZM92.6964 107.649L86.3771 102.682C86.3994 102.581 86.4056 102.475 86.3913 102.367C86.384 102.309 86.3708 102.251 86.3519 102.196L92.2444 102.015L97.029 101.868C97.0594 102.034 97.1319 102.182 97.2343 102.303L92.6964 107.649ZM89.6669 82.5057L92.1231 77.199L105.759 84.7395C105.746 84.7705 105.738 84.8029 105.729 84.8368L90.0858 83.2413C90.0837 83.2165 90.0831 83.1901 90.0796 83.1668C90.0448 82.8854 89.8869 82.6495 89.6669 82.5057ZM106.084 85.8167L98.2345 100.817C98.1062 100.775 97.9698 100.759 97.827 100.777C97.7672 100.786 97.7105 100.798 97.6554 100.817L94.7678 94.7513L105.998 85.7471C106.025 85.7728 106.054 85.794 106.084 85.8167ZM98.0627 102.623C98.1282 102.614 98.1908 102.599 98.2517 102.578L107.337 119.035C107.311 119.056 107.286 119.075 107.262 119.098L92.9112 107.817L97.4405 102.482C97.6189 102.598 97.8367 102.654 98.0627 102.623ZM97.3263 146.962L94.1841 151.199C94.0317 151.128 93.8583 151.097 93.6775 151.119C93.5799 151.132 93.4884 151.159 93.4046 151.199L85.2471 138.779C85.2685 138.759 85.29 138.74 85.3084 138.717L97.3263 146.962ZM85.9996 114.226L74.5972 107.393L84.6791 102.978C84.8359 103.228 85.1062 103.393 85.4079 103.412L86.559 113.902C86.3318 113.94 86.1374 114.061 85.9996 114.226ZM74.3107 107.22L61.4356 99.5011C61.4495 99.4686 61.4604 99.4361 61.4713 99.4037L84.5371 102.498C84.5379 102.533 84.5402 102.566 84.544 102.601C84.5494 102.644 84.5578 102.686 84.5705 102.727L74.3107 107.22ZM85.349 101.561C85.2572 101.573 85.1701 101.599 85.089 101.633L77.6069 89.8499L88.4203 83.8484C88.5291 83.989 88.6751 84.0966 88.8433 84.1568L85.3665 101.557C85.3607 101.56 85.3549 101.561 85.349 101.561ZM89.0388 82.3589C88.9309 82.3733 88.8322 82.4049 88.7398 82.4511L80.7609 71.1029C80.7993 71.0625 80.8348 71.0192 80.8673 70.9731L91.8843 77.066L89.4198 82.3904C89.299 82.3554 89.1714 82.3425 89.0388 82.3589ZM80.9803 70.1557L98.0642 62.8205C98.1359 62.9372 98.2334 63.0357 98.3463 63.109L92.001 76.8174L80.9871 70.7273C81.0249 70.6035 81.0407 70.4701 81.0227 70.333C81.0138 70.2704 81.0007 70.2122 80.9803 70.1557ZM99.4633 63.0361L123.018 83.3116C122.937 83.4379 122.887 83.5839 122.876 83.7392L107.537 84.8623C107.434 84.3983 106.993 84.0816 106.512 84.1432C106.496 84.1451 106.478 84.1484 106.461 84.1518L99.2806 63.159C99.3485 63.1237 99.409 63.0842 99.4633 63.0361ZM122.973 84.2194L107.114 95.1924L106.798 85.9804C107.219 85.9042 107.529 85.5514 107.56 85.1353L122.899 84.0121C122.915 84.0848 122.941 84.1544 122.973 84.2194ZM106.845 95.376L98.6223 101.063C98.5787 101.016 98.5295 100.975 98.4788 100.938L106.325 85.9409C106.39 85.9627 106.455 85.9786 106.525 85.9857L106.845 95.376ZM106.857 95.7018L107.647 118.882C107.624 118.889 107.599 118.897 107.576 118.906L98.4943 102.452C98.7586 102.258 98.9128 101.931 98.8677 101.582C98.8534 101.477 98.8232 101.38 98.7785 101.289L106.857 95.7018ZM107.093 120.239L98.4748 127.017L87.4867 115.342C87.5305 115.278 87.5668 115.21 87.5928 115.138L90.5071 115.825L106.974 119.7C106.968 119.763 106.97 119.831 106.979 119.896C106.994 120.019 107.035 120.135 107.093 120.239ZM98.2582 127.187L85.2644 137.408C85.1491 137.298 85.0038 137.22 84.8464 137.181L86.8457 115.74C87.0177 115.715 87.1725 115.645 87.2986 115.543L98.2582 127.187ZM98.4459 127.386L105.386 134.76C105.264 134.915 105.19 135.11 105.186 135.317L85.5206 137.832C85.4997 137.757 85.4702 137.687 85.4335 137.623L98.4459 127.386ZM106.098 136.265L108.315 153.61C108.146 153.658 107.999 153.749 107.885 153.872L97.7151 146.895L105.68 136.155C105.806 136.224 105.948 136.262 106.098 136.265ZM117.794 166.423L88.7544 170.48C88.7352 170.41 88.7072 170.344 88.672 170.282L104.126 158.163L117.863 166.095C117.82 166.197 117.797 166.309 117.794 166.423ZM83.5584 157.462L93.0381 152.586C93.1274 152.711 93.2484 152.811 93.3846 152.878L88.0085 169.824C87.9218 169.81 87.8326 169.808 87.7421 169.819C87.7261 169.821 87.7116 169.824 87.6984 169.826L83.5584 157.462ZM83.4715 157.199L81.3273 150.794C81.5612 150.674 81.7359 150.46 81.8042 150.206L92.8691 152.139C92.8692 152.145 92.8709 152.152 92.8696 152.16C92.8784 152.222 92.8917 152.284 92.9106 152.342L83.4715 157.199ZM81.2238 149.091L82.2874 145.787L92.9244 151.712C92.9065 151.761 92.8932 151.811 92.8813 151.863L81.8354 149.933C81.8347 149.904 81.8326 149.876 81.8289 149.847C81.7836 149.489 81.5411 149.207 81.2238 149.091ZM82.373 145.523L84.473 139.001C84.5597 139.015 84.6504 139.019 84.7423 139.006C84.8385 138.995 84.9285 138.966 85.0124 138.929L93.1385 151.382C93.1085 151.411 93.0815 151.442 93.056 151.475L82.373 145.523ZM86.4884 115.719C86.5163 115.726 86.5443 115.732 86.5721 115.736L85.1001 131.522L84.5752 137.154C84.5533 137.156 84.5299 137.157 84.508 137.159C84.0079 137.222 83.6534 137.673 83.6993 138.17L74.5051 140.449C74.448 140.266 74.3373 140.11 74.1927 139.998L86.4884 115.719ZM71.6731 107.55C71.4792 107.573 71.3073 107.658 71.1713 107.78L62.0301 100.178L74.0025 107.355L72.5788 107.978C72.393 107.681 72.0449 107.501 71.6731 107.55ZM61.4466 98.8208L77.3674 89.9845L84.8587 101.782C84.7241 101.899 84.6226 102.054 84.5743 102.228L61.5071 99.1352C61.5062 99.1001 61.5039 99.0665 61.5001 99.0315C61.4895 98.9557 61.4731 98.8859 61.4466 98.8208ZM61.1963 98.454L71.7681 82.3714C71.922 82.4437 72.0968 82.473 72.2776 82.451C72.3694 82.4385 72.4565 82.4129 72.5376 82.3787L77.2198 89.7527L61.315 98.5812C61.2787 98.5353 61.2396 98.4924 61.1963 98.454ZM72.8072 80.8598L79.6742 71.2789C79.8356 71.3612 80.0223 71.3991 80.2176 71.3738C80.3357 71.3577 80.4445 71.3214 80.5441 71.2677L88.5184 82.6087C88.3927 82.7288 88.3014 82.8817 88.2588 83.0524L73.0903 81.4861C73.0883 81.4613 73.0876 81.435 73.084 81.4088C73.0538 81.1916 72.9526 81.001 72.8072 80.8598ZM94.1896 57.888L98.1073 61.7796C97.97 61.9658 97.9013 62.203 97.9322 62.4494C97.9362 62.4902 97.9459 62.5309 97.9556 62.5687L80.8543 69.9101C80.8512 69.9044 80.8467 69.9001 80.8421 69.8929L94.1896 57.888ZM94.3943 57.706L103.136 49.8412C103.181 49.8781 103.23 49.9105 103.282 49.94L99.0476 61.4215C98.9491 61.402 98.8451 61.3943 98.7402 61.4086C98.5754 61.4287 98.4263 61.4924 98.3029 61.5861L94.3943 57.706ZM94.1994 57.5119L84.4869 47.8621C84.5634 47.7608 84.619 47.6453 84.6511 47.5217L88.5384 47.8762L102.801 49.1767C102.803 49.1986 102.803 49.219 102.807 49.2424C102.825 49.3882 102.878 49.5214 102.956 49.638L94.1994 57.5119ZM84.2875 46.5391L87.0563 41.3358L102.838 48.8496C102.833 48.8673 102.829 48.8835 102.823 48.9012L88.4773 47.5925L84.6749 47.2447C84.6744 47.2213 84.6723 47.1994 84.6703 47.1746C84.6375 46.9122 84.4914 46.6847 84.2875 46.5391ZM87.1849 41.0957L95.4397 25.588C95.574 25.6359 95.7192 25.6543 95.8694 25.6345C95.8825 25.6327 95.8941 25.6295 95.9072 25.6277L100.948 41.0528L103.314 48.2923C103.168 48.3647 103.048 48.473 102.959 48.6053L87.1849 41.0957ZM86.9378 40.9775L73.8908 34.765C73.9131 34.6636 73.9193 34.5581 73.9049 34.4503C73.8925 34.3613 73.8699 34.2771 73.8343 34.1975L94.9592 25.1992C95.0217 25.3015 95.1028 25.3901 95.1982 25.4609L86.9378 40.9775ZM83.4653 19.1605L88.3992 11.9074C88.5714 12.0114 88.7788 12.0603 88.9946 12.0316C89.0208 12.028 89.0485 12.023 89.0732 12.018L95.2093 23.9557C95.1115 24.0254 95.0289 24.1152 94.9641 24.2162L83.4653 19.1605ZM101.533 15.1649C101.52 15.2471 101.518 15.3334 101.529 15.4209C101.558 15.6396 101.659 15.8301 101.807 15.9742L97.8888 21.4764L89.5165 11.7862C89.5865 11.7187 89.6474 11.6396 89.695 11.5536L101.533 15.1649ZM110.676 36.2218C110.665 36.2264 110.657 36.2354 110.647 36.24L98.0739 21.6868L102.029 16.131C102.19 16.2133 102.376 16.2497 102.569 16.2259C102.602 16.2222 102.634 16.2155 102.667 16.2074L110.676 36.2218ZM108.149 49.5741C108.087 49.5698 108.023 49.5713 107.959 49.5788C107.905 49.5845 107.854 49.5989 107.803 49.6133L105.957 45.7496L110.779 37.8821C110.788 37.8848 110.797 37.8904 110.806 37.8931L108.149 49.5741ZM107.9 118.269L107.123 95.5183L123.128 84.4467C123.179 84.501 123.235 84.5493 123.299 84.5902L107.9 118.269ZM106.085 134.406C106.056 134.407 106.028 134.409 105.999 134.413C105.846 134.432 105.706 134.49 105.585 134.572L98.6625 127.215L107.262 120.451C107.373 120.556 107.511 120.633 107.661 120.674L106.085 134.406ZM80.5987 150.842C80.7314 150.889 80.8752 150.906 81.0239 150.887C81.04 150.885 81.0545 150.882 81.0676 150.88L83.226 157.325L75.3769 161.364C75.3193 161.283 75.2489 161.213 75.1699 161.155L80.5987 150.842ZM74.2696 141.396C74.2853 141.379 74.301 141.363 74.3167 141.346L82.0456 145.651L80.9548 149.035C80.9006 149.032 80.845 149.033 80.7867 149.04C80.6526 149.058 80.5294 149.104 80.4213 149.169L74.2696 141.396ZM73.6394 139.799L71.9773 109.383C72.2363 109.33 72.4532 109.171 72.584 108.959L85.8168 114.583C85.7874 114.695 85.7772 114.814 85.7933 114.935C85.8313 115.228 86.001 115.469 86.2341 115.611L73.9553 139.86C73.8505 139.821 73.7388 139.8 73.6233 139.798L73.6394 139.799ZM83.7207 48.2262C83.7676 48.228 83.8173 48.2267 83.8668 48.2197C84.0257 48.1996 84.172 48.139 84.2926 48.0512L93.9976 57.6939L80.6516 69.7001C80.5638 69.6365 80.4675 69.5877 80.3629 69.5566L83.7207 48.2262ZM73.6902 35.1707C73.7285 35.1244 73.7639 35.0753 73.7933 35.0234L86.8092 41.2205L84.0446 46.4164C83.9148 46.3728 83.7755 46.3572 83.6311 46.3739C83.4882 46.3921 83.3593 46.4435 83.2456 46.5151L73.6902 35.1707ZM75.2871 15.1445L88.023 11.4808C88.0648 11.5749 88.1196 11.6613 88.1872 11.7342L83.211 19.0497L75.2918 15.5685C75.3141 15.467 75.3203 15.3616 75.3059 15.2508C75.3035 15.2143 75.2968 15.1793 75.2871 15.1445Z" fill="white"/>
</g>
</g>
<defs>
<clipPath id="clip0">
<rect x="187.786" y="95.2393" width="127.242" height="138.14" transform="rotate(133.586 187.786 95.2393)" fill="white"/>
</clipPath>
</defs>
</svg>
