<svg width="40" height="40" viewBox="0 0 40 40" fill="none" xmlns="http://www.w3.org/2000/svg">
<g clip-path="url(#clip0)">
<path d="M20.1539 0.00315857C19.6015 0.00315857 19.1122 0.429278 19.1122 1.04478V7.84691C19.1122 8.2099 19.3174 8.55711 19.633 8.74649L27.4295 13.2602C27.5873 13.3549 27.7767 13.4022 27.9503 13.4022C28.1239 13.4022 28.3133 13.3549 28.4711 13.2602L34.3579 9.85125C35.0523 9.45669 35.0523 8.44663 34.3579 8.05208L20.6747 0.145198C20.5011 0.0505052 20.3275 0.00315857 20.1539 0.00315857Z" fill="url(#paint1_linear)"/>
<path d="M9.29572 13.2602L17.0921 8.76228C17.4235 8.5729 17.6129 8.22569 17.6129 7.8627V1.04478C17.6129 0.239892 16.7449 -0.265139 16.0505 0.145198L2.36734 8.05208C1.67292 8.44664 1.67292 9.4567 2.36734 9.85126L8.2541 13.2602C8.58552 13.4338 8.98008 13.4338 9.29572 13.2602Z" fill="black"/>
<path d="M7.9858 24.4971V15.4224C7.9858 15.0594 7.78063 14.7122 7.46498 14.5228L1.56244 11.1296C0.868021 10.7193 0 11.2243 0 12.0292V27.9061C0 28.711 0.868021 29.216 1.56244 28.8057L7.4492 25.3967C7.79641 25.2073 7.9858 24.8759 7.9858 24.4971Z" fill="black"/>
<path d="M29.2602 25.381L35.147 28.7899C35.8414 29.1845 36.7094 28.6952 36.7094 27.8903V12.045C36.7094 11.2401 35.8414 10.7351 35.147 11.1454L29.2602 14.5543C28.9288 14.7437 28.7394 15.0909 28.7394 15.4539V24.4814C28.7394 24.8444 28.9288 25.1916 29.2602 25.381Z" fill="black"/>
<path d="M27.5084 26.6909L19.633 31.2519C19.3016 31.4413 19.1122 31.7885 19.1122 32.1515V38.9536C19.1122 39.7585 19.9802 40.2635 20.6747 39.8532L34.4525 31.899C35.1469 31.5044 35.1469 30.4944 34.4525 30.0998L28.5658 26.6909C28.2343 26.5173 27.8398 26.5173 27.5084 26.6909Z" fill="black"/>
<path d="M17.0921 31.2519L9.23258 26.7066C8.90115 26.5173 8.52238 26.5173 8.19095 26.7066L2.3042 30.1156C1.60978 30.5101 1.60978 31.5202 2.3042 31.9148L16.0663 39.8532C16.7607 40.2477 17.6287 39.7585 17.6287 38.9536V32.1515C17.6129 31.7727 17.4078 31.4255 17.0921 31.2519Z" fill="black"/>

</g>
<defs>
<linearGradient id="paint0_linear" x1="9.22775" y1="4.18005" x2="28.3543" y2="35.3379" gradientUnits="userSpaceOnUse">
<stop offset="0.2544" stop-color="#CAAD6E"/>
<stop offset="0.4074" stop-color="#C5A86A"/>
<stop offset="0.5929" stop-color="#B7995E"/>
<stop offset="0.7952" stop-color="#9F814A"/>
<stop offset="1" stop-color="#80602F"/>
</linearGradient>
<linearGradient id="paint1_linear" x1="-2.37342" y1="11.3016" x2="16.7531" y2="42.4594" gradientUnits="userSpaceOnUse">
<stop offset="0.2544" stop-color="#CAAD6E"/>
<stop offset="0.4074" stop-color="#C5A86A"/>
<stop offset="0.5929" stop-color="#B7995E"/>
<stop offset="0.7952" stop-color="#9F814A"/>
<stop offset="1" stop-color="#80602F"/>
</linearGradient>
<linearGradient id="paint2_linear" x1="20.0154" y1="-2.44213" x2="39.142" y2="28.7157" gradientUnits="userSpaceOnUse">
<stop offset="0.2544" stop-color="#CAAD6E"/>
<stop offset="0.4074" stop-color="#C5A86A"/>
<stop offset="0.5929" stop-color="#B7995E"/>
<stop offset="0.7952" stop-color="#9F814A"/>
<stop offset="1" stop-color="#80602F"/>
</linearGradient>
<linearGradient id="paint3_linear" x1="8.43551" y1="4.66635" x2="27.5621" y2="35.8242" gradientUnits="userSpaceOnUse">
<stop offset="0.2544" stop-color="#CAAD6E"/>
<stop offset="0.4074" stop-color="#C5A86A"/>
<stop offset="0.5929" stop-color="#B7995E"/>
<stop offset="0.7952" stop-color="#9F814A"/>
<stop offset="1" stop-color="#80602F"/>
</linearGradient>
<linearGradient id="paint4_linear" x1="-2.64836" y1="11.4704" x2="16.4782" y2="42.6281" gradientUnits="userSpaceOnUse">
<stop offset="0.2544" stop-color="#CAAD6E"/>
<stop offset="0.4074" stop-color="#C5A86A"/>
<stop offset="0.5929" stop-color="#B7995E"/>
<stop offset="0.7952" stop-color="#9F814A"/>
<stop offset="1" stop-color="#80602F"/>
</linearGradient>
<clipPath id="clip0">
<rect width="236.859" height="40" fill="white"/>
</clipPath>
</defs>
</svg>
