<svg width="40" height="40" fill="none" xmlns="http://www.w3.org/2000/svg"><g clip-path="url(#clip0)"><path d="M20.154.003a1.03 1.03 0 0 0-1.042 1.042v6.802c0 .363.205.71.521.9l7.797 4.513a1.035 1.035 0 0 0 1.041 0l5.887-3.409a1.037 1.037 0 0 0 0-1.799L20.675.145a1.08 1.08 0 0 0-.521-.142z" fill="url(#paint1_linear)"/><path d="M9.296 13.26l7.796-4.498c.332-.19.52-.536.52-.9V1.046c0-.805-.867-1.31-1.561-.9L2.367 8.052a1.037 1.037 0 0 0 0 1.8l5.887 3.408c.332.174.726.174 1.042 0zm-1.31 11.237v-9.075c0-.363-.205-.71-.521-.9L1.562 11.13a1.037 1.037 0 0 0-1.562.9v15.876c0 .805.868 1.31 1.562.9l5.887-3.41a1 1 0 0 0 .537-.899zm21.274.884l5.887 3.409c.694.395 1.562-.095 1.562-.9V12.045c0-.805-.868-1.31-1.562-.9l-5.887 3.41c-.331.189-.52.536-.52.899v9.027c0 .363.189.71.52.9zm-1.752 1.309l-7.875 4.562c-.331.19-.52.537-.52.9v6.802c0 .804.867 1.31 1.562.9l13.777-7.955a1.037 1.037 0 0 0 0-1.8l-5.886-3.408a1.139 1.139 0 0 0-1.058 0zm-10.416 4.562l-7.86-4.545c-.33-.19-.71-.19-1.041 0l-5.887 3.409a1.037 1.037 0 0 0 0 1.799l13.762 7.938c.695.395 1.563-.095 1.563-.9v-6.802a1.076 1.076 0 0 0-.537-.9z" fill="#000"/></g><defs><linearGradient id="paint0_linear" x1="9.228" y1="4.18" x2="28.354" y2="35.338" gradientUnits="userSpaceOnUse"><stop offset=".254" stop-color="#CAAD6E"/><stop offset=".407" stop-color="#C5A86A"/><stop offset=".593" stop-color="#B7995E"/><stop offset=".795" stop-color="#9F814A"/><stop offset="1" stop-color="#80602F"/></linearGradient><linearGradient id="paint1_linear" x1="-2.373" y1="11.302" x2="16.753" y2="42.459" gradientUnits="userSpaceOnUse"><stop offset=".254" stop-color="#CAAD6E"/><stop offset=".407" stop-color="#C5A86A"/><stop offset=".593" stop-color="#B7995E"/><stop offset=".795" stop-color="#9F814A"/><stop offset="1" stop-color="#80602F"/></linearGradient><linearGradient id="paint2_linear" x1="20.015" y1="-2.442" x2="39.142" y2="28.716" gradientUnits="userSpaceOnUse"><stop offset=".254" stop-color="#CAAD6E"/><stop offset=".407" stop-color="#C5A86A"/><stop offset=".593" stop-color="#B7995E"/><stop offset=".795" stop-color="#9F814A"/><stop offset="1" stop-color="#80602F"/></linearGradient><linearGradient id="paint3_linear" x1="8.436" y1="4.666" x2="27.562" y2="35.824" gradientUnits="userSpaceOnUse"><stop offset=".254" stop-color="#CAAD6E"/><stop offset=".407" stop-color="#C5A86A"/><stop offset=".593" stop-color="#B7995E"/><stop offset=".795" stop-color="#9F814A"/><stop offset="1" stop-color="#80602F"/></linearGradient><linearGradient id="paint4_linear" x1="-2.648" y1="11.47" x2="16.478" y2="42.628" gradientUnits="userSpaceOnUse"><stop offset=".254" stop-color="#CAAD6E"/><stop offset=".407" stop-color="#C5A86A"/><stop offset=".593" stop-color="#B7995E"/><stop offset=".795" stop-color="#9F814A"/><stop offset="1" stop-color="#80602F"/></linearGradient><clipPath id="clip0"><path fill="#fff" d="M0 0h236.859v40H0z"/></clipPath></defs></svg>